<svg width="21" height="20" viewBox="0 0 21 20" fill="none" xmlns="http://www.w3.org/2000/svg">
<path id="Vector" d="M9.4368 0.419605C9.29713 0.552278 9.18631 0.709888 9.1107 0.883408C9.03509 1.05693 8.99617 1.24295 8.99617 1.43081C8.99617 1.61868 9.03509 1.8047 9.1107 1.97822C9.18631 2.15174 9.29713 2.30935 9.4368 2.44202L15.8764 8.57211H1.49981C1.10203 8.57211 0.72055 8.72259 0.439281 8.99044C0.158013 9.25829 3.31156e-08 9.62157 0 10.0004C-3.31156e-08 10.3792 0.158013 10.7425 0.439281 11.0103C0.72055 11.2782 1.10203 11.4286 1.49981 11.4286L15.8764 11.4286L9.43679 17.5587C9.29735 17.6915 9.18673 17.8492 9.11126 18.0227C9.0358 18.1962 8.99696 18.3821 8.99696 18.5699C8.99696 18.7577 9.0358 18.9437 9.11126 19.1172C9.18673 19.2907 9.29735 19.4483 9.43679 19.5811C9.57624 19.7139 9.74179 19.8193 9.92398 19.8911C10.1062 19.963 10.3015 20 10.4987 20C10.6959 20 10.8911 19.963 11.0733 19.8911C11.2555 19.8193 11.4211 19.7139 11.5605 19.5811L20.5594 11.0116C20.699 10.8789 20.8099 10.7213 20.8855 10.5478C20.9611 10.3743 21 10.1882 21 10.0004C21 9.81251 20.9611 9.62649 20.8855 9.45297C20.8099 9.27945 20.699 9.12184 20.5594 8.98916L11.5605 0.419605C11.4212 0.286596 11.2557 0.181069 11.0735 0.109066C10.8913 0.0370633 10.6959 1.72465e-08 10.4987 0C10.3014 -1.72465e-08 10.106 0.0370633 9.92384 0.109066C9.74162 0.181069 9.57612 0.286596 9.4368 0.419605Z" fill="#393939"/>
</svg>
