<svg width="18" height="16" viewBox="0 0 18 16" fill="none" xmlns="http://www.w3.org/2000/svg">
<path id="Vector" fill-rule="evenodd" clip-rule="evenodd" d="M1 14.2222C1 14.0159 1.07662 13.8181 1.21301 13.6723C1.3494 13.5264 1.53439 13.4444 1.72727 13.4444H16.2727C16.4656 13.4444 16.6506 13.5264 16.787 13.6723C16.9234 13.8181 17 14.0159 17 14.2222C17 14.4285 16.9234 14.6263 16.787 14.7722C16.6506 14.9181 16.4656 15 16.2727 15H1.72727C1.53439 15 1.3494 14.9181 1.21301 14.7722C1.07662 14.6263 1 14.4285 1 14.2222ZM1 8C1 7.79372 1.07662 7.59589 1.21301 7.45003C1.3494 7.30417 1.53439 7.22222 1.72727 7.22222H16.2727C16.4656 7.22222 16.6506 7.30417 16.787 7.45003C16.9234 7.59589 17 7.79372 17 8C17 8.20628 16.9234 8.40411 16.787 8.54997C16.6506 8.69583 16.4656 8.77778 16.2727 8.77778H1.72727C1.53439 8.77778 1.3494 8.69583 1.21301 8.54997C1.07662 8.40411 1 8.20628 1 8ZM1 1.77778C1 1.5715 1.07662 1.37367 1.21301 1.22781C1.3494 1.08194 1.53439 1 1.72727 1H16.2727C16.4656 1 16.6506 1.08194 16.787 1.22781C16.9234 1.37367 17 1.5715 17 1.77778C17 1.98406 16.9234 2.18189 16.787 2.32775C16.6506 2.47361 16.4656 2.55556 16.2727 2.55556H1.72727C1.53439 2.55556 1.3494 2.47361 1.21301 2.32775C1.07662 2.18189 1 1.98406 1 1.77778Z" fill="white" stroke="white"/>
</svg>
