<svg width="56" height="56" viewBox="0 0 56 56" fill="none" xmlns="http://www.w3.org/2000/svg">
<path fill-rule="evenodd" clip-rule="evenodd" d="M28 56C43.464 56 56 43.464 56 28C56 12.536 43.464 0 28 0C12.536 0 0 12.536 0 28C0 43.464 12.536 56 28 56ZM39.155 19.4614C39.4391 19.4614 39.6655 19.5802 39.8342 19.818C40.0029 20.0558 40.0429 20.3156 39.9541 20.5974L35.8789 30.5252C35.8256 30.6837 35.7235 30.8158 35.5726 30.9215C35.4217 31.0272 35.2574 31.08 35.0798 31.08L23.5735 32.7586C23.4492 32.7586 23.3338 32.7322 23.2272 32.6793C23.1207 32.6265 23.0274 32.5516 22.9475 32.4547C22.8676 32.3579 22.8099 32.2566 22.7744 32.1509L18.7259 19.5099C18.6548 19.2457 18.5661 19.0476 18.4595 18.9155C18.353 18.7834 18.2686 18.7085 18.2065 18.6909C18.1443 18.6733 18.0777 18.6645 18.0067 18.6645L16.8257 18.6645C16.6836 18.6645 16.546 18.6293 16.4128 18.5588C16.2797 18.4884 16.1776 18.3871 16.1065 18.255C16.0355 18.1229 16 17.9864 16 17.8455C16 17.5989 16.0799 17.3963 16.2397 17.2378C16.3995 17.0793 16.5949 17 16.8257 17L18.0067 17C18.1843 17 18.3619 17.022 18.5394 17.0661C18.717 17.1101 18.9256 17.1937 19.1654 17.317C19.4051 17.4403 19.6315 17.6517 19.8445 17.9511C20.0576 18.2506 20.2263 18.6117 20.3506 19.0344L21.0698 21.1399L39.155 19.4614ZM34.4939 29.3891L24.2393 31.0677L21.5226 22.8308L37.9298 21.1523L34.4939 29.3891ZM22.4814 34.7727C22.0908 34.7727 21.7312 34.8696 21.4027 35.0633C21.0742 35.2571 20.8167 35.5125 20.6303 35.8295C20.4438 36.1466 20.3506 36.4989 20.3506 36.8864C20.3506 37.4676 20.5593 37.9652 20.9765 38.3791C21.3938 38.793 21.8955 39 22.4814 39C23.0674 39 23.569 38.793 23.9863 38.3791C24.4036 37.9652 24.6122 37.4676 24.6122 36.8864C24.6122 36.7455 24.5989 36.6045 24.5723 36.4636C24.5456 36.3227 24.5057 36.1906 24.4524 36.0673C24.3992 35.944 24.3326 35.8251 24.2527 35.7106C24.1728 35.5962 24.084 35.4905 23.9863 35.3936C23.8886 35.2967 23.7821 35.2087 23.6667 35.1294C23.5513 35.0501 23.4314 34.9841 23.3071 34.9312C23.1828 34.8784 23.0496 34.8388 22.9076 34.8123C22.7655 34.7859 22.6235 34.7727 22.4814 34.7727ZM30.7929 35.3936C31.2101 34.9797 31.7118 34.7727 32.2977 34.7727C32.8837 34.7727 33.3853 34.9797 33.8026 35.3936C34.2199 35.8075 34.4286 36.3051 34.4286 36.8864C34.4286 37.4676 34.2199 37.9652 33.8026 38.3791C33.3853 38.793 32.8837 39 32.2977 39C31.7118 39 31.2101 38.793 30.7929 38.3791C30.3756 37.9652 30.1669 37.4676 30.1669 36.8864C30.1669 36.3051 30.3756 35.8075 30.7929 35.3936Z" fill="#FFC003"/>
</svg>
