<svg width="26" height="24" viewBox="0 0 26 24" fill="none" xmlns="http://www.w3.org/2000/svg">
<path id="Vector" d="M24.8342 3.81803C24.6655 3.58025 24.4391 3.46135 24.155 3.46135L6.06977 5.13992L5.35062 3.03438C5.22632 2.61165 5.05763 2.25057 4.84455 1.95114C4.63147 1.65171 4.40507 1.44034 4.16535 1.31705C3.92564 1.19375 3.71699 1.11009 3.53942 1.06605C3.36185 1.02202 3.18429 1 3.00672 1L1.82569 1.00001C1.59485 1.00001 1.39953 1.07927 1.23972 1.23779C1.07991 1.39632 1 1.59887 1 1.84546C1 1.98637 1.03551 2.12288 1.10654 2.25498C1.17757 2.38709 1.27967 2.48836 1.41284 2.55882C1.54602 2.62927 1.68364 2.6645 1.82569 2.6645L3.00672 2.66449C3.07775 2.66449 3.14433 2.6733 3.20648 2.69091C3.26863 2.70853 3.35298 2.78338 3.45952 2.91549C3.56606 3.04759 3.65484 3.24574 3.72587 3.50995L7.77442 16.1509C7.80993 16.2566 7.86764 16.3579 7.94754 16.4547C8.02745 16.5516 8.12067 16.6265 8.22721 16.6793C8.33375 16.7322 8.44917 16.7586 8.57347 16.7586L20.0798 15.08C20.2574 15.08 20.4217 15.0272 20.5726 14.9215C20.7235 14.8158 20.8256 14.6837 20.8789 14.5252L24.9541 4.59744C25.0429 4.31562 25.0029 4.05582 24.8342 3.81803ZM19.4939 13.3891L9.23935 15.0677L6.52256 6.83083L22.9298 5.15227L19.4939 13.3891ZM17.2977 18.7727C16.7118 18.7727 16.2101 18.9797 15.7929 19.3936C15.3756 19.8075 15.1669 20.3051 15.1669 20.8864C15.1669 21.4676 15.3756 21.9652 15.7929 22.3791C16.2101 22.793 16.7118 23 17.2977 23C17.8837 23 18.3853 22.793 18.8026 22.3791C19.2199 21.9652 19.4286 21.4676 19.4286 20.8864C19.4286 20.3051 19.2199 19.8075 18.8026 19.3936C18.3853 18.9797 17.8837 18.7727 17.2977 18.7727ZM7.48143 18.7727C7.09078 18.7727 6.7312 18.8696 6.4027 19.0633C6.0742 19.2571 5.81673 19.5125 5.63029 19.8295C5.44384 20.1466 5.35062 20.4989 5.35062 20.8864C5.35062 21.4676 5.55926 21.9652 5.97654 22.3791C6.39383 22.793 6.89545 23 7.48143 23C8.0674 23 8.56903 22.793 8.98631 22.3791C9.40359 21.9652 9.61224 21.4676 9.61224 20.8864C9.61224 20.7454 9.59892 20.6045 9.57228 20.4636C9.54565 20.3227 9.5057 20.1906 9.45243 20.0673C9.39916 19.944 9.33257 19.8251 9.25266 19.7106C9.17276 19.5962 9.08397 19.4905 8.98631 19.3936C8.88865 19.2967 8.78211 19.2087 8.66669 19.1294C8.55127 19.0501 8.43141 18.9841 8.30712 18.9312C8.18282 18.8784 8.04964 18.8388 7.90759 18.8123C7.76553 18.7859 7.62348 18.7727 7.48143 18.7727Z" fill="#393939" stroke="#393939"/>
</svg>
