<svg width="56" height="56" viewBox="0 0 56 56" fill="none" xmlns="http://www.w3.org/2000/svg">
<g id="Frame 40">
<circle id="Ellipse 1" cx="28" cy="28" r="28" fill="#FFC003"/>
<path id="Vector" d="M40.8204 19.0742C40.6377 18.8148 40.3924 18.6851 40.0846 18.6851L20.4922 20.5163L19.7132 18.2193C19.5785 17.7582 19.3958 17.3643 19.1649 17.0376C18.9341 16.711 18.6888 16.4804 18.4291 16.3459C18.1694 16.2114 17.9434 16.1201 17.751 16.0721C17.5587 16.024 17.3663 16 17.1739 16L15.8945 16C15.6444 16 15.4328 16.0865 15.2597 16.2594C15.0866 16.4323 15 16.6533 15 16.9223C15 17.076 15.0385 17.225 15.1154 17.3691C15.1924 17.5132 15.303 17.6237 15.4472 17.7005C15.5915 17.7774 15.7406 17.8158 15.8945 17.8158L17.1739 17.8158C17.2509 17.8158 17.323 17.8254 17.3904 17.8446C17.4577 17.8638 17.5491 17.9455 17.6645 18.0896C17.7799 18.2337 17.8761 18.4499 17.953 18.7381L22.339 32.5283C22.3774 32.6435 22.4399 32.754 22.5265 32.8597C22.6131 32.9654 22.7141 33.0471 22.8295 33.1047C22.9449 33.1624 23.0699 33.1912 23.2046 33.1912L35.6698 31.36C35.8622 31.36 36.0401 31.3024 36.2036 31.1871C36.3672 31.0718 36.4778 30.9277 36.5355 30.7547L40.9503 19.9245C41.0464 19.617 41.0032 19.3336 40.8204 19.0742ZM35.035 29.5154L23.926 31.3465L20.9828 22.3609L38.7573 20.5297L35.035 29.5154ZM32.6559 35.3884C32.0211 35.3884 31.4777 35.6142 31.0256 36.0657C30.5735 36.5173 30.3475 37.0601 30.3475 37.6942C30.3475 38.3283 30.5735 38.8711 31.0256 39.3227C31.4777 39.7742 32.0211 40 32.6559 40C33.2907 40 33.8341 39.7742 34.2862 39.3227C34.7382 38.8711 34.9643 38.3283 34.9643 37.6942C34.9643 37.0601 34.7382 36.5173 34.2862 36.0657C33.8341 35.6142 33.2907 35.3884 32.6559 35.3884ZM22.0215 35.3884C21.5983 35.3884 21.2088 35.4941 20.8529 35.7055C20.4971 35.9168 20.2181 36.1954 20.0161 36.5413C19.8142 36.8872 19.7132 37.2715 19.7132 37.6942C19.7132 38.3283 19.9392 38.8711 20.3913 39.3227C20.8433 39.7742 21.3867 40 22.0215 40C22.6563 40 23.1998 39.7742 23.6518 39.3227C24.1039 38.8711 24.3299 38.3283 24.3299 37.6942C24.3299 37.5405 24.3155 37.3868 24.2866 37.2331C24.2578 37.0793 24.2145 36.9352 24.1568 36.8007C24.0991 36.6662 24.0269 36.5365 23.9404 36.4116C23.8538 36.2867 23.7576 36.1714 23.6518 36.0657C23.546 35.9601 23.4306 35.864 23.3056 35.7775C23.1805 35.6911 23.0507 35.619 22.916 35.5614C22.7814 35.5037 22.6371 35.4605 22.4832 35.4317C22.3293 35.4028 22.1754 35.3884 22.0215 35.3884Z" fill="#F6F6F6" stroke="#F6F6F6"/>
</g>
</svg>
