<svg width="265" height="45" viewBox="0 0 265 45" fill="none" xmlns="http://www.w3.org/2000/svg">
<g id="&#208;&#159;&#208;&#152;&#208;&#146;&#208;&#156;&#208;&#144;&#208;&#147;&#208;&#144;&#208;&#151;">
<path d="M30.0028 0.572289V44.4277H21.399V8.73494H8.57923V44.4277H0V0.572289H30.0028Z" fill="#393939"/>
<path d="M43.5089 28.253L56.3287 0.572289H64.9325V44.4277H56.3287V16.7771L43.5089 44.4277H34.9052V0.572289H43.5089V28.253Z" fill="#393939"/>
<path d="M84.7627 25.7831H75.5707L75.5217 18.8554H82.9734C84.3134 18.8554 85.3837 18.6747 86.1844 18.3133C86.9852 17.9317 87.5653 17.3795 87.9248 16.6566C88.3007 15.9337 88.4886 15.0301 88.4886 13.9458C88.4886 12.7008 88.3007 11.6968 87.9248 10.9337C87.549 10.1707 86.9525 9.61847 86.1354 9.27711C85.3347 8.91566 84.297 8.73494 83.0224 8.73494H78.8063V44.4277H70.2026V0.572289H83.0224C85.2285 0.572289 87.1976 0.823293 88.9298 1.3253C90.662 1.80723 92.1327 2.5502 93.342 3.55422C94.5676 4.55823 95.499 5.82329 96.1363 7.3494C96.7737 8.85542 97.0923 10.6325 97.0923 12.6807C97.0923 14.4679 96.7818 16.1446 96.1609 17.7108C95.5399 19.2771 94.5022 20.5522 93.0478 21.5361C91.6098 22.5 89.6407 23.002 87.1404 23.0422L84.7627 25.7831ZM84.4196 44.4277H73.4872L76.4286 36.2952H84.4196C85.5962 36.2952 86.5358 36.0743 87.2385 35.6325C87.9575 35.1707 88.4722 34.5683 88.7827 33.8253C89.1096 33.0622 89.273 32.2189 89.273 31.2952C89.273 30.1707 89.1177 29.1968 88.8072 28.3735C88.5131 27.5502 88.0392 26.9177 87.3855 26.4759C86.7319 26.0141 85.8576 25.7831 84.7627 25.7831H77.5317L77.5807 18.8554H86.2335L88.2435 21.6265C90.6293 21.506 92.5167 21.9177 93.9058 22.8614C95.3111 23.8052 96.3161 25.0502 96.9207 26.5964C97.5254 28.1426 97.8277 29.759 97.8277 31.4458C97.8277 34.3173 97.3211 36.7169 96.3079 38.6446C95.3111 40.5723 93.8159 42.0181 91.8222 42.9819C89.8286 43.9458 87.361 44.4277 84.4196 44.4277Z" fill="#393939"/>
<path d="M106.873 0.572289H113.883L121.85 31.0843L129.816 0.572289H136.826L124.693 44.4277H119.006L106.873 0.572289ZM102.608 0.572289H109.863L111.211 34.1867V44.4277H102.608V0.572289ZM133.836 0.572289H141.116V44.4277H132.488V34.1867L133.836 0.572289Z" fill="#393939"/>
<path d="M162.196 9.78916L153.495 44.4277H144.254L157.368 0.572289H163.226L162.196 9.78916ZM169.403 44.4277L160.677 9.78916L159.549 0.572289H165.481L178.668 44.4277H169.403ZM169.06 28.0723V36.2349H150.749V28.0723H169.06Z" fill="#393939"/>
<path d="M205.338 0.572289V8.73494H189.821V44.4277H181.242V0.572289H205.338Z" fill="#393939"/>
<path d="M219.359 9.78916L210.657 44.4277H201.416L214.53 0.572289H220.388L219.359 9.78916ZM226.565 44.4277L217.839 9.78916L216.711 0.572289H222.643L235.831 44.4277H226.565ZM226.222 28.0723V36.2349H207.911V28.0723H226.222Z" fill="#393939"/>
<path d="M252.94 23.4337H246.788V18.1325H251.347C252.409 18.1325 253.267 17.9217 253.921 17.5C254.574 17.0582 255.056 16.4357 255.367 15.6325C255.677 14.8092 255.832 13.8454 255.832 12.741C255.832 11.9177 255.653 11.1546 255.293 10.4518C254.95 9.749 254.419 9.18675 253.7 8.76506C252.981 8.34337 252.066 8.13253 250.955 8.13253C250.105 8.13253 249.329 8.30321 248.626 8.64458C247.923 8.98594 247.368 9.48795 246.959 10.1506C246.551 10.7932 246.346 11.5964 246.346 12.5602H237.767C237.767 10.5924 238.118 8.83534 238.821 7.28916C239.524 5.74297 240.48 4.42771 241.689 3.34337C242.915 2.25904 244.32 1.43574 245.905 0.873494C247.507 0.291165 249.19 0 250.955 0C252.997 0 254.844 0.271084 256.494 0.813253C258.145 1.33534 259.558 2.11847 260.735 3.16265C261.928 4.20683 262.843 5.51205 263.48 7.07831C264.118 8.6245 264.436 10.4217 264.436 12.4699C264.436 13.9759 264.158 15.3916 263.603 16.7169C263.064 18.0422 262.287 19.2068 261.274 20.2108C260.261 21.2149 259.044 22.008 257.622 22.5904C256.217 23.1526 254.656 23.4337 252.94 23.4337ZM246.788 20.753H252.94C254.852 20.753 256.552 21.004 258.039 21.506C259.526 22.008 260.784 22.741 261.813 23.7048C262.859 24.6687 263.652 25.8635 264.191 27.2892C264.73 28.6948 265 30.3112 265 32.1386C265 34.1867 264.649 36.0141 263.946 37.6205C263.26 39.2068 262.287 40.5522 261.029 41.6566C259.771 42.761 258.284 43.5944 256.568 44.1566C254.868 44.7189 252.997 45 250.955 45C249.304 45 247.662 44.759 246.028 44.2771C244.41 43.7751 242.939 43.012 241.615 41.988C240.292 40.9639 239.23 39.6486 238.429 38.0422C237.645 36.4357 237.252 34.508 237.252 32.259H245.881C245.881 33.1426 246.093 33.9357 246.518 34.6386C246.959 35.3414 247.564 35.8936 248.332 36.2952C249.1 36.6968 249.974 36.8976 250.955 36.8976C252.098 36.8976 253.071 36.6767 253.872 36.2349C254.689 35.7932 255.31 35.1908 255.734 34.4277C256.159 33.6647 256.372 32.8213 256.372 31.8976C256.372 30.8133 256.266 29.8996 256.053 29.1566C255.841 28.3936 255.522 27.7811 255.097 27.3193C254.672 26.8373 254.141 26.496 253.504 26.2952C252.883 26.0743 252.164 25.9639 251.347 25.9639H246.788V20.753Z" fill="#393939"/>
</g>
</svg>
