<svg width="12" height="12" viewBox="0 0 12 12" fill="none" xmlns="http://www.w3.org/2000/svg">
<path id="Vector" fill-rule="evenodd" clip-rule="evenodd" d="M11.6482 0.354835C11.8731 0.5798 11.9994 0.884878 11.9994 1.20298C11.9994 1.52108 11.8731 1.82615 11.6482 2.05112L7.69637 6.00031L11.6482 9.94951C11.8734 10.1748 12 10.4803 12 10.7989C12 11.1174 11.8734 11.4229 11.6482 11.6482C11.4229 11.8735 11.1174 12 10.7988 12C10.4802 12 10.1747 11.8735 9.9494 11.6482L6 7.6966L2.0506 11.6482C1.93906 11.7597 1.80663 11.8482 1.6609 11.9086C1.51516 11.9689 1.35896 12 1.20121 12C1.04347 12 0.887266 11.9689 0.741528 11.9086C0.595791 11.8482 0.46337 11.7597 0.351827 11.6482C0.240284 11.5367 0.151803 11.4042 0.0914368 11.2585C0.0310702 11.1128 0 10.9566 0 10.7989C0 10.6411 0.0310702 10.4849 0.0914368 10.3392C0.151803 10.1935 0.240284 10.061 0.351827 9.94951L4.30363 6.00031L0.351827 2.05112C0.126556 1.82586 0 1.52034 0 1.20178C0 0.883213 0.126556 0.577696 0.351827 0.352437C0.577098 0.127177 0.882631 0.000627912 1.20121 0.000627912C1.51979 0.000627912 1.82533 0.127177 2.0506 0.352437L6 4.30403L9.9494 0.352437C10.0608 0.240719 10.1932 0.152083 10.339 0.091606C10.4847 0.0311289 10.641 0 10.7988 0C10.9566 0 11.1128 0.0311289 11.2586 0.091606C11.4043 0.152083 11.5367 0.243118 11.6482 0.354835Z" fill="white"/>
</svg>
