<svg width="111" height="15" viewBox="0 0 111 15" fill="none" xmlns="http://www.w3.org/2000/svg">
<g id="Frame 41">
<g id="&#208;&#159;&#208;&#152;&#208;&#146;&#208;&#156;&#208;&#144;&#208;&#147;&#208;&#144;&#208;&#151;">
<path d="M31.084 0.190763V14.8092H28.1581V2.91165H23.7984V14.8092H20.8809V0.190763H31.084Z" fill="#7E7E7E"/>
<path d="M35.677 9.41767L40.0367 0.190763H42.9626V14.8092H40.0367V5.59237L35.677 14.8092H32.7511V0.190763H35.677V9.41767Z" fill="#7E7E7E"/>
<path d="M49.7063 8.59438H46.5803L46.5637 6.28514H49.0978C49.5535 6.28514 49.9175 6.2249 50.1898 6.10442C50.4621 5.97724 50.6593 5.79317 50.7816 5.55221C50.9094 5.31124 50.9733 5.01004 50.9733 4.64859C50.9733 4.2336 50.9094 3.89893 50.7816 3.64458C50.6538 3.39023 50.451 3.20616 50.1731 3.09237C49.9008 2.97189 49.5479 2.91165 49.1144 2.91165H47.6807V14.8092H44.7548V0.190763H49.1144C49.8647 0.190763 50.5343 0.274431 51.1234 0.441767C51.7124 0.60241 52.2126 0.850067 52.6238 1.18474C53.0406 1.51941 53.3574 1.9411 53.5741 2.4498C53.7909 2.95181 53.8992 3.54418 53.8992 4.22691C53.8992 4.82262 53.7936 5.38153 53.5825 5.90361C53.3713 6.4257 53.0184 6.85074 52.5238 7.17871C52.0348 7.5 51.3651 7.66734 50.5149 7.68072L49.7063 8.59438ZM49.5896 14.8092H45.8718L46.8721 12.0984H49.5896C49.9897 12.0984 50.3092 12.0248 50.5482 11.8775C50.7927 11.7236 50.9678 11.5228 51.0734 11.2751C51.1845 11.0207 51.2401 10.7396 51.2401 10.4317C51.2401 10.0569 51.1873 9.73226 51.0817 9.45783C50.9817 9.1834 50.8205 8.97256 50.5982 8.8253C50.3759 8.67135 50.0786 8.59438 49.7063 8.59438H47.2472L47.2639 6.28514H50.2064L50.89 7.20884C51.7013 7.16867 52.3432 7.30589 52.8156 7.62048C53.2935 7.93507 53.6353 8.35007 53.8409 8.86546C54.0465 9.38086 54.1493 9.91968 54.1493 10.4819C54.1493 11.4391 53.977 12.239 53.6325 12.8815C53.2935 13.5241 52.785 14.006 52.107 14.3273C51.429 14.6486 50.5899 14.8092 49.5896 14.8092Z" fill="#7E7E7E"/>
<path d="M57.2252 0.190763H59.6093L62.3184 10.3614L65.0276 0.190763H67.4117L63.2854 14.8092H61.3515L57.2252 0.190763ZM55.7748 0.190763H58.2422L58.7007 11.3956V14.8092H55.7748V0.190763ZM66.3947 0.190763H68.8704V14.8092H65.9362V11.3956L66.3947 0.190763Z" fill="#7E7E7E"/>
<path d="M76.0393 3.26305L73.08 14.8092H69.9374L74.3971 0.190763H76.3894L76.0393 3.26305ZM78.49 14.8092L75.5225 3.26305L75.139 0.190763H77.1563L81.641 14.8092H78.49ZM78.3733 9.35743V12.0783H72.1464V9.35743H78.3733Z" fill="#7E7E7E"/>
<path d="M90.7104 0.190763V2.91165H85.4338V14.8092H82.5162V0.190763H90.7104Z" fill="#7E7E7E"/>
<path d="M95.4785 3.26305L92.5193 14.8092H89.3767L93.8364 0.190763H95.8286L95.4785 3.26305ZM97.9293 14.8092L94.9617 3.26305L94.5782 0.190763H96.5955L101.08 14.8092H97.9293ZM97.8126 9.35743V12.0783H91.5857V9.35743H97.8126Z" fill="#7E7E7E"/>
<path d="M106.899 7.81124H104.806V6.04418H106.357C106.718 6.04418 107.01 5.9739 107.232 5.83333C107.454 5.68608 107.618 5.47858 107.724 5.21084C107.829 4.93641 107.882 4.61513 107.882 4.24699C107.882 3.97256 107.821 3.71821 107.699 3.48394C107.582 3.24967 107.402 3.06225 107.157 2.92169C106.913 2.78112 106.601 2.71084 106.223 2.71084C105.934 2.71084 105.671 2.76774 105.432 2.88153C105.193 2.99531 105.004 3.16265 104.865 3.38353C104.726 3.59772 104.656 3.86546 104.656 4.18675H101.739C101.739 3.53079 101.858 2.94511 102.097 2.42972C102.336 1.91432 102.661 1.4759 103.072 1.11446C103.489 0.753012 103.967 0.478581 104.506 0.291165C105.051 0.0970549 105.623 0 106.223 0C106.918 0 107.546 0.0903614 108.107 0.271084C108.669 0.445114 109.149 0.706158 109.549 1.05422C109.955 1.40228 110.266 1.83735 110.483 2.35944C110.7 2.87483 110.808 3.4739 110.808 4.15663C110.808 4.65863 110.714 5.13052 110.525 5.57229C110.341 6.01406 110.077 6.40228 109.733 6.73695C109.388 7.07162 108.974 7.33601 108.491 7.53012C108.013 7.71754 107.482 7.81124 106.899 7.81124ZM104.806 6.91767H106.899C107.549 6.91767 108.127 7.00134 108.633 7.16867C109.138 7.33601 109.566 7.58032 109.916 7.90161C110.272 8.22289 110.541 8.62115 110.725 9.09639C110.908 9.56493 111 10.1037 111 10.7129C111 11.3956 110.88 12.0047 110.641 12.5402C110.408 13.0689 110.077 13.5174 109.649 13.8855C109.222 14.2537 108.716 14.5315 108.132 14.7189C107.554 14.9063 106.918 15 106.223 15C105.662 15 105.104 14.9197 104.548 14.759C103.998 14.5917 103.498 14.3373 103.047 13.996C102.597 13.6546 102.236 13.2162 101.964 12.6807C101.697 12.1452 101.564 11.5027 101.564 10.753H104.498C104.498 11.0475 104.57 11.3119 104.715 11.5462C104.865 11.7805 105.07 11.9645 105.332 12.0984C105.593 12.2323 105.89 12.2992 106.223 12.2992C106.612 12.2992 106.943 12.2256 107.215 12.0783C107.493 11.9311 107.704 11.7303 107.849 11.4759C107.993 11.2216 108.066 10.9404 108.066 10.6325C108.066 10.2711 108.03 9.96653 107.957 9.71888C107.885 9.46452 107.777 9.26037 107.632 9.10643C107.488 8.94578 107.307 8.83199 107.09 8.76506C106.879 8.69143 106.635 8.65462 106.357 8.65462H104.806V6.91767Z" fill="#7E7E7E"/>
</g>
<g id="Group 64">
<g id="g12">
<path id="path14" d="M13.4946 10.8174V8.75412C13.4946 8.27179 13.0968 7.88072 12.6062 7.88072H8.71217H6.69102H2.79708C2.30643 7.88072 1.90869 8.27179 1.90869 8.75412V10.8174H13.4946Z" fill="#393939"/>
<path id="path16" d="M13.753 10.8174H13.2358V8.75412C13.2358 8.41272 12.9533 8.13493 12.606 8.13493H2.79688C2.44958 8.13493 2.16704 8.41272 2.16704 8.75412V10.8174H1.6499V8.75412C1.6499 8.13237 2.16441 7.62656 2.79688 7.62656H12.606C13.2384 7.62656 13.753 8.13237 13.753 8.75412V10.8174" fill="#7E7E7E"/>
<path id="path18" d="M3.2609 1.23111C3.22116 1.24742 3.19092 1.27669 3.1758 1.31345C3.16219 1.34659 3.16245 1.38256 3.17648 1.41467C3.19846 1.46472 3.24766 1.49585 3.30497 1.49585C3.32623 1.49585 3.34735 1.49156 3.36789 1.48313C3.44448 1.45172 3.48183 1.37189 3.4529 1.30134C3.42492 1.23316 3.33623 1.20012 3.2609 1.23111" fill="#7E7E7E"/>
<path id="path20" d="M4.15706 1.44648L4.08542 1.24251C4.11345 1.23314 4.14148 1.22377 4.16952 1.21459C4.22574 1.19628 4.27469 1.187 4.31493 1.187C4.35665 1.187 4.40961 1.19721 4.42477 1.24605C4.45119 1.33109 4.36202 1.37942 4.28245 1.405C4.24057 1.41861 4.19879 1.43241 4.15706 1.44648V1.44648ZM4.12741 1.03164C4.09269 1.04301 4.05803 1.05442 4.02344 1.06612L3.95362 0.867599C3.99819 0.852594 4.04279 0.837915 4.08749 0.823375C4.19187 0.789822 4.26229 0.802825 4.28029 0.860004C4.30169 0.928228 4.24181 0.995567 4.12741 1.03164V1.03164ZM4.46032 1.01439C4.53276 0.941089 4.55678 0.85567 4.52974 0.764099C4.47716 0.584405 4.28436 0.526247 4.00748 0.615488C3.89175 0.653095 3.77452 0.693126 3.65909 0.734414L3.63013 0.744806L3.99804 1.73755L4.02698 1.72716C4.13226 1.6895 4.2391 1.65297 4.34459 1.61872C4.60316 1.53469 4.73715 1.36591 4.68612 1.18859C4.66497 1.11645 4.60821 1.03201 4.46032 1.01439Z" fill="#7E7E7E"/>
<path id="path22" d="M5.30615 0.834497C5.2697 0.842419 5.23329 0.850574 5.19689 0.858916L5.12019 0.538674C5.15792 0.530006 5.19566 0.521571 5.23334 0.513323C5.37526 0.482566 5.45718 0.519287 5.47908 0.627774C5.50117 0.736867 5.44461 0.804439 5.30615 0.834497V0.834497ZM5.82995 1.02281C5.76122 1.03511 5.72443 1.0045 5.67608 0.963535C5.6612 0.950953 5.64598 0.938091 5.62925 0.926114C5.73628 0.828345 5.76624 0.684628 5.74652 0.577585C5.70438 0.343881 5.49064 0.230407 5.19859 0.293412C5.08018 0.319182 4.96035 0.347097 4.84236 0.376409L4.8125 0.383865L5.07611 1.4082L5.10597 1.40075C5.16551 1.38593 5.22509 1.37162 5.28482 1.35783L5.31478 1.35088L5.24742 1.06955C5.27548 1.06317 5.30364 1.05688 5.33175 1.05059L5.33895 1.049C5.35289 1.04588 5.36626 1.0429 5.37929 1.03936C5.41954 1.05366 5.45073 1.08721 5.48652 1.12571C5.54577 1.18936 5.61285 1.2615 5.74126 1.2615C5.76416 1.2615 5.78862 1.25908 5.81374 1.25437C5.92556 1.23401 5.93092 1.217 5.93386 1.20786L5.93609 1.20087L5.902 1.01023L5.82995 1.02281" fill="#7E7E7E"/>
<path id="path24" d="M6.90344 0.882019C6.74782 0.894647 6.59044 0.910585 6.43525 0.929598L6.41245 0.753539C6.55404 0.736203 6.69819 0.721292 6.84135 0.709083L6.87202 0.706519L6.85315 0.490896L6.82248 0.493459C6.67738 0.505809 6.53034 0.521001 6.38476 0.538849L6.35675 0.322061C6.52062 0.302022 6.68715 0.285106 6.8523 0.271731L6.88301 0.269168L6.86448 0.0478595L6.83376 0.0503295C6.58912 0.0701349 6.34177 0.0976297 6.09859 0.132021L6.06812 0.136262L6.22108 1.18213L6.25156 1.1778C6.47293 1.14648 6.69857 1.12145 6.92207 1.10333L6.95279 1.10086L6.93411 0.879549L6.90344 0.882019Z" fill="#7E7E7E"/>
<path id="path26" d="M8.4734 0.0262462L8.45107 0.0251278L8.44302 0.0454919C8.37092 0.227655 8.30095 0.412242 8.23473 0.595198C8.15372 0.40157 8.06792 0.207851 7.97918 0.0181376L7.97103 0.000708899L7.86551 9.20066e-06L7.85717 0.0175312C7.76682 0.206452 7.67941 0.399287 7.59683 0.591936C7.53246 0.407209 7.46458 0.221411 7.39466 0.0384551L7.38684 0.0180444L7.36465 0.0188829C7.29085 0.0216789 7.21704 0.0251273 7.14328 0.0292282L7.1001 0.0316981L7.11664 0.0710292C7.25354 0.397376 7.38267 0.73118 7.50037 1.06303L7.50786 1.08395L7.61181 1.08148L7.61977 1.06372C7.71164 0.857096 7.81024 0.649116 7.9132 0.444724C8.01473 0.650328 8.11196 0.859659 8.20249 1.06773L8.21017 1.08535L8.31564 1.08936L8.32332 1.06843C8.44453 0.738263 8.57717 0.406137 8.71752 0.0814211L8.7344 0.0423233L8.69131 0.0393402C8.61864 0.0343539 8.54607 0.0299277 8.4734 0.0262462" fill="#7E7E7E"/>
<path id="path28" d="M10.2554 0.230519C10.2085 0.221153 10.1609 0.216446 10.114 0.216446C9.81599 0.216446 9.57295 0.402991 9.53631 0.659996C9.49123 0.973621 9.70184 1.23263 10.0605 1.30444C10.1177 1.31595 10.1762 1.32178 10.234 1.32178C10.3529 1.32178 10.4349 1.29712 10.4426 1.29209L10.4584 1.2817L10.4561 1.2632C10.4493 1.21007 10.4423 1.15695 10.4351 1.10382L10.4304 1.06971L10.3965 1.07866C10.3959 1.07875 10.3343 1.09469 10.2431 1.09469C10.1926 1.09469 10.1427 1.08984 10.0948 1.08024C9.89562 1.04054 9.77247 0.882282 9.80186 0.704033C9.82812 0.54573 9.95478 0.447448 10.1324 0.447448C10.1675 0.447448 10.2047 0.451315 10.2427 0.458911C10.361 0.482585 10.4706 0.55547 10.4968 0.573877L10.5145 0.614L10.5464 0.572572C10.58 0.528953 10.614 0.485428 10.6481 0.442089L10.6736 0.409701L10.6397 0.397025C10.6078 0.371068 10.4782 0.274884 10.2554 0.230519" fill="#7E7E7E"/>
<path id="path30" d="M11.6718 1.1776C11.6229 1.31199 11.4976 1.39877 11.3524 1.39877C11.3153 1.39877 11.2781 1.39308 11.2417 1.38185C11.0599 1.32546 10.96 1.1494 11.0093 0.972366C11.0487 0.830419 11.172 0.738707 11.3233 0.738707C11.3624 0.738707 11.4023 0.744905 11.4419 0.757161C11.5412 0.787918 11.6184 0.849805 11.6596 0.931356C11.6977 1.0069 11.7021 1.09432 11.6718 1.1776V1.1776ZM11.5074 0.547596C11.4364 0.525601 11.3643 0.514464 11.2932 0.514464C11.0265 0.514464 10.8077 0.669645 10.7488 0.900646C10.6728 1.19801 10.8518 1.48642 11.1746 1.58643C11.2448 1.60814 11.316 1.61914 11.3864 1.61914C11.6352 1.61914 11.8423 1.48367 11.9267 1.26558C11.9777 1.13421 11.9719 0.993056 11.9105 0.868165C11.8372 0.719321 11.694 0.605475 11.5074 0.547596" fill="#7E7E7E"/>
<path id="path32" d="M12.4969 1.31357C12.4817 1.27694 12.4509 1.24688 12.4121 1.23095C12.3359 1.19968 12.2482 1.23248 12.2201 1.30117C12.1907 1.37289 12.2272 1.451 12.3051 1.48296C12.3252 1.49121 12.3461 1.49536 12.3671 1.49536C12.425 1.49536 12.4745 1.46442 12.4964 1.41451C12.5104 1.38273 12.5106 1.34689 12.4969 1.31357" fill="#7E7E7E"/>
<path id="path34" d="M10.7533 5.11335C10.7533 4.8275 10.7089 4.54682 10.6212 4.27924C10.5762 4.14233 10.4946 4.02237 10.3863 3.92791C10.475 3.46819 10.3497 3.04631 10.0201 2.73441C9.63262 2.36776 9.01814 2.22413 8.51383 2.36277C8.2589 2.02501 7.80947 1.85323 7.3125 1.9174C6.80904 1.98246 6.41493 2.26412 6.25386 2.6571C5.90663 2.64224 5.54798 2.76773 5.29898 3.00298C5.03585 3.25164 4.9189 3.59528 4.96327 3.97918C4.88164 4.06446 4.81926 4.166 4.7821 4.27924C4.69438 4.54706 4.6499 4.82764 4.6499 5.11335C4.6499 5.87053 4.92796 6.78116 5.22233 7.74529C5.53865 8.78113 5.86577 10.4491 5.86577 11.3907C5.86577 11.8978 5.71584 12.3037 5.57078 12.6964C5.41355 13.1221 5.26504 13.5242 5.31732 14.0039C5.42464 14.9887 7.60872 15 7.70163 15C8.0179 15 8.55274 14.9578 9.01938 14.8387C9.68524 14.6688 10.0441 14.3879 10.0859 14.0039C10.1382 13.5242 9.98961 13.1222 9.83252 12.6964C9.68742 12.3037 9.53753 11.8978 9.53753 11.3907C9.53753 10.4491 9.86466 8.78113 10.1809 7.74529C10.4753 6.78116 10.7533 5.87053 10.7533 5.11335Z" fill="#7E7E7E"/>
<path id="path36" d="M5.1145 5.1133C5.1145 4.81678 5.17428 4.57222 5.22438 4.41927C5.26226 4.30365 5.37067 4.21092 5.50723 4.17732C5.86588 4.08887 6.62778 3.94068 7.70155 3.94068C8.77522 3.94068 9.53722 4.08887 9.89587 4.17732C10.0325 4.21092 10.1408 4.30365 10.1787 4.41932C10.2289 4.57208 10.2886 4.81655 10.2886 5.1133C10.2886 5.15562 10.2875 5.19867 10.2855 5.24234C10.1344 5.18218 9.95379 5.12877 9.7429 5.08324C9.65331 5.06381 9.55959 5.0831 9.48574 5.13595C9.41302 5.188 9.36628 5.2682 9.35766 5.35591L9.28129 6.12627C9.26508 6.23625 9.18502 6.32717 9.07632 6.35844C8.79959 6.43808 8.5976 6.67131 8.56181 6.95265L8.53181 7.18891C8.52441 7.24712 8.47388 7.29102 8.41415 7.29102C8.36718 7.29102 8.3294 7.25485 8.32812 7.20946L8.27863 5.21801C8.27436 5.04429 8.13448 4.90509 7.96027 4.90122C7.0437 4.88104 5.83782 4.95262 5.11654 5.20091C5.11564 5.17155 5.1145 5.14201 5.1145 5.1133" fill="#393939"/>
<path id="path38" d="M6.3691 3.1314C6.43115 3.14547 6.49619 3.13373 6.54918 3.09919C6.60218 3.06466 6.63849 3.01033 6.64963 2.94877C6.71594 2.58234 7.0808 2.40819 7.37304 2.3704C7.65784 2.33363 8.04606 2.40796 8.20349 2.73869C8.22956 2.79368 8.27696 2.83609 8.33494 2.85673C8.393 2.87733 8.45695 2.87444 8.51284 2.84862C8.87357 2.68179 9.39396 2.7762 9.69781 3.06364C9.83841 3.19673 9.97208 3.40825 9.9481 3.71969C9.479 3.60873 8.72416 3.48389 7.70159 3.48389C6.65631 3.48389 5.89085 3.61442 5.42432 3.72705C5.44337 3.57178 5.50936 3.43789 5.62099 3.33239C5.80979 3.154 6.11028 3.07319 6.3691 3.1314Z" fill="#393939"/>
<path id="path40" d="M9.62366 13.9554C9.60536 14.1234 9.34251 14.2842 8.90257 14.3965C8.44878 14.5123 7.93404 14.5432 7.70148 14.5432C7.46887 14.5432 6.95418 14.5123 6.50048 14.3965C6.06049 14.2842 5.79764 14.1234 5.7793 13.9554C5.76636 13.8367 5.77015 13.7217 5.78579 13.6076C5.99854 13.727 6.28267 13.8215 6.6352 13.8897C7.0368 13.9673 7.44925 13.9949 7.70148 13.9949C8.15678 13.9949 9.07189 13.9099 9.61707 13.6069C9.63285 13.7212 9.63664 13.8364 9.62366 13.9554" fill="#393939"/>
<path id="path42" d="M9.07284 11.3908C9.07284 11.9782 9.24439 12.4427 9.3957 12.8524C9.43182 12.9503 9.46671 13.0449 9.49809 13.1375C9.13275 13.429 8.20589 13.5381 7.70162 13.5381C7.14725 13.5381 6.24977 13.4133 5.90511 13.1375C5.93649 13.0449 5.97142 12.9503 6.00759 12.8524C6.15895 12.4427 6.3304 11.9782 6.3304 11.3908C6.3304 10.3821 5.99337 8.68142 5.66743 7.61402C5.45521 6.91892 5.25185 6.25266 5.16235 5.67243C5.6542 5.4672 6.69028 5.34166 7.81728 5.35587L7.86364 7.22145C7.87189 7.51676 8.11369 7.74804 8.41422 7.74804C8.70769 7.74804 8.95656 7.53209 8.99306 7.24568L9.02302 7.00946C9.03577 6.90895 9.10806 6.82548 9.20689 6.79706C9.49311 6.71466 9.70334 6.47374 9.74249 6.18309L9.80364 5.56739C10.0092 5.62024 10.1443 5.67392 10.2329 5.71992C10.1399 6.28901 9.9423 6.93765 9.73576 7.61402C9.40987 8.68142 9.07284 10.3821 9.07284 11.3908" fill="#393939"/>
<path id="path44" d="M6.21798 6.04501C6.19073 5.92171 6.06672 5.84351 5.94153 5.8704C5.81615 5.89724 5.73661 6.01896 5.76391 6.14222C5.84478 6.50711 5.98135 6.92792 6.12597 7.37347C6.55819 8.70551 7.09612 10.9602 6.64939 12.5414C6.61503 12.6629 6.68736 12.7888 6.81104 12.8227C6.83189 12.8284 6.85275 12.8311 6.87337 12.8311C6.97515 12.8311 7.06858 12.7647 7.09711 12.6637C7.581 10.9512 7.01966 8.62452 6.56871 7.23465C6.4275 6.79967 6.29421 6.38874 6.21798 6.04501Z" fill="#7E7E7E"/>
<path id="path46" d="M1.50686 4.09193C1.38759 4.29437 1.26781 4.43808 1.46303 4.84971C2.55663 7.18494 3.08955 9.74021 3.01945 12.3164C2.99417 13.0808 3.39962 13.4713 3.77319 13.9775C3.7461 14.1988 3.71412 14.4199 3.67846 14.6408L4.04846 14.7043C4.08529 14.4765 4.11827 14.2485 4.14617 14.0203C4.6085 13.6206 5.11821 13.2421 5.14675 12.3659C5.22454 9.47034 4.62475 6.5966 3.3933 3.96932C3.17281 3.50522 2.99014 3.52456 2.73263 3.4754C3.01936 4.02925 3.27667 4.59541 3.5041 5.17177C3.50414 5.17172 3.4772 5.24498 3.43571 5.35184C3.38271 5.24246 3.31707 5.13593 3.24465 5.03537C3.0208 4.48771 2.76951 3.94966 2.49121 3.42316C2.25499 2.98189 2.07431 3.01097 1.81674 2.97761C2.07925 3.42996 2.32074 3.89197 2.541 4.36236C2.46084 4.31482 2.40192 4.29376 2.37855 4.30457C2.3552 4.31538 2.3343 4.37363 2.3186 4.46371C2.10138 3.99971 1.86312 3.5439 1.60415 3.09765C1.49888 3.33317 1.38567 3.46062 1.60859 3.87719C1.87186 4.37545 2.10954 4.88457 2.32132 5.40286C2.33741 5.5189 2.35983 5.63424 2.39138 5.74403C2.29021 5.69626 2.22175 5.66467 2.22179 5.66467C2.01103 5.13025 1.77256 4.60533 1.50686 4.09193Z" fill="#7E7E7E"/>
<path id="path48" d="M4.17261 12.1636C4.26408 11.6767 4.50987 11.3158 4.8647 11.1109C4.80179 11.623 4.53728 11.9883 4.17261 12.1636Z" fill="#393939"/>
<path id="path50" d="M4.15771 11.0859C4.21936 10.596 4.44282 10.2221 4.78454 9.99702C4.75288 10.5109 4.51096 10.8901 4.15771 11.0859Z" fill="#393939"/>
<path id="path52" d="M4.07739 10.0139C4.10919 9.52223 4.30959 9.13628 4.63704 8.89186C4.63656 9.40596 4.41812 9.79792 4.07739 10.0139Z" fill="#393939"/>
<path id="path54" d="M3.93237 8.9502C3.93425 8.45813 4.11089 8.06133 4.42288 7.79803C4.45364 8.31115 4.25936 8.71491 3.93237 8.9502Z" fill="#393939"/>
<path id="path56" d="M3.72276 7.89795C3.69478 7.40691 3.84693 7.00023 4.14231 6.71899C4.20425 7.2296 4.03493 7.64388 3.72276 7.89795Z" fill="#393939"/>
<path id="path58" d="M3.44978 6.85962C3.39186 6.37082 3.51883 5.95565 3.79639 5.65713C3.88966 6.16377 3.74584 6.58756 3.44978 6.85962Z" fill="#393939"/>
<path id="path60" d="M3.11351 6.09302C2.69281 5.89212 2.64425 5.23761 2.62476 4.84551C2.89853 5.11519 3.32372 5.67598 3.11351 6.09302" fill="#393939"/>
<path id="path62" d="M3.28467 11.1781C3.65363 11.3344 3.9259 11.6744 4.00145 12.1614C3.64234 11.9758 3.38699 11.6384 3.28467 11.1781Z" fill="#393939"/>
<path id="path64" d="M3.21143 10.1569C3.58926 10.2908 3.88162 10.6135 3.98672 11.0938C3.61694 10.9301 3.34155 10.6094 3.21143 10.1569Z" fill="#393939"/>
<path id="path66" d="M3.07666 9.14394C3.46199 9.25522 3.77335 9.55962 3.90741 10.0317C3.52828 9.89049 3.23403 9.58735 3.07666 9.14394Z" fill="#393939"/>
<path id="path68" d="M2.88062 8.14159C3.27192 8.22985 3.60123 8.51523 3.76369 8.97803C3.37673 8.85966 3.06459 8.57465 2.88062 8.14159Z" fill="#393939"/>
<path id="path70" d="M2.62378 7.15256C3.01978 7.2177 3.36593 7.48333 3.5562 7.93555C3.1628 7.84015 2.83385 7.57425 2.62378 7.15256Z" fill="#393939"/>
<path id="path72" d="M2.30688 6.17974C2.70621 6.22159 3.06803 6.46675 3.28564 6.90723C2.88701 6.83504 2.54247 6.58875 2.30688 6.17974Z" fill="#393939"/>
<path id="path74" d="M4.12134 13.2439C4.2426 12.7614 4.51 12.4148 4.87673 12.2303C4.78263 12.7394 4.49602 13.0899 4.12134 13.2439Z" fill="#393939"/>
<path id="path76" d="M3.29541 12.2042C3.65422 12.3825 3.90518 12.739 3.95066 13.2314C3.60357 13.0243 3.36944 12.6711 3.29541 12.2042Z" fill="#393939"/>
<path id="path78" d="M13.8961 4.09193C14.0154 4.29436 14.1352 4.43808 13.9399 4.84971C12.8463 7.18494 12.3134 9.74021 12.3835 12.3164C12.4089 13.0808 12.0034 13.4713 11.6298 13.9775C11.6569 14.1988 11.6889 14.4199 11.7245 14.6408L11.3545 14.7043C11.3177 14.4765 11.2847 14.2485 11.2569 14.0203C10.7945 13.6206 10.2848 13.2421 10.2562 12.3659C10.1785 9.47034 10.7782 6.5966 12.0096 3.96932C12.2302 3.50522 12.4128 3.52456 12.6704 3.4754C12.3836 4.02925 12.1263 4.59541 11.8988 5.17177C11.8988 5.17177 11.9258 5.24498 11.9673 5.35184C12.0203 5.24246 12.0859 5.13593 12.1583 5.03537C12.3821 4.48771 12.6335 3.94966 12.9118 3.42316C13.148 2.98189 13.3287 3.01097 13.5862 2.9776C13.3238 3.42996 13.0822 3.89196 12.8619 4.36236C12.942 4.31482 13.0011 4.29376 13.0245 4.30457C13.0478 4.31538 13.0686 4.37363 13.0843 4.46371C13.3016 3.99971 13.5399 3.5439 13.7987 3.09765C13.9041 3.33317 14.0173 3.46062 13.7945 3.87719C13.5312 4.37545 13.2934 4.88457 13.0817 5.40286C13.0656 5.5189 13.0431 5.63424 13.0116 5.74403C13.1128 5.69626 13.1812 5.66467 13.1811 5.66467C13.3919 5.13025 13.6305 4.60533 13.8961 4.09193" fill="#7E7E7E"/>
<path id="path80" d="M10.5383 11.1109C10.8933 11.3158 11.139 11.6767 11.2305 12.1636C10.8658 11.9883 10.6013 11.623 10.5383 11.1109Z" fill="#393939"/>
<path id="path82" d="M10.6184 9.99702C10.9601 10.2221 11.1836 10.596 11.2452 11.0859C10.892 10.8901 10.6501 10.5109 10.6184 9.99702Z" fill="#393939"/>
<path id="path84" d="M10.7659 8.89186C11.0934 9.13628 11.2938 9.52223 11.3256 10.0139C10.9848 9.79792 10.7664 9.40596 10.7659 8.89186Z" fill="#393939"/>
<path id="path86" d="M10.9802 7.79803C11.2922 8.06133 11.4689 8.45813 11.4708 8.9502C11.1438 8.71491 10.9494 8.31115 10.9802 7.79803Z" fill="#393939"/>
<path id="path88" d="M11.2607 6.71899C11.556 7.00023 11.7082 7.40691 11.6802 7.89795C11.368 7.64388 11.1987 7.2296 11.2607 6.71899Z" fill="#393939"/>
<path id="path90" d="M11.6068 5.65713C11.8844 5.95565 12.0113 6.37082 11.9534 6.85962C11.6573 6.58756 11.5135 6.16377 11.6068 5.65713Z" fill="#393939"/>
<path id="path92" d="M12.7783 4.84551C12.7588 5.23761 12.7102 5.89212 12.2896 6.09302C12.0793 5.67598 12.5046 5.11519 12.7783 4.84551Z" fill="#393939"/>
<path id="path94" d="M11.4016 12.1614C11.4772 11.6744 11.7495 11.3344 12.1185 11.1781C12.0161 11.6384 11.7608 11.9758 11.4016 12.1614Z" fill="#393939"/>
<path id="path96" d="M11.416 11.0938C11.5212 10.6135 11.8136 10.2908 12.1914 10.1569C12.0612 10.6094 11.7858 10.9301 11.416 11.0938Z" fill="#393939"/>
<path id="path98" d="M11.4956 10.0317C11.6297 9.55962 11.941 9.25522 12.3263 9.14394C12.169 9.58735 11.8747 9.89049 11.4956 10.0317Z" fill="#393939"/>
<path id="path100" d="M11.6394 8.97803C11.8019 8.51523 12.1312 8.22985 12.5226 8.14159C12.3385 8.57465 12.0264 8.85966 11.6394 8.97803Z" fill="#393939"/>
<path id="path102" d="M11.8469 7.93555C12.0372 7.48333 12.3833 7.2177 12.7793 7.15256C12.5693 7.57425 12.2403 7.84015 11.8469 7.93555Z" fill="#393939"/>
<path id="path104" d="M12.1174 6.90723C12.3351 6.46675 12.6968 6.22159 13.0962 6.17974C12.8606 6.58875 12.516 6.83504 12.1174 6.90723" fill="#393939"/>
<path id="path106" d="M10.5264 12.2303C10.8931 12.4148 11.1605 12.7614 11.2818 13.2439C10.9071 13.0899 10.6206 12.7394 10.5264 12.2303Z" fill="#393939"/>
<path id="path108" d="M11.4524 13.2314C11.4979 12.739 11.7488 12.3825 12.1076 12.2042C12.0336 12.6711 11.7995 13.0243 11.4524 13.2314Z" fill="#393939"/>
<path id="path110" d="M13.4946 8.75404C13.4946 9.23641 13.0968 9.62753 12.6062 9.62753H9.67995H8.71217H2.79708C2.30643 9.62753 1.90869 9.23641 1.90869 8.75404L1.91165 8.87353V11.5485C1.91165 12.1426 2.40155 12.6243 3.00582 12.6243C3.47901 12.6243 11.9241 12.6243 12.3974 12.6243C13.0017 12.6243 13.4916 12.1426 13.4916 11.5485V8.87353L13.4946 8.75404" fill="#393939"/>
<path id="path112" d="M2.17002 9.69794V11.5485C2.17002 12.0015 2.54491 12.37 3.00562 12.37H12.3972C12.858 12.37 13.2329 12.0015 13.2329 11.5485V9.69794C13.0525 9.81412 12.8371 9.88164 12.606 9.88164H2.79688C2.56568 9.88164 2.35031 9.81412 2.17002 9.69794V9.69794ZM12.3972 12.8784H3.00562C2.25973 12.8784 1.65288 12.2818 1.65288 11.5485V8.8766L1.65113 8.80665C1.65035 8.78917 1.6499 8.77165 1.6499 8.75404L2.16698 8.74784L2.16794 8.7875C2.18568 9.11342 2.46097 9.37327 2.79688 9.37327H12.606C12.9533 9.37327 13.2358 9.09553 13.2358 8.75404H13.753C13.753 8.79435 13.7508 8.83419 13.7466 8.87352H13.75V11.5485C13.75 12.2818 13.1432 12.8784 12.3972 12.8784" fill="#7E7E7E"/>
<path id="path114" d="M0.503594 10.7598L0.492317 10.7585L0.472262 10.761L0.463485 10.7585H0.440913L0.433359 10.761L0.420822 10.7598L0.410824 10.7585H0.400769L0.391992 10.761L0.381975 10.7585L0.371883 10.7598H0.341812L0.334257 10.7585H0.314203L0.302964 10.761L0.294169 10.7598H0.284133L0.2728 10.7585L0.265319 10.7598L0.253987 10.761H0.245285L0.222694 10.7585L0.213899 10.7598L0.203863 10.7585H0.165015L0.154942 10.761H0.144887L0.134851 10.7585L0.126074 10.7598L0.116075 10.7585L0.103558 10.7598L0.0947627 10.7585H0.0746535L0.0633954 10.7598H0.0533593L0.0471191 10.7498L0.0533593 10.7376L0.0545998 10.7289L0.0583958 10.7178L0.0621733 10.708L0.0646174 10.6907L0.0659319 10.6808L0.0646174 10.6698L0.0659319 10.6611V10.6414L0.0646174 10.6316L0.0659319 10.6217L0.0633954 10.6118V10.6007L0.0646174 10.5921L0.0659319 10.581L0.0646174 10.5699L0.0633954 10.5613L0.0646174 10.5514L0.0633954 10.5415L0.0659319 10.5329L0.0646174 10.523V10.512L0.0659319 10.5033V10.4934L0.0646174 10.4824L0.0659319 10.4725L0.0646174 10.4626L0.0659319 10.454L0.0633954 10.4428L0.0646174 10.4318L0.0659319 10.4244L0.0633954 10.4145L0.0659319 10.4034L0.0646174 10.3936L0.0633954 10.3825L0.0659319 10.3751L0.0646174 10.3639L0.0633954 10.3553L0.0659319 10.3442L0.0646174 10.3344V10.3147L0.0633954 10.3036L0.0659319 10.2962L0.0633954 10.2838V10.2752L0.0646174 10.2641L0.0633954 10.2543L0.0659319 10.2444L0.0633954 10.2371L0.0659319 10.226L0.0633954 10.2148L0.0659319 10.2049V10.1852L0.0646174 10.1766V10.1667L0.0633954 10.158V10.1371L0.0659319 10.126V10.1186L0.0646174 10.1075L0.0659319 10.0964L0.0633954 10.0792L0.0646174 10.0681L0.0633954 10.0582L0.0646174 10.0472V10.0373L0.0633954 10.0299L0.0646174 10.02L0.0633954 10.0102L0.0659319 9.98793L0.0633954 9.98056L0.0659319 9.97073L0.0646174 9.95833L0.0633954 9.95092L0.0659319 9.93988L0.0633954 9.92874V9.90167L0.0659319 9.89053L0.0633954 9.87324L0.0571183 9.86215L0.0558403 9.85106L0.0533593 9.84123L0.0495818 9.83256L0.0533593 9.82398L0.0646174 9.82273H0.0834491L0.0947627 9.82398H0.104761L0.116075 9.82273L0.123574 9.82398L0.136129 9.82151L0.144887 9.82398L0.156219 9.82273H0.163718L0.175032 9.82398L0.182532 9.82151L0.192568 9.82398L0.205122 9.82151L0.21264 9.82273L0.222694 9.82151H0.252747L0.262801 9.82273L0.275355 9.82398H0.281614L0.291613 9.82273L0.302964 9.82151H0.333017L0.343053 9.82398L0.354366 9.82151H0.363143L0.371883 9.82398H0.384456L0.393233 9.82273L0.401991 9.82398H0.420822L0.443432 9.82151L0.450912 9.82398L0.460948 9.82151H0.472262L0.483538 9.82273L0.491075 9.82151L0.502333 9.82273H0.512349L0.524925 9.83256V9.84001V9.84985L0.529941 9.86215L0.528699 9.87077L0.529941 9.87827L0.533719 9.88811L0.536183 9.90036L0.534961 9.90903L0.53744 9.91765L0.539976 9.92753V9.93615L0.541218 9.94724L0.542517 9.95461L0.546219 9.96574L0.547513 9.97436V9.9842L0.539976 9.99287L0.533719 9.98793L0.522404 9.98667L0.512349 9.9842L0.502333 9.98299L0.496095 9.97809L0.473502 9.97562H0.453449L0.444672 9.97809H0.433359L0.423322 9.97562L0.413268 9.97809H0.404509L0.39451 9.97562L0.381975 9.97683H0.351848L0.341812 9.97809H0.333017L0.321777 9.97562L0.312963 9.97809L0.300409 9.97683L0.29291 9.97562H0.2728L0.262801 9.97683L0.251525 9.97562L0.235156 9.98182L0.227694 9.9904L0.221472 10.0027V10.0249L0.222694 10.0323L0.223916 10.0434L0.221472 10.0546L0.223916 10.0607L0.222694 10.0705V10.0816L0.223916 10.0927V10.1014L0.221472 10.1113V10.1199L0.223916 10.1309V10.1396L0.222694 10.1507L0.223916 10.1605L0.221472 10.1704V10.1778L0.227694 10.1963L0.250284 10.2075L0.262801 10.2086H0.280374L0.29291 10.2062H0.312963L0.330554 10.2025L0.343053 10.1987L0.351848 10.1963L0.363143 10.1938L0.373179 10.189L0.383234 10.1975L0.384456 10.2049L0.381975 10.2247L0.383234 10.2371L0.384456 10.2444L0.381975 10.2543L0.383234 10.2666L0.381975 10.274L0.384456 10.2851V10.2962L0.381975 10.306V10.3159L0.383234 10.3246L0.381975 10.3331L0.384456 10.3442L0.381975 10.3529L0.383234 10.3627V10.3738L0.370661 10.3812L0.361865 10.3763L0.35307 10.3738L0.34059 10.3714L0.330554 10.3677L0.311741 10.3639L0.302964 10.3653L0.290391 10.3639L0.282874 10.3627L0.270319 10.3653L0.261542 10.3639H0.250284L0.233934 10.3702L0.230157 10.3751L0.221472 10.3911L0.223916 10.3985L0.222694 10.4108V10.4207L0.221472 10.4293L0.223916 10.4379V10.4478L0.221472 10.459V10.4687L0.222694 10.4762V10.4946L0.221472 10.5058V10.5354L0.222694 10.5428L0.223916 10.5538V10.5748L0.228935 10.5896L0.233934 10.597L0.252747 10.602L0.262801 10.6007L0.270319 10.6032L0.282874 10.6007L0.290391 10.6032L0.300409 10.602L0.311741 10.6032L0.324239 10.6007L0.334257 10.6032L0.344349 10.602L0.35307 10.6032L0.364402 10.6007L0.373179 10.6032L0.381975 10.602L0.393233 10.6007L0.405806 10.6032L0.414527 10.602L0.424618 10.6032L0.433359 10.6007L0.445913 10.6032L0.453449 10.6007L0.463485 10.6032H0.473502L0.493535 10.5983L0.503594 10.597L0.512349 10.5946L0.521166 10.5909L0.533719 10.5884L0.539976 10.5859L0.547513 10.5909V10.6032V10.613L0.544996 10.6205L0.543735 10.6327L0.539976 10.6426L0.541218 10.6512L0.536183 10.6599L0.53744 10.6698L0.534961 10.6808L0.531183 10.6895V10.7018L0.528699 10.7104V10.7191L0.524925 10.7289L0.523702 10.7413L0.522404 10.7486L0.511126 10.7573L0.503594 10.7598" fill="#7E7E7E"/>
<path id="path116" d="M1.11542 10.0791L1.11921 10.0902L1.12294 10.0989L1.12546 10.1099L1.12046 10.1198L1.11168 10.1174L1.10039 10.1185L1.09159 10.1198L1.08159 10.1185H1.05145L1.04019 10.1174L1.03014 10.1198H1.01886L1.0088 10.1174L1.00132 10.1198L0.991284 10.1174H0.981211L0.968697 10.1198L0.959918 10.1185H0.949883L0.938568 10.1174L0.932311 10.1099L0.937307 10.0989L0.938568 10.0902L0.944863 10.0791V10.0681L0.948622 10.0496L0.951125 10.0384V10.0175L0.948622 10.0064L0.944863 9.9916L0.938568 9.98661L0.921053 9.98051H0.909719L0.899721 9.98177L0.89089 9.98051L0.878428 9.98177H0.858301L0.848261 9.97925L0.839487 9.98177H0.830765L0.81945 9.98051L0.801859 9.98414L0.795639 9.9916L0.790581 10.0064L0.789363 10.0187V10.0286L0.791823 10.036L0.790581 10.0471L0.789363 10.0569L0.791823 10.0667L0.789363 10.0754V10.0865L0.790581 10.0964V10.105L0.791823 10.1149L0.789363 10.1272L0.791823 10.1469L0.790581 10.1543L0.789363 10.1667L0.790581 10.1765V10.1852L0.795639 10.2L0.804395 10.2074L0.81945 10.2147L0.830765 10.2135L0.838264 10.2147H0.848261L0.858301 10.2135L0.86963 10.2123L0.889667 10.2147L0.899721 10.2123L0.911017 10.2147H0.938568L0.948622 10.2135L0.961179 10.2123L0.968697 10.2147L0.979969 10.2135L0.988767 10.2123L1.00132 10.2135L1.01132 10.2147L1.02013 10.2123L1.03519 10.2197L1.04396 10.2259L1.05021 10.2333L1.05646 10.2418L1.064 10.2493L1.07156 10.2542L1.08159 10.2641L1.08781 10.2678L1.09537 10.2751L1.10164 10.2838L1.10664 10.3011V10.3084L1.10789 10.3208V10.3282L1.10913 10.3404V10.3578L1.10789 10.3701L1.10913 10.3787L1.10664 10.3886L1.10913 10.3972L1.10664 10.4096V10.4576L1.10789 10.4663L1.10664 10.4774V10.4847L1.10913 10.4959L1.10789 10.5057L1.10664 10.5168V10.5341L1.10789 10.5464L1.10913 10.5525V10.5649L1.10664 10.5735V10.5847L1.10789 10.5945L1.10913 10.6019L1.10789 10.6142L1.10913 10.6241L1.10664 10.6339V10.6524L1.10789 10.6611L1.10913 10.6734L1.10164 10.6894L1.09287 10.6956L1.08529 10.703L1.08028 10.7104L1.07156 10.7165L1.06648 10.7251L1.05646 10.7313L1.05145 10.7375L1.04519 10.7462L1.03519 10.7511L1.02138 10.7585L1.01132 10.7572L0.988767 10.7598L0.981211 10.7585H0.968697L0.961179 10.7572L0.949883 10.7585L0.941104 10.7572L0.929808 10.7585L0.922295 10.7598H0.909719L0.900944 10.7572L0.892222 10.7598L0.879646 10.7585L0.870853 10.7572L0.860837 10.7585L0.84956 10.7572L0.840781 10.7598L0.831988 10.7585H0.811951L0.803176 10.7598L0.793122 10.7572L0.781807 10.7585H0.770549L0.76177 10.7572L0.750493 10.7598H0.742956L0.730385 10.7572H0.721611L0.704091 10.7523L0.696539 10.7437L0.689035 10.7375L0.681503 10.7301L0.673928 10.7239L0.668927 10.7177L0.660153 10.7104L0.645117 10.6969L0.63886 10.687L0.631304 10.6697L0.62882 10.6611L0.631304 10.6524V10.6401L0.630062 10.6315L0.62882 10.6216L0.631304 10.6118L0.630062 10.6019V10.5711L0.631304 10.5613L0.630062 10.5538V10.5427L0.631304 10.5329L0.627526 10.5144L0.623824 10.5033L0.622525 10.4921L0.616249 10.4847L0.61377 10.4749L0.621288 10.4626L0.630062 10.4638H0.652654L0.661447 10.4626H0.672705L0.681503 10.465H0.691519L0.701536 10.4626L0.71287 10.465L0.719127 10.4638H0.771772L0.781807 10.465L0.790581 10.4626L0.801859 10.465L0.806878 10.4725L0.803176 10.4847L0.800621 10.4934L0.798119 10.5033L0.794359 10.5131L0.791823 10.5329V10.5525L0.789363 10.5661L0.790581 10.576L0.798119 10.5921L0.804395 10.5969L0.820673 10.6006L0.830765 10.6019L0.838264 10.6031H0.84956L0.860837 10.6006H0.889667L0.900944 10.6019L0.908477 10.6006L0.919754 10.6019L0.937307 10.5957L0.943588 10.5895L0.948622 10.5735L0.951125 10.5563V10.5451L0.949883 10.5341V10.5255L0.951125 10.5155L0.948622 10.507V10.4847L0.949883 10.4761L0.948622 10.4663V10.4465L0.951125 10.4367L0.948622 10.4269L0.951125 10.4169L0.948622 10.4083L0.951125 10.3985L0.942346 10.3812L0.937307 10.3763L0.919754 10.3689L0.911017 10.3701L0.902238 10.3689H0.879646L0.86963 10.3701L0.862074 10.3689H0.850797L0.842042 10.3676L0.831988 10.3701H0.820673L0.813174 10.3676H0.783063L0.771772 10.3701L0.760495 10.3676L0.750493 10.3701H0.731684L0.721611 10.3689L0.704091 10.3627L0.697739 10.3565L0.689035 10.3479L0.682721 10.3393L0.668927 10.3269L0.660153 10.3208L0.651412 10.3109L0.643856 10.3048L0.63886 10.2961L0.631304 10.2813L0.630062 10.2727L0.631304 10.2603V10.2505L0.630062 10.2407L0.631304 10.2333L0.62882 10.2221L0.631304 10.211L0.630062 10.2012L0.631304 10.1938V10.1716L0.630062 10.1617L0.631304 10.1543L0.62882 10.142L0.631304 10.1334L0.630062 10.1222L0.62882 10.1136L0.630062 10.1026L0.631304 10.0939V10.0841L0.630062 10.0766V10.0643L0.62882 10.0545L0.631304 10.0471L0.62882 10.0347V10.0051L0.630062 9.9977L0.62882 9.98787L0.630062 9.97804L0.62882 9.96695L0.631304 9.95707L0.62882 9.93731L0.630062 9.92626L0.631304 9.91643L0.630062 9.90897L0.637637 9.89294L0.645117 9.88311L0.651412 9.87822L0.658911 9.87202L0.666448 9.86209L0.673928 9.85846L0.682721 9.851L0.689035 9.84359L0.699094 9.83749L0.706574 9.83003L0.720369 9.82393L0.730385 9.82267L0.742956 9.82146L0.750493 9.82393L0.76177 9.82267L0.771772 9.82146H0.781807L0.791823 9.82393H0.813174L0.820673 9.82146L0.831988 9.82267H0.840781L0.84956 9.82146L0.859614 9.82267L0.872128 9.82393L0.880888 9.82267L0.892222 9.82146L0.900944 9.82267H0.912255L0.922295 9.82146L0.929808 9.82393H0.938568L0.949883 9.82267L0.958695 9.82146H0.971157L0.981211 9.82393L0.98999 9.82146H1.0101L1.02013 9.82267L1.03641 9.82766L1.04396 9.83497L1.05145 9.84359L1.05646 9.84853L1.064 9.85599L1.07156 9.86331L1.08159 9.8695L1.08781 9.87938L1.10287 9.89294L1.1104 9.91023V9.9176L1.10789 9.92999V9.93982L1.1104 9.94845L1.10913 9.95828V9.96942L1.10789 9.97804L1.10913 9.98787V10.0175L1.10789 10.0286L1.10913 10.0372L1.10789 10.0471L1.1104 10.0681L1.11542 10.0791" fill="#7E7E7E"/>
<path id="path118" d="M0.541798 11.0363L0.544353 11.0449L0.543073 11.0549L0.545576 11.0659L0.546799 11.0733L0.550572 11.0844L0.549373 11.0942L0.554369 11.1041V11.1115V11.1226L0.558128 11.1337V11.1411L0.560612 11.1535L0.563167 11.162L0.565609 11.1707V11.1817L0.559389 11.1892L0.546799 11.188L0.536797 11.1855L0.528023 11.1817L0.517983 11.1805L0.510503 11.1781L0.491694 11.1731L0.480341 11.1744L0.471564 11.1756L0.461528 11.1744L0.449029 11.1756H0.440252L0.430216 11.1731H0.418884L0.411385 11.1744L0.398849 11.1731H0.388813L0.371259 11.1843L0.362463 11.2003L0.363686 11.2101L0.364982 11.2213L0.363686 11.2311V11.2496L0.362463 11.262L0.364982 11.2718V11.2891L0.362463 11.3014V11.3088L0.363686 11.3211L0.362463 11.3285L0.364982 11.3396L0.362463 11.3507L0.364982 11.3581L0.363686 11.3704L0.364982 11.3803V11.3889L0.363686 11.4V11.4283L0.364982 11.4395L0.362463 11.4481V11.4592L0.364982 11.4789L0.362463 11.4863L0.364982 11.5061L0.362463 11.5159V11.5369L0.363686 11.5467L0.362463 11.5591L0.363686 11.5665L0.364982 11.5775L0.362463 11.5875L0.363686 11.596L0.362463 11.606V11.6269L0.363686 11.6356L0.364982 11.6479L0.363686 11.6565V11.6651L0.364982 11.6749V11.7057L0.362463 11.7145V11.7342L0.363686 11.7465V11.765L0.362463 11.7748L0.364982 11.7847V11.7933L0.362463 11.8032L0.363686 11.8143V11.8242L0.362463 11.834L0.363686 11.8451V11.8624L0.364982 11.8723L0.363686 11.8845L0.366241 11.9043L0.371259 11.9117L0.372481 11.9241L0.375037 11.9315L0.381277 11.9437L0.375037 11.9511H0.364982L0.354983 11.9524L0.342392 11.9536H0.334874L0.324838 11.9524H0.304784L0.293526 11.9536L0.283416 11.9524H0.27214L0.263381 11.9536L0.254604 11.9511H0.244568L0.233291 11.9524L0.224515 11.9511L0.214497 11.9536L0.201924 11.9511L0.191925 11.9524L0.185648 11.9425L0.189425 11.9339L0.195703 11.9241V11.9117L0.201924 11.9043L0.203165 11.8821L0.205701 11.8747L0.204479 11.8648L0.203165 11.8537V11.8451L0.205701 11.8328L0.204479 11.8255L0.205701 11.8131V11.8044L0.203165 11.7945L0.204479 11.7859L0.203165 11.7761L0.205701 11.7662V11.7243L0.203165 11.7169L0.204479 11.707V11.6947L0.203165 11.6849L0.204479 11.6749L0.203165 11.6676V11.6466L0.205701 11.6356L0.203165 11.6257V11.617L0.204479 11.6071L0.203165 11.596L0.205701 11.5763L0.204479 11.5677V11.5566L0.205701 11.5492L0.203165 11.5356L0.204479 11.5283L0.205701 11.5184L0.204479 11.5061L0.203165 11.4987L0.205701 11.4875L0.204479 11.4789L0.205701 11.4691L0.203165 11.458V11.4469L0.204479 11.4383L0.205701 11.4283V11.4198L0.203165 11.4099V11.3803L0.205701 11.3679L0.203165 11.3593L0.204479 11.3507V11.3408L0.203165 11.3309L0.205701 11.3211L0.203165 11.3113L0.205701 11.3001L0.204479 11.2903V11.2804L0.203165 11.2693V11.262L0.205701 11.2496L0.204479 11.2397L0.205701 11.2323L0.204479 11.2213L0.203165 11.2114V11.2027L0.198147 11.1843L0.190648 11.1793L0.175631 11.1756L0.163058 11.1744H0.155522L0.145504 11.1756L0.134246 11.1744L0.12421 11.1756L0.112878 11.1731L0.104156 11.1756L0.0953424 11.1731L0.0827878 11.1756L0.0740112 11.1744L0.0451807 11.1781L0.0351632 11.1805L0.0251086 11.1843L0.0175908 11.1855L0.00629569 11.1892L0 11.1805L0.00129617 11.1731V11.162L0.0037774 11.1522L0.00629569 11.1435V11.1325L0.0075548 11.1213L0.0125728 11.1127L0.0138134 11.1041L0.0151096 11.0955V11.0857L0.0188129 11.0757V11.0634V11.0549L0.0238124 11.0449V11.0337V11.0264L0.0351632 11.0166L0.0476989 11.0153H0.0652341L0.0752517 11.0141L0.0865653 11.0153L0.0978419 11.0141L0.10786 11.0153L0.116655 11.0141L0.126673 11.0166L0.136708 11.0141H0.148022L0.155522 11.0166L0.168057 11.0141L0.178112 11.0166H0.185648L0.196925 11.0153L0.205701 11.0166H0.215738L0.225737 11.0141L0.237087 11.0153L0.247105 11.0141H0.2559L0.26714 11.0153H0.278417L0.285971 11.0166H0.298526L0.306006 11.0141H0.318579L0.328597 11.0153L0.338651 11.0141H0.34741L0.358686 11.0166L0.378796 11.0141L0.387572 11.0153L0.398849 11.0141L0.407626 11.0166L0.427717 11.0141H0.456528L0.469083 11.0153H0.47788L0.487897 11.0166L0.499174 11.0153L0.507929 11.0141L0.517983 11.0166L0.529317 11.0153L0.53802 11.024L0.541798 11.0363" fill="#7E7E7E"/>
<path id="path120" d="M0.954324 11.563L0.93797 11.5543L0.93049 11.5556H0.920435L0.909158 11.5543L0.900384 11.5556H0.889126L0.879072 11.5568L0.870293 11.5543L0.857703 11.5568H0.838946L0.822615 11.5618L0.816315 11.5667L0.808835 11.5815L0.807579 11.5913V11.6025L0.810077 11.6123V11.621L0.807579 11.6332L0.810077 11.6419L0.807579 11.6505L0.810077 11.6604V11.6789L0.807579 11.69V11.6999L0.808835 11.7085L0.807579 11.7171L0.810077 11.7271V11.7368L0.808835 11.7479V11.7677L0.813855 11.7837L0.821316 11.791L0.838946 11.7972H0.858964L0.869051 11.7948L0.879072 11.7961H0.897881L0.909158 11.7948L0.917937 11.7972L0.927972 11.7961L0.940529 11.7948L0.955561 11.791L0.960562 11.7849L0.968137 11.7677V11.7491L0.96936 11.7381L0.968137 11.7282V11.7183L0.96936 11.7085L0.966838 11.6986L0.968137 11.69L0.96936 11.6789L0.966838 11.6715L0.96936 11.6604L0.966838 11.6517L0.96936 11.6419L0.968137 11.6308L0.96936 11.6234L0.966838 11.6135V11.6012L0.96936 11.5913L0.966838 11.5839L0.961804 11.5667L0.954324 11.563ZM0.810077 11.2091L0.807579 11.219L0.810077 11.2288L0.807579 11.2363V11.2658L0.810077 11.2757L0.807579 11.2844V11.3028L0.810077 11.3226L0.807579 11.3336L0.810077 11.3423L0.807579 11.3534V11.3608L0.810077 11.3731L0.816315 11.3867L0.822615 11.3941L0.840169 11.3989H0.848924L0.860258 11.4002H0.870293L0.879072 11.3989L0.887865 11.4002L0.900384 11.3989L0.909158 11.4002L0.929214 11.3978H0.940529L0.956784 11.3916L0.960562 11.3879L0.96936 11.3719L0.968137 11.3632L0.96936 11.3534V11.3411L0.966838 11.3349L0.96936 11.3238V11.3139L0.966838 11.3028L0.96936 11.2955L0.966838 11.2856L0.96936 11.2658L0.966838 11.256L0.968137 11.2449V11.2387L0.966838 11.2264V11.2178L0.968137 11.2079V11.1968L0.960562 11.182L0.955561 11.1771L0.93925 11.1697H0.93049L0.920435 11.1709L0.909158 11.1721L0.900384 11.1697L0.887865 11.1721H0.867757L0.860258 11.1697H0.850242L0.840169 11.1709L0.822615 11.1783L0.815078 11.1845L0.808835 11.1993L0.810077 11.2091ZM0.64578 11.0574L0.640741 11.0476L0.639523 11.0377L0.634521 11.0279L0.640741 11.0168L0.649558 11.0181H0.662129L0.66959 11.0168H0.682147L0.692201 11.0156H0.699719L0.71977 11.0181H0.729806L0.739826 11.0156L0.749881 11.0168H0.758636L0.769989 11.0156L0.781266 11.0181L0.790026 11.0168L0.801298 11.0181L0.811319 11.0168H0.820112L0.828891 11.0156L0.841425 11.0181L0.848924 11.0168L0.860258 11.0156H0.867757L0.879072 11.0168H0.887865L0.897881 11.0156L0.910381 11.0168L0.917937 11.0156L0.93049 11.0181L0.93797 11.0156H0.946768L0.959339 11.0168H0.97684L0.98943 11.0156L0.998209 11.0181L1.00947 11.0168H1.01952L1.0283 11.0181L1.03707 11.0156L1.0534 11.0229L1.06213 11.0316L1.07092 11.0365L1.07849 11.0451L1.08472 11.0525L1.09227 11.0562L1.09727 11.0661L1.10608 11.0723L1.11486 11.0785L1.11986 11.0871L1.12736 11.1019L1.1299 11.1142L1.12736 11.1228V11.1339L1.12866 11.1413L1.1299 11.1512L1.12866 11.1635L1.1299 11.1733L1.12866 11.182L1.12736 11.1932L1.1299 11.2128V11.2215L1.12866 11.2325L1.1299 11.2412V11.2498L1.12736 11.2609V11.2708L1.12866 11.2819L1.1299 11.2918V11.3016L1.12866 11.3103V11.3213L1.12736 11.3299V11.3805L1.12866 11.3892L1.12236 11.4064L1.11231 11.4125L1.10481 11.4187L1.09727 11.4249L1.08973 11.4335L1.0835 11.4421L1.07722 11.4471L1.06968 11.4533L1.05968 11.4607L1.0534 11.4705V11.4841L1.05968 11.4915L1.06722 11.4964L1.07592 11.5051L1.0835 11.5112L1.09103 11.5198L1.09855 11.5248L1.10608 11.5346L1.11356 11.5395L1.12236 11.5469L1.12736 11.5655V11.5753L1.1299 11.5827L1.12866 11.5926V11.6025L1.1299 11.6123V11.6234L1.12866 11.6332L1.1299 11.6431L1.12736 11.6517L1.1299 11.6629L1.12866 11.6727L1.1299 11.6801V11.7023L1.12736 11.7109V11.7578L1.1299 11.7701L1.12736 11.7898L1.1299 11.8059L1.12866 11.8157L1.1299 11.8281L1.12736 11.8379L1.1299 11.8478L1.12736 11.8565V11.865L1.11986 11.8823L1.11356 11.8897L1.10481 11.8971L1.09855 11.9045L1.08973 11.9095L1.08601 11.9169L1.07722 11.9267L1.06968 11.9329L1.0609 11.9378L1.05588 11.9464L1.03959 11.9551L1.02704 11.9538L1.01702 11.9526H1.007L0.999427 11.9538L0.98943 11.9551L0.978153 11.9538H0.958064L0.948029 11.9526L0.940529 11.9551L0.929214 11.9526H0.910381L0.899104 11.9551H0.890349L0.879072 11.9526L0.867757 11.9551L0.860258 11.9538L0.847706 11.9551L0.840169 11.9538H0.830114L0.818856 11.9526H0.811319L0.801298 11.9551L0.791244 11.9526L0.779986 11.9551L0.768676 11.9538L0.758636 11.9551H0.74862L0.739826 11.9526H0.731048L0.71977 11.9538L0.711015 11.9551L0.699719 11.9538L0.69094 11.9526H0.639523L0.635745 11.9439L0.636963 11.9329L0.642021 11.9217L0.64578 11.9132L0.647074 11.9045L0.653317 11.8823L0.650781 11.8749L0.653317 11.865V11.854L0.650781 11.8441L0.652075 11.833L0.653317 11.8244L0.652075 11.8157V11.8059L0.653317 11.7961L0.650781 11.7837V11.7738L0.653317 11.7652L0.650781 11.7554L0.652075 11.7442V11.7344L0.650781 11.7271L0.652075 11.7147L0.650781 11.7072V11.6949L0.652075 11.6851L0.650781 11.6764L0.652075 11.6653L0.653317 11.6579L0.650781 11.6481L0.653317 11.6358V11.6271L0.652075 11.616V11.6086L0.650781 11.5988L0.652075 11.5877V11.5778L0.653317 11.5692L0.650781 11.5581V11.5494L0.652075 11.5395L0.653317 11.5285V11.5099L0.652075 11.5001V11.4878L0.653317 11.4791L0.650781 11.468L0.652075 11.4582V11.4508L0.653317 11.4397V11.4187L0.652075 11.4113V11.3904L0.653317 11.3805L0.650781 11.3707L0.652075 11.3608L0.653317 11.3497V11.3399L0.652075 11.3311L0.650781 11.3201V11.3003L0.652075 11.2929L0.650781 11.2806L0.653317 11.2634L0.650781 11.2511L0.653317 11.2424L0.652075 11.2338L0.650781 11.2215L0.652075 11.2141L0.650781 11.2029V11.182L0.652075 11.1733V11.1524L0.650781 11.1437L0.652075 11.1327L0.650781 11.1253V11.1043L0.653317 11.0957V11.0834L0.649558 11.0649L0.64578 11.0574" fill="#7E7E7E"/>
<path id="path122" d="M14.551 10.7191L14.5547 10.7277L14.5572 10.7387L14.5622 10.7474L14.5534 10.7585L14.5447 10.7572L14.5346 10.7585H14.5146L14.5058 10.7598H14.4932L14.4845 10.7585L14.4745 10.7598L14.4644 10.7585L14.4531 10.7598L14.4455 10.7585L14.4343 10.7572H14.4243L14.4143 10.7585L14.4054 10.7598L14.3955 10.7572H14.3729L14.3691 10.7498L14.3729 10.74L14.3741 10.7301L14.3791 10.7177L14.3829 10.7104L14.3841 10.6894L14.3854 10.6771L14.3867 10.6685L14.3841 10.6573V10.6475L14.3854 10.6401L14.3841 10.6278L14.3867 10.6081L14.3841 10.5982L14.3867 10.581L14.3854 10.5699L14.3841 10.5613L14.3867 10.5501L14.3854 10.539L14.3867 10.5291L14.3841 10.5205L14.3867 10.5094L14.3841 10.4995L14.3867 10.4909L14.3841 10.481V10.4725L14.3854 10.4601V10.4503L14.3867 10.4404L14.3854 10.4317V10.4121L14.3841 10.4034L14.3867 10.3911L14.3854 10.3812L14.3867 10.3714L14.3841 10.3627L14.3867 10.3516L14.3841 10.3404L14.3854 10.3307V10.322L14.3841 10.3133V10.2825L14.3867 10.274L14.3854 10.2628L14.3841 10.2529V10.2443L14.3854 10.232V10.2233L14.3841 10.2135V10.2037L14.3854 10.1925L14.3841 10.1839L14.3854 10.1728L14.3867 10.163L14.3854 10.1555V10.1432L14.3841 10.1358L14.3854 10.1247L14.3841 10.1149V10.0964L14.3854 10.0853L14.3841 10.0766V10.0643L14.3867 10.0569V10.0446L14.3779 10.0286L14.3716 10.0237L14.3578 10.015L14.3478 10.0175H14.3277L14.3164 10.0162L14.3088 10.0088L14.3139 9.99654L14.3151 9.98787L14.3177 9.98051L14.324 9.95954L14.3264 9.95217L14.329 9.94229L14.3302 9.93367L14.3352 9.92496L14.3365 9.91517L14.3415 9.90529V9.89788L14.3465 9.88553L14.3478 9.87938L14.3515 9.8695L14.3541 9.85967L14.3553 9.851L14.3591 9.84243L14.3629 9.83003L14.3767 9.82267H14.4054L14.4167 9.82146L14.4255 9.82267L14.4368 9.8202H14.4455L14.4556 9.82267L14.4669 9.82146L14.4769 9.8202H14.4845L14.4958 9.82267L14.5045 9.82146H14.5158L14.5271 9.8202H14.5358L14.5459 9.83003L14.5447 9.84117V9.86209L14.5472 9.87072L14.5459 9.87938L14.5472 9.88926L14.5459 9.90031V9.90897L14.5447 9.91881V9.92999L14.5472 9.94104L14.5459 9.94966L14.5472 9.95828V9.96811L14.5447 9.97804L14.5459 9.99034L14.5472 9.9977V10.0088L14.5447 10.0187L14.5472 10.0273L14.5447 10.0496L14.5459 10.0569V10.0878L14.5447 10.0989V10.1074L14.5472 10.1185L14.5447 10.1272L14.5459 10.137L14.5472 10.1457L14.5459 10.1568L14.5472 10.1654L14.5447 10.1777L14.5459 10.1864V10.1962L14.5447 10.2074V10.216L14.5459 10.2271L14.5447 10.2357V10.2443L14.5472 10.2567L14.5459 10.2653L14.5447 10.2751L14.5459 10.2863V10.2936L14.5472 10.3035V10.3158L14.5459 10.3232L14.5447 10.3343L14.5459 10.3454L14.5447 10.3528L14.5472 10.3652V10.3737L14.5459 10.3837L14.5472 10.3923L14.5459 10.4034V10.4132L14.5472 10.4243V10.4317L14.5447 10.4441L14.5472 10.4515V10.4823L14.5447 10.4934L14.5472 10.502L14.5447 10.5119L14.5472 10.523L14.5459 10.5303V10.5403L14.5447 10.5514L14.5459 10.5613L14.5472 10.5723V10.5821L14.5459 10.5921L14.5447 10.6006L14.5459 10.6105L14.5447 10.6216V10.6414L14.5459 10.65L14.5447 10.6599L14.5459 10.6709V10.6808L14.5472 10.6907L14.5484 10.7092L14.551 10.7191" fill="#7E7E7E"/>
<path id="path124" d="M14.9925 9.98414L14.9774 9.97925L14.9674 9.97804H14.9573L14.946 9.98051L14.936 9.97804L14.9259 9.97925H14.9072L14.8946 9.98051L14.8872 9.97925L14.8746 9.98051L14.8582 9.98661L14.8545 9.9916L14.847 10.0076L14.8457 10.015L14.847 10.0261L14.8457 10.0372L14.8482 10.0471L14.847 10.0545L14.8457 10.0643V10.0766L14.847 10.0865L14.8457 10.0964L14.8482 10.105L14.8457 10.1161L14.8482 10.1235L14.847 10.1334V10.1432L14.8457 10.1531V10.1654L14.847 10.1754L14.8482 10.1839L14.8532 10.1987L14.8595 10.2049L14.8771 10.2135H14.8958L14.9072 10.211L14.9147 10.2135H14.9448L14.9573 10.211L14.9661 10.2123L14.9761 10.2135L14.9937 10.2061L15 10.2012L15.005 10.1827L15.0062 10.1754L15.005 10.1654V10.1543L15.0037 10.1444L15.0062 10.1346V10.1247L15.005 10.1136L15.0037 10.1062L15.005 10.0952L15.0037 10.0853L15.005 10.0754L15.0062 10.0643V10.036L15.005 10.0249L15.0062 10.0162L15.0037 10.0051L14.9987 9.99034L14.9925 9.98414ZM15.099 9.83623L15.1066 9.84481L15.1153 9.851L15.1242 9.85967L15.1292 9.86582L15.1354 9.87072L15.1442 9.88055L15.1504 9.88805L15.1593 9.89294L15.1656 9.90897L15.1668 9.91881L15.1642 9.93111L15.1656 9.93852L15.1668 9.95087V9.95828L15.1656 9.96942V9.97925L15.1668 9.99034L15.1656 9.9977L15.1642 10.0076V10.0273L15.1656 10.0384V10.0471L15.1668 10.0581L15.1656 10.0693L15.1668 10.0766V10.0865L15.1656 10.0964L15.1642 10.1087L15.1668 10.1185L15.1656 10.1272V10.137L15.1668 10.1457L15.1656 10.1568V10.1667L15.1642 10.1765L15.1668 10.1864V10.1962L15.1642 10.2074L15.1656 10.2172L15.1642 10.2259V10.237L15.1656 10.2455L15.1642 10.2567L15.1656 10.2641L15.1668 10.2751L15.1656 10.2838L15.1642 10.2936L15.1668 10.306V10.3133L15.1656 10.3257L15.1668 10.3343L15.1656 10.343L15.1668 10.3528L15.1656 10.3652V10.3751L15.1668 10.3837L15.1642 10.3923L15.1656 10.4034L15.1642 10.4132L15.1656 10.4219V10.4317L15.1642 10.4428V10.4626L15.1656 10.4737L15.1668 10.481L15.1656 10.4934L15.1668 10.5033L15.1656 10.5119V10.5501L15.1668 10.5613L15.1656 10.5699L15.1668 10.5821L15.1642 10.5895V10.6093L15.1656 10.6216L15.1642 10.6303L15.1668 10.6389L15.1642 10.6511L15.1668 10.6599V10.6685L15.158 10.687L15.153 10.6943L15.1454 10.7017L15.1354 10.7104L15.1279 10.7165L15.1242 10.7228L15.1166 10.7301L15.1066 10.7375L15.1004 10.7437L15.094 10.7523L15.0752 10.7585L15.0665 10.7572L15.0577 10.7585L15.0477 10.7598L15.0375 10.7585L15.0263 10.7598H14.9862L14.9786 10.7585H14.9674L14.956 10.7572L14.9486 10.7598L14.9372 10.7585L14.9285 10.7598L14.9184 10.7572L14.9059 10.7598L14.8958 10.7585L14.8883 10.7572L14.8771 10.7585L14.8696 10.7572L14.8582 10.7585H14.8381L14.8269 10.7598L14.8181 10.7572L14.8093 10.7598H14.7981L14.7881 10.7572L14.7768 10.7585L14.7617 10.7511L14.7541 10.7449L14.7467 10.7375L14.7404 10.7289L14.7341 10.7215L14.7253 10.7153L14.719 10.7092L14.7128 10.7005L14.7028 10.6943L14.6977 10.6881L14.6889 10.6685L14.6902 10.6586V10.6414L14.6914 10.6303L14.6902 10.6204L14.6914 10.6118V10.5995L14.6889 10.5908L14.6914 10.581L14.6889 10.5711L14.6902 10.5599V10.5415L14.6914 10.5316L14.6851 10.5119L14.6826 10.5033L14.6788 10.4934L14.6714 10.4737L14.6788 10.4626H14.6877L14.699 10.4638L14.7103 10.4626H14.719L14.7303 10.4613L14.7391 10.4626L14.7504 10.4613H14.7591L14.7705 10.4626L14.7779 10.4613H14.7905L14.8005 10.4626L14.8093 10.4613L14.8193 10.4626H14.8294L14.8407 10.4638L14.8495 10.4613H14.8595L14.867 10.4725L14.862 10.481L14.8595 10.4909L14.8545 10.502L14.8508 10.5107L14.847 10.5341L14.8457 10.5415V10.5514L14.847 10.5613V10.5723L14.8545 10.5895L14.8595 10.5957L14.8771 10.6006L14.8846 10.6019L14.8972 10.5995H14.9047L14.9172 10.6019L14.9248 10.5995H14.936L14.946 10.6019L14.9548 10.5995L14.9674 10.6019H14.9761L14.9937 10.5945L15 10.5895L15.0062 10.5723L15.005 10.5625L15.0062 10.555V10.5353L15.0075 10.523V10.5131L15.005 10.5057L15.0062 10.4959L15.0075 10.4835V10.4453L15.0062 10.4367L15.0075 10.4269L15.0062 10.4181L15.0075 10.4083L15.005 10.3985L14.9987 10.3824L14.9925 10.3751L14.9786 10.3689H14.9686L14.9586 10.3701L14.9385 10.3676H14.9159L14.9072 10.3689L14.8972 10.3701L14.8858 10.3689H14.8771L14.8696 10.3676L14.857 10.3689H14.847L14.8381 10.3676L14.8294 10.3689L14.8169 10.3676L14.7967 10.3701L14.7893 10.3676H14.7768L14.7617 10.3615L14.7554 10.3565L14.7454 10.3491L14.7391 10.3393L14.7341 10.3319L14.7266 10.3257L14.7165 10.3208L14.7103 10.3121L14.704 10.3048L14.6952 10.2961L14.6902 10.2813L14.6914 10.2727L14.6889 10.2628L14.6914 10.2517L14.6902 10.2431V10.2333L14.6914 10.2221L14.6889 10.211V10.1938L14.6902 10.1827L14.6914 10.174L14.6902 10.1642V10.1543L14.6889 10.1457L14.6902 10.1346L14.6889 10.1247L14.6902 10.1149V10.0939L14.6914 10.0878L14.6889 10.0754L14.6914 10.0681V10.0557L14.6902 10.0471L14.6914 10.0384V10.0175L14.6902 10.0088L14.6914 9.99654L14.6902 9.98913L14.6889 9.97804L14.6914 9.97067L14.6902 9.95954V9.94966L14.6914 9.93982V9.92999L14.6889 9.92007V9.91023L14.6964 9.8942L14.704 9.88675L14.7128 9.87938L14.7253 9.86582L14.7341 9.85715L14.7404 9.84979L14.7478 9.84359L14.7541 9.83623L14.7617 9.82887L14.7779 9.82267H14.7881L14.7981 9.82146H14.8294L14.8381 9.8202L14.8482 9.82267L14.8595 9.82146L14.867 9.82267L14.8757 9.8202L14.8883 9.82146L14.8984 9.82267L14.9072 9.82146H14.9259L14.9372 9.82267H14.946L14.956 9.8202L14.9686 9.82146L14.9786 9.8202H14.9862L14.9949 9.82146L15.0062 9.82267H15.015L15.0275 9.82146L15.0351 9.82267H15.0563L15.0677 9.8202H15.0752L15.094 9.83003L15.099 9.83623" fill="#7E7E7E"/>
<path id="path126" d="M14.5109 11.5628L14.4946 11.5566L14.4833 11.5591H14.4658L14.4557 11.5566L14.4419 11.5591H14.4319L14.4244 11.5579L14.4144 11.5566L14.4018 11.5579L14.3943 11.5566L14.3767 11.564L14.3704 11.5714L14.3654 11.585L14.3629 11.5973L14.3654 11.617L14.3629 11.6269L14.3654 11.6343L14.3641 11.6429V11.6529L14.3629 11.6639L14.3654 11.6749V11.6836L14.3641 11.691L14.3629 11.7021V11.7206L14.3641 11.7292V11.7404L14.3629 11.7489L14.3654 11.7613L14.3641 11.7711L14.3729 11.7884L14.3918 11.7959L14.4043 11.7983H14.4131L14.4231 11.7959H14.4319L14.4445 11.797L14.4545 11.7983H14.4632L14.4746 11.7959L14.4846 11.797H14.4933L14.5134 11.7884L14.5235 11.7687V11.7404L14.5221 11.7292L14.5209 11.7231V11.6836L14.5235 11.6749L14.5221 11.6639L14.5209 11.6541V11.6429L14.5221 11.6343L14.5235 11.6245V11.6158L14.5209 11.606L14.5221 11.5949V11.585L14.5172 11.5701L14.5109 11.5628ZM14.4959 11.1731L14.4858 11.1719L14.4746 11.1744L14.4645 11.1731H14.4545L14.4419 11.1744H14.4319L14.4118 11.1719L14.403 11.1744L14.393 11.1719L14.3729 11.1831L14.3641 11.2003L14.3629 11.2101L14.3641 11.2188V11.2484L14.3629 11.2595L14.3654 11.2681V11.2866L14.3629 11.2964L14.3654 11.3063L14.3641 11.3174V11.326L14.3654 11.3334L14.3641 11.3445L14.3629 11.3544L14.3641 11.3655L14.3629 11.3729L14.3717 11.3902L14.3755 11.3951L14.3943 11.4025H14.403L14.4131 11.4013H14.4244L14.4319 11.4025L14.4419 11.4L14.4557 11.4013H14.4733L14.4846 11.4025H14.4933L14.5097 11.3963L14.5172 11.3889L14.5235 11.3729L14.5221 11.363L14.5209 11.3544L14.5235 11.3458L14.5221 11.3359L14.5235 11.326V11.3149L14.5209 11.3051V11.2853L14.5235 11.2767V11.2693L14.5209 11.257L14.5235 11.2484V11.2397L14.5221 11.2286V11.2188L14.5235 11.2114L14.5221 11.2015L14.5134 11.1831L14.4959 11.1731ZM14.6188 11.0314L14.6237 11.0387L14.6338 11.0449L14.6401 11.0523L14.6476 11.0572L14.6526 11.0659L14.6664 11.0807L14.674 11.0893L14.6802 11.1041L14.6815 11.1152V11.1239L14.6802 11.1337L14.6815 11.1435L14.6802 11.1546L14.6827 11.1645V11.1953L14.6802 11.2052L14.6827 11.2126L14.6815 11.2225L14.6802 11.2348L14.6827 11.2447L14.6815 11.2533L14.6802 11.2632L14.6815 11.2743V11.2915L14.6802 11.3014L14.6815 11.3137L14.6827 11.3236L14.6815 11.3309L14.6827 11.3408L14.6802 11.3507L14.6815 11.3619V11.3716L14.6802 11.3828L14.6815 11.3914L14.6752 11.4087L14.6664 11.4161L14.6614 11.4247L14.6526 11.4297L14.6451 11.4357L14.6388 11.4457L14.6326 11.4531L14.6263 11.4567L14.6112 11.4727L14.61 11.4851L14.6237 11.5023L14.6326 11.5061L14.6388 11.5135L14.6464 11.5233L14.6551 11.5283L14.6601 11.5356L14.6689 11.5418L14.674 11.5505L14.6827 11.569L14.6802 11.5775L14.6827 11.5887L14.6802 11.596V11.6071L14.6827 11.6158L14.6815 11.6281L14.6827 11.638V11.6479L14.6815 11.6577L14.6802 11.6651L14.6827 11.6749L14.6802 11.6849L14.6815 11.6959L14.6827 11.7046L14.6802 11.7157L14.6827 11.7255L14.6802 11.7342L14.6827 11.7465V11.7551L14.6802 11.7662V11.7761L14.6815 11.7859V11.7945L14.6827 11.8032V11.8143L14.6815 11.8242L14.6827 11.8353V11.8439L14.6802 11.855V11.8648L14.6752 11.8821L14.6664 11.8871L14.6614 11.8957L14.6551 11.9031L14.6476 11.9104L14.6413 11.9153L14.6326 11.9228L14.625 11.9315L14.62 11.9376L14.61 11.9474L14.5949 11.9524L14.5849 11.9511H14.5661L14.556 11.9536L14.546 11.9524L14.5347 11.9511L14.5247 11.9536L14.5146 11.9511L14.5046 11.9536H14.4946L14.4858 11.9524L14.4758 11.9511L14.4658 11.9536L14.4545 11.9511L14.4431 11.9524L14.4356 11.9511L14.4268 11.9524L14.4144 11.9511H14.3943L14.3842 11.9536L14.3767 11.9524H14.3554L14.3466 11.9536H14.3353L14.324 11.9524H14.3165L14.3052 11.9536L14.2964 11.9511L14.2776 11.9462L14.2714 11.9388L14.2576 11.9252L14.2488 11.9179L14.2413 11.9093L14.235 11.9018L14.2275 11.8945L14.2187 11.8882L14.2112 11.8797L14.2024 11.8648L14.2036 11.8525L14.2049 11.8427L14.2036 11.8353V11.8229L14.2049 11.8155L14.2024 11.8057L14.2036 11.7945L14.2024 11.7859V11.7736L14.2049 11.7638L14.2036 11.7539V11.7465L14.2024 11.7342L14.2049 11.7243V11.707L14.2036 11.6959V11.6873L14.2049 11.6774V11.6676L14.2036 11.6565L14.2049 11.6453V11.6269L14.2024 11.617L14.2049 11.6071L14.2024 11.596L14.2049 11.5875L14.2024 11.5788L14.2036 11.5677L14.2124 11.5517L14.2199 11.5418L14.225 11.5356L14.2313 11.5295L14.24 11.5233L14.2462 11.5135L14.2551 11.5061L14.26 11.5011L14.2751 11.4851V11.4715L14.2663 11.4667L14.26 11.458L14.2551 11.4531L14.2462 11.4457L14.2413 11.4357L14.2313 11.4297L14.2261 11.4235L14.2187 11.4173L14.2112 11.4087L14.2049 11.3902L14.2036 11.3815V11.3716L14.2049 11.3606L14.2036 11.3507L14.2049 11.3433L14.2024 11.3309L14.2049 11.3224L14.2036 11.3137L14.2024 11.3026L14.2036 11.2939L14.2024 11.2841L14.2049 11.2718L14.2036 11.2644V11.2521L14.2024 11.2421V11.2348L14.2036 11.2237V11.2139L14.2024 11.204L14.2049 11.1941L14.2036 11.1855L14.2049 11.1731V11.1546L14.2036 11.1435L14.2024 11.1337L14.2036 11.1263L14.2049 11.1165L14.2024 11.1054L14.2112 11.0881L14.2187 11.0807L14.225 11.0721L14.2337 11.0647L14.2488 11.0511L14.2551 11.0437L14.2625 11.0387L14.2726 11.0314L14.2801 11.0215L14.2952 11.0166L14.3039 11.0153L14.314 11.0166L14.3253 11.0141L14.3366 11.0153L14.3453 11.0141H14.3741L14.3842 11.0153L14.3956 11.0166L14.4068 11.0153H14.4156L14.4244 11.0166L14.4344 11.0141L14.4457 11.0166L14.4532 11.0153L14.4632 11.0166L14.4758 11.0141H14.4846L14.4933 11.0166L14.5046 11.0141L14.5134 11.0153H14.526L14.5335 11.0166L14.5447 11.0141L14.5548 11.0153H14.5635L14.5736 11.0141L14.5849 11.0166L14.5962 11.0141L14.6112 11.0215L14.6188 11.0314" fill="#7E7E7E"/>
<path id="path128" d="M15.2956 11.272L15.2981 11.2819L15.3006 11.2929L15.3031 11.3028L15.2969 11.3139L15.2868 11.3127L15.2793 11.3139H15.2667L15.2579 11.3127L15.2479 11.3115L15.2367 11.3139L15.2278 11.3115H15.2166L15.2066 11.3127H15.1977L15.189 11.3115L15.1764 11.3139H15.1563L15.1488 11.3127L15.1376 11.3115H15.1287L15.1187 11.3127L15.1124 11.3041L15.1162 11.2941V11.2831L15.1212 11.2745L15.1262 11.2646L15.1287 11.2424L15.1276 11.2325V11.2239L15.1287 11.2116L15.1262 11.2005L15.1187 11.182L15.1012 11.1759L15.0887 11.1733L15.0811 11.1759L15.0686 11.1747H15.0586L15.0497 11.1759H15.0084L14.9959 11.1747L14.9795 11.1783L14.9733 11.1857L14.967 11.2005L14.9682 11.2104V11.2301L14.9658 11.2523L14.9682 11.2622L14.9658 11.2695L14.967 11.2806L14.9658 11.2905V11.3103L14.9682 11.3189L14.967 11.3299L14.9658 11.3399L14.9682 11.3497L14.9658 11.3595L14.9682 11.3707V11.3805L14.9733 11.3953L14.9795 11.4015L14.9959 11.4089H15.0059L15.0159 11.4064H15.0247L15.0347 11.4077L15.046 11.4089L15.056 11.4077H15.0661L15.0761 11.4064L15.0849 11.4077H15.1062L15.1176 11.4089H15.1463L15.1563 11.4064L15.1664 11.4077L15.1777 11.4089L15.1877 11.4064L15.1965 11.4077L15.2128 11.4125L15.2203 11.4212L15.2291 11.4274L15.2379 11.4335L15.2429 11.4409L15.2592 11.4582L15.2642 11.4631L15.273 11.4693L15.2805 11.4791L15.2856 11.4927L15.2868 11.5038L15.2856 11.5137V11.5322L15.2881 11.542L15.2856 11.5531L15.2881 11.5618V11.5729L15.2856 11.5839L15.2868 11.5901L15.2881 11.5999L15.2856 11.6098V11.6308L15.2868 11.6419L15.2881 11.6505L15.2856 11.6604L15.2881 11.6715L15.2856 11.6789L15.2881 11.6875V11.6974L15.2856 11.7085L15.2868 11.7183L15.2881 11.7271L15.2856 11.7393L15.2868 11.7479V11.7566L15.2881 11.7677V11.7763L15.2856 11.7874L15.2868 11.7948V11.8059L15.2881 11.817L15.2856 11.8268L15.2881 11.8355L15.2868 11.8465L15.2856 11.8552V11.8638L15.2818 11.8799L15.273 11.8884L15.2667 11.8971L15.2566 11.9045L15.2492 11.9119L15.2454 11.9181L15.2379 11.9254L15.2291 11.9317L15.2216 11.939L15.2153 11.9464L15.1965 11.9538L15.1877 11.9526L15.1764 11.9538L15.1689 11.9526H15.1476L15.1363 11.9538L15.1287 11.9551L15.1187 11.9538H15.1076L15.0987 11.9551H15.0899L15.0799 11.9538L15.0686 11.9526H15.0473L15.0397 11.9538L15.0285 11.9526L15.0185 11.9551L15.0084 11.9526L14.9997 11.9551H14.9908L14.9795 11.9538L14.9707 11.9526L14.9582 11.9551H14.9494L14.9394 11.9526H14.9193L14.9093 11.9551L14.898 11.9538L14.8817 11.9476L14.8742 11.939L14.8679 11.9317L14.8541 11.9169L14.8466 11.9095L14.8391 11.9021L14.834 11.8971L14.8253 11.8873L14.8178 11.8811L14.8115 11.8638V11.8552L14.809 11.8441V11.8367L14.8102 11.8257L14.8115 11.8157L14.809 11.8071L14.8102 11.7961V11.7664L14.8115 11.7578V11.7282L14.8064 11.7085L14.8027 11.6961L14.8015 11.6863L14.7952 11.669L14.8002 11.6567L14.8202 11.6592L14.8291 11.6567H14.8391L14.8517 11.6579H14.8717L14.8804 11.6592L14.8892 11.6579L14.9018 11.6567L14.9093 11.6592L14.9206 11.6567L14.9318 11.6592L14.9419 11.6567L14.9507 11.6592H14.9607L14.972 11.6579L14.9808 11.6567L14.9846 11.6678L14.9821 11.6777L14.9782 11.6887L14.9758 11.6986L14.972 11.7085L14.9682 11.7257L14.9658 11.7455L14.9682 11.7554L14.967 11.7652L14.972 11.7837L14.9795 11.791L14.9971 11.7948H15.0084L15.0172 11.7972L15.0285 11.7948H15.0397L15.0473 11.7972L15.0586 11.7961L15.0686 11.7972L15.0786 11.7961L15.0899 11.7948L15.1012 11.7961L15.115 11.7898L15.1238 11.7849L15.1287 11.7677V11.7591L15.1262 11.7479L15.1276 11.7393L15.1262 11.7271L15.1287 11.7183V11.669L15.1276 11.6604V11.6517L15.1287 11.6395L15.1262 11.6296V11.6197L15.1276 11.6111L15.1262 11.5999L15.1287 11.5926L15.1238 11.5753L15.115 11.5703L15.1 11.563H15.0911L15.0786 11.5642L15.0699 11.5655H15.061L15.0486 11.563H15.0185L15.0109 11.5642H14.9983L14.9908 11.5655H14.9782L14.9695 11.563H14.9582L14.9482 11.5642L14.9394 11.5655L14.9306 11.5642L14.9181 11.563L14.908 11.5642L14.898 11.563L14.883 11.5556L14.8692 11.542L14.8617 11.5346L14.8541 11.5272L14.8454 11.5223L14.8391 11.5124L14.834 11.5075L14.8253 11.4976L14.8178 11.4927L14.809 11.4755L14.8102 11.4644V11.4545L14.809 11.4459L14.8115 11.4372L14.809 11.4249L14.8102 11.4175L14.809 11.4051L14.8115 11.3965L14.809 11.3879L14.8102 11.3768L14.809 11.3669L14.8102 11.3571L14.809 11.3497L14.8115 11.3373L14.809 11.3275V11.3176L14.8115 11.3077L14.8102 11.2991V11.2708L14.8115 11.2609L14.809 11.2523L14.8102 11.2424V11.2325L14.809 11.2202L14.8102 11.2116V11.2017L14.8115 11.1932L14.8102 11.1808L14.809 11.1733V11.1611L14.8102 11.1512V11.1437L14.809 11.1339L14.8115 11.1241L14.8102 11.1142L14.809 11.1031L14.8115 11.0834L14.809 11.0759L14.8115 11.0649V11.0562L14.8102 11.0451L14.8115 11.0353V11.0242L14.819 11.0168H14.8503L14.8603 11.0156L14.8692 11.0168L14.8804 11.0156H14.9005L14.9118 11.0168L14.9218 11.0143L14.9294 11.0168H14.9406L14.9494 11.0156H14.9607L14.9707 11.0143H14.9896L14.9997 11.0156L15.0084 11.0168L15.0197 11.0143H15.0309L15.041 11.0168L15.0473 11.0156H15.0686L15.0786 11.0143H15.0874L15.1 11.0168L15.1087 11.0143L15.12 11.0156L15.1287 11.0143L15.1388 11.0168H15.1501L15.1588 11.0156H15.1777L15.1877 11.0168H15.199L15.2066 11.0143H15.2178L15.2266 11.0156L15.2379 11.0168L15.2479 11.0156H15.2692L15.2781 11.0168L15.2881 11.0266V11.0464L15.2868 11.0538V11.0957L15.2893 11.1031L15.2881 11.1155L15.2893 11.1241L15.2881 11.1351V11.1426L15.2893 11.1549V11.1623L15.2881 11.1733V11.1845L15.2868 11.1918L15.2893 11.2029L15.2868 11.2116L15.2893 11.2227L15.2881 11.2338L15.2868 11.2424L15.2906 11.2622L15.2956 11.272" fill="#7E7E7E"/>
</g>
<g id="&#208;&#159;&#208;&#152;&#208;&#146;&#208;&#156;&#208;&#144;&#208;&#147;&#208;&#144;&#208;&#151;_2">
<path d="M4.71051 10.3544V11.9787H4.46833V10.6568H4.10746V11.9787H3.86597V10.3544H4.71051Z" fill="#7E7E7E"/>
<path d="M5.0907 11.3797L5.45156 10.3544H5.69375V11.9787H5.45156V10.9546L5.0907 11.9787H4.84851V10.3544H5.0907V11.3797Z" fill="#7E7E7E"/>
<path d="M6.25195 11.2882H5.9932L5.99182 11.0316H6.20158C6.2393 11.0316 6.26943 11.0249 6.29197 11.0115C6.31451 10.9974 6.33084 10.9769 6.34096 10.9502C6.35154 10.9234 6.35683 10.8899 6.35683 10.8498C6.35683 10.8037 6.35154 10.7665 6.34096 10.7382C6.33038 10.7099 6.31359 10.6895 6.29059 10.6768C6.26805 10.6635 6.23884 10.6568 6.20296 10.6568H6.08428V11.9787H5.8421V10.3544H6.20296C6.26506 10.3544 6.32049 10.3637 6.36925 10.3823C6.41801 10.4002 6.45941 10.4277 6.49345 10.4649C6.52795 10.5021 6.55417 10.5489 6.57211 10.6055C6.59005 10.6612 6.59902 10.727 6.59902 10.8029C6.59902 10.8691 6.59028 10.9312 6.5728 10.9892C6.55532 11.0472 6.52611 11.0944 6.48517 11.1309C6.44469 11.1666 6.38926 11.1852 6.31888 11.1867L6.25195 11.2882ZM6.24229 11.9787H5.93456L6.01735 11.6775H6.24229C6.27541 11.6775 6.30186 11.6693 6.32164 11.653C6.34188 11.6359 6.35637 11.6136 6.36511 11.586C6.37431 11.5578 6.37891 11.5265 6.37891 11.4923C6.37891 11.4507 6.37454 11.4146 6.3658 11.3841C6.35752 11.3536 6.34418 11.3302 6.32578 11.3138C6.30738 11.2967 6.28277 11.2882 6.25195 11.2882H6.0484L6.04978 11.0316H6.29335L6.34993 11.1342C6.41709 11.1298 6.47022 11.145 6.50932 11.18C6.54888 11.2149 6.57717 11.261 6.59419 11.3183C6.61121 11.3756 6.61972 11.4354 6.61972 11.4979C6.61972 11.6043 6.60546 11.6931 6.57694 11.7645C6.54888 11.8359 6.50679 11.8895 6.45067 11.9252C6.39455 11.9609 6.32509 11.9787 6.24229 11.9787Z" fill="#7E7E7E"/>
<path d="M6.87432 10.3544H7.07166L7.29591 11.4845L7.52015 10.3544H7.71749L7.37594 11.9787H7.21587L6.87432 10.3544ZM6.75426 10.3544H6.9585L6.99645 11.5994V11.9787H6.75426V10.3544ZM7.63331 10.3544H7.83824V11.9787H7.59536V11.5994L7.63331 10.3544Z" fill="#7E7E7E"/>
<path d="M8.43163 10.6958L8.18668 11.9787H7.92656L8.2957 10.3544H8.46061L8.43163 10.6958ZM8.63449 11.9787L8.38885 10.6958L8.35711 10.3544H8.52409L8.8953 11.9787H8.63449ZM8.62483 11.373V11.6753H8.1094V11.373H8.62483Z" fill="#7E7E7E"/>
<path d="M9.64601 10.3544V10.6568H9.20925V11.9787H8.96775V10.3544H9.64601Z" fill="#7E7E7E"/>
<path d="M10.0407 10.6958L9.79574 11.9787H9.53561L9.90476 10.3544H10.0697L10.0407 10.6958ZM10.2435 11.9787L9.9979 10.6958L9.96617 10.3544H10.1331L10.5044 11.9787H10.2435ZM10.2339 11.373V11.6753H9.71846V11.373H10.2339Z" fill="#7E7E7E"/>
<path d="M10.986 11.2012H10.8128V11.0048H10.9411C10.971 11.0048 10.9952 10.997 11.0136 10.9814C11.032 10.965 11.0455 10.942 11.0543 10.9122C11.063 10.8817 11.0674 10.846 11.0674 10.8051C11.0674 10.7746 11.0623 10.7464 11.0522 10.7204C11.0425 10.6943 11.0276 10.6735 11.0074 10.6579C10.9871 10.6423 10.9614 10.6345 10.9301 10.6345C10.9062 10.6345 10.8843 10.6408 10.8645 10.6534C10.8448 10.6661 10.8291 10.6847 10.8176 10.7092C10.8061 10.733 10.8004 10.7627 10.8004 10.7984H10.5589C10.5589 10.7256 10.5688 10.6605 10.5885 10.6032C10.6083 10.546 10.6352 10.4972 10.6693 10.4571C10.7038 10.4169 10.7433 10.3864 10.7879 10.3656C10.833 10.344 10.8804 10.3333 10.9301 10.3333C10.9876 10.3333 11.0396 10.3433 11.086 10.3634C11.1325 10.3827 11.1723 10.4117 11.2054 10.4504C11.239 10.4891 11.2647 10.5374 11.2827 10.5954C11.3006 10.6527 11.3096 10.7192 11.3096 10.7951C11.3096 10.8509 11.3018 10.9033 11.2861 10.9524C11.2709 11.0015 11.2491 11.0446 11.2206 11.0818C11.192 11.119 11.1578 11.1484 11.1178 11.1699C11.0782 11.1908 11.0343 11.2012 10.986 11.2012ZM10.8128 11.1019H10.986C11.0398 11.1019 11.0876 11.1112 11.1295 11.1298C11.1713 11.1484 11.2068 11.1755 11.2357 11.2112C11.2652 11.2469 11.2875 11.2912 11.3027 11.344C11.3179 11.396 11.3254 11.4559 11.3254 11.5236C11.3254 11.5994 11.3156 11.6671 11.2958 11.7266C11.2765 11.7854 11.2491 11.8352 11.2137 11.8761C11.1782 11.917 11.1364 11.9479 11.0881 11.9687C11.0402 11.9895 10.9876 11.9999 10.9301 11.9999C10.8836 11.9999 10.8374 11.991 10.7914 11.9731C10.7459 11.9546 10.7045 11.9263 10.6672 11.8884C10.6299 11.8504 10.6 11.8017 10.5775 11.7422C10.5554 11.6827 10.5444 11.6113 10.5444 11.528H10.7873C10.7873 11.5608 10.7932 11.5901 10.8052 11.6162C10.8176 11.6422 10.8346 11.6626 10.8563 11.6775C10.8779 11.6924 10.9025 11.6998 10.9301 11.6998C10.9623 11.6998 10.9896 11.6916 11.0122 11.6753C11.0352 11.6589 11.0527 11.6366 11.0646 11.6084C11.0766 11.5801 11.0826 11.5489 11.0826 11.5146C11.0826 11.4745 11.0796 11.4406 11.0736 11.4131C11.0676 11.3849 11.0586 11.3622 11.0467 11.3451C11.0347 11.3272 11.0198 11.3146 11.0018 11.3071C10.9844 11.299 10.9641 11.2949 10.9411 11.2949H10.8128V11.1019Z" fill="#7E7E7E"/>
</g>
</g>
</g>
</svg>
