<svg width="21" height="12" viewBox="0 0 21 12" fill="none" xmlns="http://www.w3.org/2000/svg">
<path id="&#208;&#190;&#209;&#130;" d="M0.888672 5.61914C0.888672 4.58398 1.09049 3.65299 1.49414 2.82617C1.9043 1.99935 2.4707 1.36133 3.19336 0.912109C3.92253 0.462891 4.7526 0.238281 5.68359 0.238281C7.1224 0.238281 8.28451 0.736328 9.16992 1.73242C10.0618 2.72852 10.5078 4.05339 10.5078 5.70703V5.83398C10.5078 6.86263 10.3092 7.78711 9.91211 8.60742C9.52148 9.42122 8.95833 10.056 8.22266 10.5117C7.49349 10.9674 6.65365 11.1953 5.70312 11.1953C4.27083 11.1953 3.10872 10.6973 2.2168 9.70117C1.33138 8.70508 0.888672 7.38672 0.888672 5.74609V5.61914ZM2.70508 5.83398C2.70508 7.00586 2.97526 7.94661 3.51562 8.65625C4.0625 9.36589 4.79167 9.7207 5.70312 9.7207C6.62109 9.7207 7.35026 9.36263 7.89062 8.64648C8.43099 7.92383 8.70117 6.91471 8.70117 5.61914C8.70117 4.46029 8.42448 3.52279 7.87109 2.80664C7.32422 2.08398 6.59505 1.72266 5.68359 1.72266C4.79167 1.72266 4.07227 2.07747 3.52539 2.78711C2.97852 3.49674 2.70508 4.51237 2.70508 5.83398ZM20.4102 1.89844H16.8652V11H15.0586V1.89844H11.582V0.433594H20.4102V1.89844Z" fill="#979797"/>
</svg>
