<svg width="34" height="34" viewBox="0 0 34 34" fill="none" xmlns="http://www.w3.org/2000/svg">
<path id="Vector" d="M17 0C21.6189 0 22.1952 0.0169999 24.0074 0.102C25.8179 0.187 27.0504 0.4709 28.135 0.8925C29.257 1.3243 30.2022 1.9091 31.1474 2.8526C32.0118 3.70242 32.6807 4.7304 33.1075 5.865C33.5274 6.9479 33.813 8.1821 33.898 9.9926C33.9779 11.8048 34 12.3811 34 17C34 21.6189 33.983 22.1952 33.898 24.0074C33.813 25.8179 33.5274 27.0504 33.1075 28.135C32.682 29.2702 32.0129 30.2985 31.1474 31.1474C30.2973 32.0115 29.2694 32.6804 28.135 33.1075C27.0521 33.5274 25.8179 33.813 24.0074 33.898C22.1952 33.9779 21.6189 34 17 34C12.3811 34 11.8048 33.983 9.9926 33.898C8.1821 33.813 6.9496 33.5274 5.865 33.1075C4.72995 32.6816 3.7018 32.0126 2.8526 31.1474C1.98799 30.2977 1.31908 29.2697 0.8925 28.135C0.4709 27.0521 0.187 25.8179 0.102 24.0074C0.0220999 22.1952 0 21.6189 0 17C0 12.3811 0.0169999 11.8048 0.102 9.9926C0.187 8.1804 0.4709 6.9496 0.8925 5.865C1.3179 4.7297 1.98697 3.70145 2.8526 2.8526C3.70204 1.98769 4.73013 1.31874 5.865 0.8925C6.9496 0.4709 8.1804 0.187 9.9926 0.102C11.8048 0.0220999 12.3811 0 17 0ZM17 8.5C14.7457 8.5 12.5837 9.39553 10.9896 10.9896C9.39553 12.5837 8.5 14.7457 8.5 17C8.5 19.2543 9.39553 21.4163 10.9896 23.0104C12.5837 24.6045 14.7457 25.5 17 25.5C19.2543 25.5 21.4163 24.6045 23.0104 23.0104C24.6045 21.4163 25.5 19.2543 25.5 17C25.5 14.7457 24.6045 12.5837 23.0104 10.9896C21.4163 9.39553 19.2543 8.5 17 8.5ZM28.05 8.075C28.05 7.51142 27.8261 6.97091 27.4276 6.5724C27.0291 6.17388 26.4886 5.95 25.925 5.95C25.3614 5.95 24.8209 6.17388 24.4224 6.5724C24.0239 6.97091 23.8 7.51142 23.8 8.075C23.8 8.63859 24.0239 9.17909 24.4224 9.5776C24.8209 9.97612 25.3614 10.2 25.925 10.2C26.4886 10.2 27.0291 9.97612 27.4276 9.5776C27.8261 9.17909 28.05 8.63859 28.05 8.075ZM17 11.9C18.3526 11.9 19.6498 12.4373 20.6062 13.3938C21.5627 14.3502 22.1 15.6474 22.1 17C22.1 18.3526 21.5627 19.6498 20.6062 20.6062C19.6498 21.5627 18.3526 22.1 17 22.1C15.6474 22.1 14.3502 21.5627 13.3938 20.6062C12.4373 19.6498 11.9 18.3526 11.9 17C11.9 15.6474 12.4373 14.3502 13.3938 13.3938C14.3502 12.4373 15.6474 11.9 17 11.9Z" fill="#7E7E7E"/>
</svg>
