<svg width="23" height="22" viewBox="0 0 23 22" fill="none" xmlns="http://www.w3.org/2000/svg">
<g id="Vector">
<mask id="path-1-inside-1_13_11" fill="white">
<path d="M22.4435 4.50846C22.0867 3.62621 21.5721 2.82672 20.9287 2.15475C20.2847 1.48077 19.5255 0.945175 18.6923 0.577078C17.8283 0.193869 16.9016 -0.0022792 15.9661 1.99806e-05C14.6535 1.99806e-05 13.3729 0.383778 12.2601 1.10865C11.9938 1.28206 11.7409 1.47251 11.5013 1.68003C11.2617 1.47251 11.0088 1.28206 10.7425 1.10865C9.62969 0.383778 8.3491 1.99806e-05 7.03657 1.99806e-05C6.09144 1.99806e-05 5.17559 0.19332 4.31033 0.577078C3.47436 0.946623 2.72091 1.4782 2.07396 2.15475C1.42967 2.82596 0.914988 3.62564 0.559092 4.50846C0.189026 5.42664 0 6.40167 0 7.40512C0 8.35173 0.181039 9.33813 0.540456 10.3416C0.8413 11.1802 1.2726 12.05 1.8237 12.9284C2.69695 14.3184 3.89767 15.7682 5.38858 17.2379C7.85923 19.674 10.3059 21.3569 10.4098 21.4251L11.0407 21.8572C11.3203 22.0476 11.6797 22.0476 11.9592 21.8572L12.5902 21.4251C12.694 21.354 15.1381 19.674 17.6114 17.2379C19.1023 15.7682 20.303 14.3184 21.1763 12.9284C21.7274 12.05 22.1613 11.1802 22.4595 10.3416C22.8189 9.33813 23 8.35173 23 7.40512C23.0026 6.40167 22.8136 5.42664 22.4435 4.50846Z"/>
</mask>
<path d="M22.4435 4.50846C22.0867 3.62621 21.5721 2.82672 20.9287 2.15475C20.2847 1.48077 19.5255 0.945175 18.6923 0.577078C17.8283 0.193869 16.9016 -0.0022792 15.9661 1.99806e-05C14.6535 1.99806e-05 13.3729 0.383778 12.2601 1.10865C11.9938 1.28206 11.7409 1.47251 11.5013 1.68003C11.2617 1.47251 11.0088 1.28206 10.7425 1.10865C9.62969 0.383778 8.3491 1.99806e-05 7.03657 1.99806e-05C6.09144 1.99806e-05 5.17559 0.19332 4.31033 0.577078C3.47436 0.946623 2.72091 1.4782 2.07396 2.15475C1.42967 2.82596 0.914988 3.62564 0.559092 4.50846C0.189026 5.42664 0 6.40167 0 7.40512C0 8.35173 0.181039 9.33813 0.540456 10.3416C0.8413 11.1802 1.2726 12.05 1.8237 12.9284C2.69695 14.3184 3.89767 15.7682 5.38858 17.2379C7.85923 19.674 10.3059 21.3569 10.4098 21.4251L11.0407 21.8572C11.3203 22.0476 11.6797 22.0476 11.9592 21.8572L12.5902 21.4251C12.694 21.354 15.1381 19.674 17.6114 17.2379C19.1023 15.7682 20.303 14.3184 21.1763 12.9284C21.7274 12.05 22.1613 11.1802 22.4595 10.3416C22.8189 9.33813 23 8.35173 23 7.40512C23.0026 6.40167 22.8136 5.42664 22.4435 4.50846Z" stroke="#393939" stroke-width="6" mask="url(#path-1-inside-1_13_11)"/>
</g>
</svg>
