<svg width="33" height="15" viewBox="0 0 33 15" fill="none" xmlns="http://www.w3.org/2000/svg">
<path id="Vector" d="M24.2117 0.362325C24.1127 0.458119 24.0342 0.571919 23.9807 0.697206C23.9271 0.822493 23.8995 0.956803 23.8995 1.09245C23.8995 1.22809 23.9271 1.36241 23.9807 1.48769C24.0342 1.61298 24.1127 1.72678 24.2117 1.82257L28.7737 6.2487L1.5625 6.2487C1.28071 6.2487 1.01046 6.35734 0.8112 6.55074C0.611942 6.74414 0.500001 7.00644 0.500001 7.27995C0.500001 7.55345 0.611942 7.81575 0.8112 8.00915C1.01046 8.20255 1.28071 8.3112 1.5625 8.3112L28.7737 8.3112L24.2117 12.7373C24.1129 12.8332 24.0345 12.947 23.9811 13.0723C23.9276 13.1976 23.9001 13.3318 23.9001 13.4674C23.9001 13.603 23.9276 13.7373 23.9811 13.8626C24.0345 13.9879 24.1129 14.1017 24.2117 14.1976C24.3105 14.2935 24.4278 14.3695 24.5568 14.4214C24.6859 14.4733 24.8242 14.5 24.9639 14.5C25.1036 14.5 25.242 14.4733 25.3711 14.4214C25.5001 14.3695 25.6174 14.2935 25.7162 14.1976L32.0912 8.01007C32.1901 7.91428 32.2686 7.80048 32.3222 7.67519C32.3758 7.54991 32.4033 7.41559 32.4033 7.27995C32.4033 7.1443 32.3758 7.00999 32.3222 6.88471C32.2686 6.75942 32.1901 6.64562 32.0912 6.54982L25.7162 0.362325C25.6175 0.266288 25.5002 0.190093 25.3712 0.138105C25.2421 0.0861165 25.1037 0.0593561 24.9639 0.059356C24.8242 0.059356 24.6858 0.0861164 24.5567 0.138105C24.4276 0.190093 24.3104 0.266288 24.2117 0.362325Z" fill="#393939"/>
</svg>
