<svg width="22" height="10" viewBox="0 0 22 10" fill="none" xmlns="http://www.w3.org/2000/svg">
<path id="Vector" d="M11.0173 0.00337958C11.3838 0.00272779 11.739 0.118918 12.0212 0.331781L21.4333 7.47095C21.7537 7.71331 21.9551 8.06157 21.9934 8.43913C22.0316 8.81668 21.9035 9.19261 21.6372 9.48419C21.371 9.77578 20.9884 9.95915 20.5736 9.99396C20.1588 10.0288 19.7457 9.91217 19.4254 9.66981L11.0173 3.27312L2.60911 9.44135C2.44866 9.55996 2.26403 9.64853 2.06584 9.70198C1.86766 9.75542 1.65982 9.77269 1.45428 9.75279C1.24874 9.73288 1.04954 9.6762 0.868143 9.586C0.686746 9.4958 0.526722 9.37386 0.39727 9.22718C0.25361 9.08037 0.144808 8.90813 0.0776796 8.72127C0.0105515 8.5344 -0.0134537 8.33693 0.00716362 8.14123C0.0277809 7.94553 0.0925768 7.75581 0.197495 7.58396C0.302414 7.41211 0.445194 7.26183 0.616888 7.14254L10.029 0.246111C10.3193 0.0668953 10.6673 -0.0185674 11.0173 0.00337958V0.00337958Z" fill="#979797"/>
</svg>
