<svg width="34" height="33" viewBox="0 0 34 33" fill="none" xmlns="http://www.w3.org/2000/svg">
<path fill-rule="evenodd" clip-rule="evenodd" d="M17 2.0625C13.0549 2.0625 9.27139 3.58359 6.48179 6.29115C3.69218 8.9987 2.125 12.6709 2.125 16.5C2.125 20.3291 3.69218 24.0013 6.48179 26.7089C9.27139 29.4164 13.0549 30.9375 17 30.9375C20.9451 30.9375 24.7286 29.4164 27.5182 26.7089C30.3078 24.0013 31.875 20.3291 31.875 16.5C31.875 12.6709 30.3078 8.9987 27.5182 6.29115C24.7286 3.58359 20.9451 2.0625 17 2.0625ZM17 2.32851e-06C12.4913 1.93435e-06 8.1673 1.73839 4.97918 4.83274C1.79106 7.92709 -1.98965e-06 12.1239 -2.37222e-06 16.5C-2.75479e-06 20.8761 1.79106 25.0729 4.97918 28.1673C8.1673 31.2616 12.4913 33 17 33C21.5087 33 25.8327 31.2616 29.0208 28.1673C32.2089 25.0729 34 20.8761 34 16.5C34 12.1239 32.2089 7.92709 29.0208 4.83274C25.8327 1.73839 21.5087 2.72267e-06 17 2.32851e-06Z" fill="#393939"/>
<path d="M16.2477 9.58238C16.1488 9.67817 16.0703 9.79197 16.0167 9.91726C15.9632 10.0425 15.9356 10.1769 15.9356 10.3125C15.9356 10.4481 15.9632 10.5825 16.0167 10.7077C16.0703 10.833 16.1488 10.9468 16.2477 11.0426L20.8097 15.4688L10.625 15.4687C10.3432 15.4687 10.073 15.5774 9.8737 15.7708C9.67444 15.9642 9.5625 16.2265 9.5625 16.5C9.5625 16.7735 9.67444 17.0358 9.8737 17.2292C10.073 17.4226 10.3432 17.5312 10.625 17.5312L20.8097 17.5312L16.2477 21.9574C16.149 22.0533 16.0706 22.1671 16.0171 22.2924C15.9637 22.4176 15.9362 22.5519 15.9362 22.6875C15.9362 22.8231 15.9637 22.9574 16.0171 23.0826C16.0706 23.2079 16.149 23.3217 16.2477 23.4176C16.3465 23.5135 16.4638 23.5896 16.5929 23.6415C16.722 23.6933 16.8603 23.7201 17 23.7201C17.1397 23.7201 17.278 23.6933 17.4071 23.6415C17.5362 23.5896 17.6535 23.5135 17.7522 23.4176L24.1273 17.2301C24.2262 17.1343 24.3047 17.0205 24.3583 16.8952C24.4118 16.77 24.4394 16.6356 24.4394 16.5C24.4394 16.3644 24.4118 16.23 24.3583 16.1048C24.3047 15.9795 24.2262 15.8657 24.1273 15.7699L17.7523 9.58238C17.6536 9.48634 17.5363 9.41014 17.4072 9.35816C17.2781 9.30617 17.1398 9.27941 17 9.27941C16.8602 9.27941 16.7219 9.30617 16.5928 9.35816C16.4637 9.41014 16.3464 9.48634 16.2477 9.58238Z" fill="#393939"/>
</svg>
