<svg width="12" height="12" viewBox="0 0 12 12" fill="none" xmlns="http://www.w3.org/2000/svg">
<path id="Vector" d="M6.65696e-05 4.49231C-0.00158714 4.59367 0.0276048 4.69313 0.0837718 4.77751C0.139939 4.8619 0.220428 4.92722 0.314567 4.96481L5.11507 6.88531L7.03557 11.6863C7.07267 11.7792 7.13676 11.8588 7.21956 11.9148C7.30236 11.9709 7.40007 12.0008 7.50007 12.0008H7.50807C7.60933 11.9992 7.70773 11.9669 7.79023 11.9082C7.87273 11.8494 7.93544 11.767 7.97007 11.6718L11.9701 0.671813C12.0028 0.582326 12.0093 0.485345 11.9888 0.392293C11.9682 0.29924 11.9216 0.213991 11.8542 0.146585C11.7869 0.0791785 11.7016 0.0324223 11.6086 0.0118229C11.5156 -0.00877647 11.4186 -0.00236122 11.3291 0.030313L0.329067 4.03031C0.233849 4.06503 0.151415 4.12783 0.0926681 4.21042C0.0339212 4.293 0.00163016 4.39098 6.65696e-05 4.49231Z" fill="#979797"/>
</svg>
