<svg width="46" height="45" viewBox="0 0 46 45" fill="none" xmlns="http://www.w3.org/2000/svg">
<g id="Group 63">
<g id="g12">
<path id="path14" d="M40.2799 32.4519V26.2621C40.2799 24.8151 39.1103 23.6419 37.6676 23.6419H26.217H20.2736H8.82331C7.38051 23.6419 6.21094 24.8151 6.21094 26.2621V32.4519H40.2799Z" fill="#F2F2F2"/>
<path id="path16" d="M41.04 32.4519H39.5192V26.2621C39.5192 25.2379 38.6885 24.4045 37.6672 24.4045H8.82295C7.80169 24.4045 6.97086 25.2379 6.97086 26.2621V32.4519H5.4502V26.2621C5.4502 24.3969 6.96312 22.8794 8.82295 22.8794H37.6672C39.5268 22.8794 41.04 24.3969 41.04 26.2621V32.4519" fill="#393939"/>
<path id="path18" d="M10.1874 3.69321C10.0706 3.74214 9.98168 3.82993 9.9372 3.94024C9.89718 4.03964 9.89795 4.14757 9.93921 4.24389C10.0038 4.39404 10.1485 4.48743 10.317 4.48743C10.3795 4.48743 10.4417 4.47457 10.5021 4.44926C10.7273 4.35503 10.8371 4.11555 10.752 3.90389C10.6698 3.69936 10.409 3.60024 10.1874 3.69321" fill="#393939"/>
<path id="path20" d="M12.8224 4.33968L12.6117 3.72776C12.6942 3.69966 12.7766 3.67156 12.8591 3.64402C13.0244 3.58908 13.1683 3.56125 13.2866 3.56125C13.4093 3.56125 13.5651 3.59187 13.6096 3.73839C13.6873 3.99353 13.4251 4.1385 13.1912 4.21525C13.068 4.25608 12.9451 4.29746 12.8224 4.33968V4.33968ZM12.7353 3.09515C12.6331 3.12926 12.5312 3.16351 12.4295 3.19861L12.2242 2.60304C12.3552 2.55803 12.4864 2.51399 12.6179 2.47037C12.9248 2.36971 13.1319 2.40872 13.1848 2.58026C13.2477 2.78493 13.0716 2.98694 12.7353 3.09515V3.09515ZM13.7142 3.04342C13.9272 2.82351 13.9978 2.56725 13.9183 2.29254C13.7637 1.75346 13.1968 1.57899 12.3826 1.84671C12.0423 1.95953 11.6975 2.07962 11.3581 2.20349L11.2729 2.23466L12.3548 5.21289L12.4399 5.18171C12.7495 5.06875 13.0637 4.95915 13.3739 4.85639C14.1342 4.60433 14.5282 4.09796 14.3781 3.56601C14.316 3.34959 14.1491 3.09627 13.7142 3.04342Z" fill="#393939"/>
<path id="path22" d="M16.2014 2.50349C16.0942 2.52726 15.9871 2.55172 15.8801 2.57675L15.6545 1.61602C15.7655 1.59002 15.8764 1.56471 15.9873 1.53997C16.4046 1.4477 16.6455 1.55786 16.7099 1.88332C16.7748 2.2106 16.6085 2.41332 16.2014 2.50349V2.50349ZM17.7416 3.06843C17.5395 3.10534 17.4313 3.01349 17.2892 2.89061C17.2454 2.85286 17.2007 2.81427 17.1514 2.77834C17.4662 2.48504 17.5543 2.05388 17.4963 1.73275C17.3724 1.03164 16.7439 0.691222 15.8851 0.880235C15.5369 0.957547 15.1845 1.04129 14.8376 1.12923L14.7498 1.1516L15.5249 4.22461L15.6127 4.20224C15.7878 4.15778 15.963 4.11486 16.1386 4.07348L16.2267 4.05265L16.0287 3.20866C16.1112 3.1895 16.194 3.17063 16.2766 3.15176L16.2978 3.14701C16.3388 3.13764 16.3781 3.12869 16.4164 3.11807C16.5348 3.16098 16.6265 3.26164 16.7317 3.37712C16.906 3.56809 17.1032 3.78451 17.4808 3.78451C17.5482 3.78451 17.6201 3.77724 17.694 3.76312C18.0228 3.70203 18.0385 3.65099 18.0472 3.62359L18.0537 3.60262L17.9535 3.03069L17.7416 3.06843" fill="#393939"/>
<path id="path24" d="M20.8985 2.6463C20.4409 2.68419 19.9781 2.732 19.5217 2.78904L19.4547 2.26086C19.871 2.20885 20.2949 2.16412 20.7159 2.12749L20.8061 2.1198L20.7506 1.47293L20.6604 1.48062C20.2337 1.51767 19.8013 1.56325 19.3733 1.61679L19.2909 0.966426C19.7728 0.906311 20.2624 0.855561 20.7481 0.815438L20.8384 0.807748L20.7839 0.143823L20.6936 0.151233C19.9742 0.210649 19.2468 0.293133 18.5318 0.396308L18.4421 0.409029L18.892 3.54663L18.9816 3.53363C19.6325 3.43968 20.296 3.36461 20.9533 3.31022L21.0436 3.30281L20.9887 2.63889L20.8985 2.6463Z" fill="#393939"/>
<path id="path26" d="M25.5148 0.0787383L25.4492 0.0753832L25.4255 0.136475C25.2135 0.682966 25.0077 1.23673 24.813 1.78559C24.5748 1.20471 24.3225 0.623551 24.0616 0.0544127L24.0376 0.00212648L23.7273 2.73843e-05L23.7028 0.0525935C23.4371 0.619356 23.1801 1.19786 22.9372 1.77581C22.7479 1.22163 22.5483 0.664232 22.3427 0.115365L22.3197 0.0541328L22.2545 0.0566484C22.0375 0.0650365 21.8204 0.0753816 21.6035 0.0876842L21.4766 0.0950942L21.5252 0.213087C21.9278 1.19213 22.3075 2.19354 22.6536 3.18908L22.6756 3.25185L22.9813 3.24444L23.0047 3.19117C23.2748 2.57129 23.5648 1.94735 23.8675 1.33417C24.1661 1.95098 24.452 2.57898 24.7182 3.2032L24.7408 3.25605L25.0509 3.26807L25.0735 3.20529C25.4299 2.21479 25.82 1.21841 26.2327 0.244263L26.2823 0.12697L26.1556 0.11802C25.9419 0.103062 25.7285 0.0897828 25.5148 0.0787383" fill="#393939"/>
<path id="path28" d="M30.7551 0.691559C30.6172 0.663458 30.4773 0.649338 30.3393 0.649338C29.463 0.649338 28.7483 1.20897 28.6406 1.97999C28.508 2.92086 29.1273 3.69789 30.1819 3.91333C30.3502 3.94786 30.522 3.96533 30.6921 3.96533C31.0417 3.96533 31.283 3.89137 31.3054 3.87628L31.3521 3.8451L31.3451 3.7896C31.3253 3.63022 31.3047 3.47085 31.2834 3.31147L31.2696 3.20914L31.1699 3.23598C31.1681 3.23626 30.987 3.28407 30.7189 3.28407C30.5704 3.28407 30.4238 3.26953 30.2827 3.24073C29.6971 3.12162 29.335 2.64685 29.4214 2.1121C29.4986 1.63719 29.8711 1.34234 30.3932 1.34234C30.4967 1.34234 30.6061 1.35395 30.7177 1.37673C31.0655 1.44775 31.3878 1.66641 31.465 1.72163L31.517 1.842L31.6108 1.71772C31.7096 1.58686 31.8095 1.45628 31.91 1.32627L31.9848 1.2291L31.885 1.19108C31.7912 1.1132 31.4101 0.824652 30.7551 0.691559" fill="#393939"/>
<path id="path30" d="M34.9201 3.53279C34.7765 3.93598 34.408 4.1963 33.981 4.1963C33.872 4.1963 33.7624 4.17924 33.6555 4.14555C33.121 3.97638 32.827 3.44821 32.972 2.9171C33.0881 2.49126 33.4506 2.21612 33.8953 2.21612C34.0104 2.21612 34.1276 2.23472 34.2442 2.27148C34.5361 2.36375 34.7633 2.54941 34.8843 2.79407C34.9965 3.02069 35.0094 3.28296 34.9201 3.53279V3.53279ZM34.4367 1.64279C34.2279 1.5768 34.016 1.54339 33.8069 1.54339C33.0226 1.54339 32.3793 2.00893 32.2062 2.70194C31.9826 3.59402 32.509 4.45927 33.4582 4.75928C33.6645 4.82443 33.874 4.85742 34.081 4.85742C34.8126 4.85742 35.4216 4.45102 35.6699 3.79674C35.8197 3.40263 35.8026 2.97917 35.6222 2.6045C35.4067 2.15796 34.9856 1.81642 34.4367 1.64279" fill="#393939"/>
<path id="path32" d="M37.3463 3.94096C37.3019 3.83107 37.2113 3.7409 37.097 3.69309C36.873 3.59928 36.6152 3.6977 36.5324 3.90377C36.446 4.11892 36.5535 4.35323 36.7825 4.44914C36.8415 4.47388 36.9031 4.48633 36.9648 4.48633C37.135 4.48633 37.2805 4.3935 37.3451 4.24377C37.3862 4.14842 37.3866 4.04092 37.3463 3.94096" fill="#393939"/>
<path id="path34" d="M32.2189 15.3401C32.2189 14.4825 32.0883 13.6405 31.8303 12.8377C31.6982 12.427 31.4583 12.0671 31.1398 11.7837C31.4004 10.4046 31.032 9.13895 30.0628 8.20324C28.9235 7.10327 27.1165 6.6724 25.6336 7.08831C24.8839 6.07502 23.5624 5.5597 22.101 5.75221C20.6205 5.94738 19.4616 6.79235 18.988 7.97131C17.967 7.92672 16.9123 8.3032 16.1801 9.00893C15.4064 9.75492 15.0625 10.7858 15.193 11.9375C14.9529 12.1934 14.7695 12.498 14.6602 12.8377C14.4023 13.6412 14.2715 14.4829 14.2715 15.3401C14.2715 17.6116 15.0891 20.3435 15.9547 23.2359C16.8849 26.3434 17.8468 31.3474 17.8468 34.1721C17.8468 35.6933 17.4059 36.9111 16.9794 38.0892C16.517 39.3662 16.0803 40.5726 16.2341 42.0118C16.5496 44.966 22.9721 45 23.2453 45C24.1753 45 25.748 44.8735 27.1202 44.5161C29.0782 44.0064 30.1334 43.1638 30.2564 42.0118C30.4102 40.5726 29.9732 39.3665 29.5113 38.0892C29.0846 36.9111 28.6438 35.6933 28.6438 34.1721C28.6438 31.3474 29.6058 26.3434 30.5356 23.2359C31.4014 20.3435 32.2189 17.6116 32.2189 15.3401Z" fill="#393939"/>
<path id="path36" d="M15.6375 15.34C15.6375 14.4505 15.8132 13.7168 15.9606 13.2579C16.0719 12.9111 16.3907 12.6329 16.7923 12.5321C17.8469 12.2667 20.0873 11.8222 23.2448 11.8222C26.402 11.8222 28.6427 12.2667 29.6973 12.5321C30.099 12.6329 30.4177 12.9111 30.5291 13.2581C30.6765 13.7164 30.852 14.4498 30.852 15.34C30.852 15.467 30.8488 15.5961 30.8431 15.7271C30.3986 15.5467 29.8677 15.3864 29.2475 15.2499C28.9841 15.1916 28.7085 15.2494 28.4913 15.408C28.2775 15.5641 28.1401 15.8047 28.1147 16.0678L27.8901 18.3789C27.8425 18.7089 27.607 18.9816 27.2874 19.0754C26.4736 19.3144 25.8797 20.0141 25.7745 20.8581L25.6862 21.5669C25.6645 21.7415 25.5159 21.8732 25.3403 21.8732C25.2021 21.8732 25.091 21.7647 25.0873 21.6285L24.9417 15.6542C24.9292 15.133 24.5179 14.7154 24.0056 14.7038C21.3104 14.6432 17.7644 14.858 15.6434 15.6029C15.6408 15.5148 15.6375 15.4261 15.6375 15.34" fill="#F2F2F2"/>
<path id="path38" d="M19.3268 9.39407C19.5092 9.43629 19.7005 9.40106 19.8563 9.29746C20.0121 9.19387 20.1189 9.03086 20.1517 8.84618C20.3467 7.7469 21.4196 7.22446 22.2789 7.11108C23.1164 7.00078 24.258 7.22376 24.7209 8.21595C24.7976 8.38091 24.9369 8.50813 25.1074 8.57007C25.2782 8.63186 25.4662 8.62319 25.6305 8.54574C26.6913 8.04524 28.2215 8.32849 29.115 9.19079C29.5285 9.59007 29.9215 10.2246 29.851 11.1589C28.4716 10.8261 26.252 10.4515 23.245 10.4515C20.1713 10.4515 17.9205 10.8431 16.5486 11.181C16.6046 10.7152 16.7986 10.3136 17.1269 9.99704C17.6821 9.46187 18.5657 9.21945 19.3268 9.39407Z" fill="#F2F2F2"/>
<path id="path40" d="M28.8976 41.866C28.8438 42.3702 28.0709 42.8526 26.7772 43.1894C25.4428 43.5367 23.9292 43.6295 23.2453 43.6295C22.5613 43.6295 21.0478 43.5367 19.7137 43.1894C18.4199 42.8526 17.647 42.3702 17.5931 41.866C17.555 41.5099 17.5661 41.1651 17.6121 40.8227C18.2377 41.1807 19.0732 41.4643 20.1099 41.6689C21.2908 41.9017 22.5036 41.9845 23.2453 41.9845C24.5842 41.9845 27.2751 41.7297 28.8782 40.8205C28.9246 41.1634 28.9358 41.5092 28.8976 41.866" fill="#F2F2F2"/>
<path id="path42" d="M27.2773 34.1721C27.2773 35.9344 27.7818 37.3279 28.2267 38.5569C28.3329 38.8508 28.4355 39.1343 28.5278 39.4123C27.4535 40.2867 24.728 40.614 23.2452 40.614C21.615 40.614 18.9759 40.2398 17.9624 39.4124C18.0547 39.1346 18.1574 38.8508 18.2638 38.5569C18.7089 37.3278 19.213 35.9344 19.213 34.1721C19.213 31.1461 18.222 26.044 17.2635 22.8418C16.6395 20.7565 16.0415 18.7577 15.7783 17.0171C17.2246 16.4014 20.2713 16.0247 23.5853 16.0674L23.7216 21.6641C23.7459 22.55 24.4569 23.2439 25.3406 23.2439C26.2036 23.2439 26.9354 22.596 27.0427 21.7368L27.1308 21.0281C27.1683 20.7266 27.3809 20.4762 27.6715 20.3909C28.5131 20.1438 29.1313 19.421 29.2465 18.549L29.4263 16.7019C30.0308 16.8605 30.4281 17.0215 30.6886 17.1595C30.4151 18.8668 29.834 20.8127 29.2267 22.8418C28.2684 26.044 27.2773 31.1461 27.2773 34.1721" fill="#F2F2F2"/>
<path id="path44" d="M18.8823 18.1349C18.8021 17.765 18.4375 17.5304 18.0693 17.6111C17.7006 17.6916 17.4667 18.0568 17.547 18.4265C17.7848 19.5212 18.1864 20.7836 18.6117 22.1203C19.8827 26.1164 21.4645 32.8804 20.1508 37.624C20.0498 37.9886 20.2625 38.3664 20.6262 38.468C20.6875 38.4849 20.7488 38.493 20.8095 38.493C21.1087 38.493 21.3835 38.2941 21.4674 37.991C22.8903 32.8535 21.2396 25.8734 19.9136 21.7038C19.4984 20.3989 19.1064 19.1661 18.8823 18.1349Z" fill="#393939"/>
<path id="path46" d="M5.02917 12.2757C4.67845 12.883 4.32623 13.3141 4.90028 14.549C8.11606 21.5547 9.68316 29.2205 9.47701 36.9491C9.40269 39.2423 10.5949 40.4139 11.6934 41.9323C11.6138 42.5962 11.5197 43.2596 11.4149 43.9222L12.5029 44.1129C12.6112 43.4294 12.7081 42.7453 12.7902 42.0607C14.1497 40.8616 15.6485 39.7263 15.7325 37.0977C15.9612 28.4109 14.1975 19.7897 10.5763 11.9078C9.92797 10.5155 9.39083 10.5736 8.63359 10.4261C9.47675 12.0876 10.2334 13.7861 10.9022 15.5152C10.9023 15.515 10.8231 15.7348 10.701 16.0554C10.5452 15.7273 10.3522 15.4077 10.1392 15.106C9.48099 13.463 8.74207 11.8488 7.92369 10.2694C7.22908 8.94556 6.69777 9.03279 5.94038 8.93269C6.71231 10.2898 7.42243 11.6758 8.07011 13.0869C7.8344 12.9443 7.66114 12.8812 7.59242 12.9136C7.52375 12.946 7.46228 13.1208 7.41612 13.391C6.77737 11.999 6.07677 10.6316 5.31524 9.29283C5.0057 9.99939 4.67279 10.3818 5.3283 11.6315C6.10248 13.1262 6.80138 14.6536 7.42412 16.2085C7.47143 16.5566 7.53737 16.9026 7.63015 17.232C7.33264 17.0887 7.13134 16.9939 7.13145 16.9939C6.51171 15.3906 5.81045 13.8159 5.02917 12.2757Z" fill="#393939"/>
<path id="path48" d="M12.8682 36.491C13.1371 35.0303 13.8599 33.9477 14.9033 33.3328C14.7183 34.8692 13.9405 35.965 12.8682 36.491Z" fill="#F2F2F2"/>
<path id="path50" d="M12.8247 33.2581C13.006 31.7882 13.6631 30.6667 14.6679 29.9913C14.5748 31.5329 13.8634 32.6704 12.8247 33.2581Z" fill="#F2F2F2"/>
<path id="path52" d="M12.5884 30.0419C12.6819 28.5668 13.2712 27.409 14.2341 26.6757C14.2326 28.218 13.5903 29.3939 12.5884 30.0419Z" fill="#F2F2F2"/>
<path id="path54" d="M12.1619 26.8508C12.1674 25.3746 12.6868 24.1842 13.6042 23.3943C13.6947 24.9337 13.1234 26.145 12.1619 26.8508Z" fill="#F2F2F2"/>
<path id="path56" d="M11.5455 23.6936C11.4633 22.2205 11.9107 21.0004 12.7792 20.1567C12.9614 21.6885 12.4635 22.9314 11.5455 23.6936Z" fill="#F2F2F2"/>
<path id="path58" d="M10.7423 20.5791C10.572 19.1127 10.9454 17.8672 11.7616 16.9716C12.0358 18.4916 11.6129 19.7629 10.7423 20.5791Z" fill="#F2F2F2"/>
<path id="path60" d="M9.7536 18.2793C8.51652 17.6766 8.37374 15.7131 8.31641 14.5368C9.12144 15.3458 10.3718 17.0282 9.7536 18.2793" fill="#F2F2F2"/>
<path id="path62" d="M10.2573 33.534C11.3423 34.0029 12.1429 35.0229 12.3651 36.4839C11.3091 35.927 10.5582 34.915 10.2573 33.534Z" fill="#F2F2F2"/>
<path id="path64" d="M10.042 30.4709C11.153 30.8724 12.0127 31.8405 12.3218 33.2814C11.2344 32.7905 10.4246 31.8282 10.042 30.4709Z" fill="#F2F2F2"/>
<path id="path66" d="M9.64526 27.4318C10.7784 27.7657 11.6939 28.6789 12.0881 30.0952C10.9733 29.6715 10.108 28.7621 9.64526 27.4318Z" fill="#F2F2F2"/>
<path id="path68" d="M9.06909 24.4246C10.2198 24.6894 11.1881 25.5456 11.6658 26.934C10.5279 26.5789 9.61009 25.7238 9.06909 24.4246Z" fill="#F2F2F2"/>
<path id="path70" d="M8.31396 21.4577C9.47842 21.6531 10.4963 22.45 11.0558 23.8066C9.89898 23.5205 8.93169 22.7227 8.31396 21.4577Z" fill="#F2F2F2"/>
<path id="path72" d="M7.38184 18.5388C8.55609 18.6644 9.62002 19.3999 10.2599 20.7213C9.08773 20.5048 8.07459 19.7659 7.38184 18.5388Z" fill="#F2F2F2"/>
<path id="path74" d="M12.7173 39.7314C13.0739 38.2841 13.8602 37.2441 14.9386 36.6907C14.6619 38.218 13.8191 39.2695 12.7173 39.7314Z" fill="#F2F2F2"/>
<path id="path76" d="M10.2886 36.6127C11.3437 37.1476 12.0816 38.2173 12.2154 39.6946C11.1947 39.0732 10.5063 38.0134 10.2886 36.6127Z" fill="#F2F2F2"/>
<path id="path78" d="M41.4608 12.2757C41.8115 12.883 42.1638 13.3141 41.5896 14.549C38.3739 21.5547 36.8069 29.2205 37.0129 36.9491C37.0875 39.2423 35.8953 40.4139 34.7967 41.9323C34.8762 42.5962 34.9703 43.2596 35.0751 43.9222L33.9871 44.1129C33.8788 43.4294 33.782 42.7453 33.7 42.0607C32.3404 40.8616 30.8415 39.7263 30.7575 37.0977C30.529 28.4109 32.2924 19.7897 35.9135 11.9078C36.5621 10.5155 37.099 10.5736 37.8565 10.4261C37.0132 12.0876 36.2566 13.7861 35.5878 15.5152C35.5878 15.5152 35.6669 15.7348 35.789 16.0554C35.9449 15.7273 36.1378 15.4077 36.3508 15.106C37.0088 13.463 37.748 11.8488 38.5663 10.2694C39.2608 8.94556 39.7922 9.03279 40.5496 8.93269C39.7778 10.2898 39.0675 11.6758 38.4198 13.0869C38.6553 12.9443 38.8289 12.8812 38.8977 12.9136C38.9663 12.946 39.0275 13.1208 39.0738 13.391C39.7126 11.999 40.4133 10.6316 41.1745 9.29283C41.4842 9.99939 41.8172 10.3818 41.162 11.6315C40.3877 13.1262 39.6886 14.6536 39.066 16.2085C39.0186 16.5566 38.9526 16.9026 38.8598 17.232C39.1574 17.0887 39.3585 16.9939 39.3584 16.9939C39.9783 15.3906 40.6797 13.8159 41.4608 12.2757" fill="#393939"/>
<path id="path80" d="M31.5869 33.3328C32.6307 33.9477 33.3533 35.0303 33.6221 36.491C32.55 35.965 31.772 34.8692 31.5869 33.3328Z" fill="#F2F2F2"/>
<path id="path82" d="M31.8225 29.9913C32.8272 30.6667 33.4845 31.7882 33.6657 33.2581C32.6269 32.6704 31.9156 31.5329 31.8225 29.9913Z" fill="#F2F2F2"/>
<path id="path84" d="M32.2559 26.6757C33.219 27.409 33.8082 28.5668 33.9018 30.0419C32.8997 29.3939 32.2575 28.218 32.2559 26.6757Z" fill="#F2F2F2"/>
<path id="path86" d="M32.8861 23.3943C33.8036 24.1842 34.3229 25.3746 34.3285 26.8508C33.3671 26.145 32.7955 24.9337 32.8861 23.3943Z" fill="#F2F2F2"/>
<path id="path88" d="M33.7112 20.1567C34.5794 21.0004 35.027 22.2205 34.9446 23.6936C34.0266 22.9314 33.5287 21.6885 33.7112 20.1567Z" fill="#F2F2F2"/>
<path id="path90" d="M34.729 16.9716C35.5452 17.8672 35.9182 19.1127 35.748 20.5791C34.8774 19.7629 34.4546 18.4916 34.729 16.9716Z" fill="#F2F2F2"/>
<path id="path92" d="M38.1735 14.5368C38.1161 15.7131 37.9734 17.6766 36.7366 18.2793C36.1181 17.0282 37.3688 15.3458 38.1735 14.5368Z" fill="#F2F2F2"/>
<path id="path94" d="M34.1252 36.4839C34.3476 35.0229 35.1482 34.0029 36.2332 33.534C35.9323 34.915 35.1815 35.927 34.1252 36.4839Z" fill="#F2F2F2"/>
<path id="path96" d="M34.1682 33.2814C34.4775 31.8405 35.3373 30.8724 36.4482 30.4709C36.0655 31.8282 35.2556 32.7905 34.1682 33.2814Z" fill="#F2F2F2"/>
<path id="path98" d="M34.4019 30.0952C34.7961 28.6789 35.7116 27.7657 36.8447 27.4318C36.3819 28.7621 35.5167 29.6715 34.4019 30.0952Z" fill="#F2F2F2"/>
<path id="path100" d="M34.825 26.934C35.3028 25.5456 36.271 24.6894 37.4219 24.4246C36.8808 25.7238 35.9629 26.5789 34.825 26.934Z" fill="#F2F2F2"/>
<path id="path102" d="M35.4348 23.8066C35.9943 22.45 37.0122 21.6531 38.1766 21.4577C37.559 22.7227 36.5916 23.5205 35.4348 23.8066Z" fill="#F2F2F2"/>
<path id="path104" d="M36.2302 20.7213C36.8702 19.3999 37.9339 18.6644 39.1082 18.5388C38.4154 19.7659 37.4024 20.5048 36.2302 20.7213" fill="#F2F2F2"/>
<path id="path106" d="M31.5518 36.6907C32.6302 37.2441 33.4165 38.2841 33.7731 39.7314C32.6713 39.2695 31.8287 38.218 31.5518 36.6907Z" fill="#F2F2F2"/>
<path id="path108" d="M34.2747 39.6946C34.4083 38.2173 35.1464 37.1476 36.2014 36.6127C35.9837 38.0134 35.2953 39.0732 34.2747 39.6946Z" fill="#F2F2F2"/>
<path id="path110" d="M40.2799 26.262C40.2799 27.7091 39.1103 28.8825 37.6676 28.8825H29.0627H26.217H8.82331C7.38051 28.8825 6.21094 27.7091 6.21094 26.262L6.21965 26.6205V34.6453C6.21965 36.4276 7.66021 37.8727 9.43711 37.8727C10.8286 37.8727 35.6618 37.8727 37.0536 37.8727C38.8307 37.8727 40.2711 36.4276 40.2711 34.6453V26.6205L40.2799 26.262" fill="#F2F2F2"/>
<path id="path112" d="M6.97963 29.0937V34.6453C6.97963 36.0043 8.08201 37.1099 9.43675 37.1099H37.0532C38.4081 37.1099 39.5105 36.0043 39.5105 34.6453V29.0937C38.9803 29.4422 38.3469 29.6448 37.6672 29.6448H8.82295C8.14309 29.6448 7.5098 29.4422 6.97963 29.0937V29.0937ZM37.0532 38.6351H9.43675C7.24342 38.6351 5.45896 36.8454 5.45896 34.6453V26.6297L5.45379 26.4198C5.45151 26.3674 5.4502 26.3148 5.4502 26.262L6.97069 26.2434L6.97352 26.3624C7.02568 27.3402 7.83519 28.1197 8.82295 28.1197H37.6672C38.6885 28.1197 39.5192 27.2865 39.5192 26.262H41.04C41.04 26.3829 41.0336 26.5025 41.0211 26.6204H41.0311V34.6453C41.0311 36.8454 39.2468 38.6351 37.0532 38.6351" fill="#393939"/>
<path id="path114" d="M2.07911 32.2797L2.04595 32.2758L1.98697 32.2832L1.96116 32.2758H1.89479L1.87257 32.2832L1.83571 32.2797L1.80631 32.2758H1.77674L1.75093 32.2832L1.72148 32.2758L1.6918 32.2797H1.60338L1.58116 32.2758H1.52219L1.48914 32.2832L1.46328 32.2797H1.43377L1.40044 32.2758L1.37845 32.2797L1.34512 32.2832H1.31953L1.25311 32.2758L1.22724 32.2797L1.19773 32.2758H1.0835L1.05387 32.2832H1.02431L0.994797 32.2758L0.968988 32.2797L0.939586 32.2758L0.902777 32.2797L0.876915 32.2758H0.817783L0.784678 32.2797H0.755166L0.736816 32.2498L0.755166 32.213L0.758814 32.187L0.769976 32.1536L0.781084 32.1241L0.788271 32.0724L0.792136 32.0428L0.788271 32.0095L0.792136 31.9836V31.9245L0.788271 31.895L0.792136 31.8652L0.784678 31.8357V31.8023L0.788271 31.7766L0.792136 31.7433L0.788271 31.71L0.784678 31.6842L0.788271 31.6545L0.784678 31.6249L0.792136 31.599L0.788271 31.5694V31.5361L0.792136 31.5102V31.4806L0.788271 31.4473L0.792136 31.4178L0.788271 31.3882L0.792136 31.3622L0.784678 31.3288L0.788271 31.2955L0.792136 31.2734L0.784678 31.2438L0.792136 31.2105L0.788271 31.181L0.784678 31.1477L0.792136 31.1256L0.788271 31.0921L0.784678 31.0662L0.792136 31.0329L0.788271 31.0035V30.9443L0.784678 30.911L0.792136 30.8888L0.784678 30.8518V30.8258L0.788271 30.7926L0.784678 30.763L0.792136 30.7334L0.784678 30.7114L0.792136 30.6781L0.784678 30.6446L0.792136 30.6151V30.5559L0.788271 30.5299V30.5004L0.784678 30.4743V30.4115L0.792136 30.3783V30.356L0.788271 30.3228L0.792136 30.2895L0.784678 30.2378L0.788271 30.2046L0.784678 30.1748L0.788271 30.1417V30.1121L0.784678 30.0898L0.788271 30.0602L0.784678 30.0307L0.792136 29.964L0.784678 29.9419L0.792136 29.9124L0.788271 29.8752L0.784678 29.853L0.792136 29.8199L0.784678 29.7865V29.7052L0.792136 29.6718L0.784678 29.62L0.766219 29.5867L0.762462 29.5534L0.755166 29.5239L0.744058 29.4979L0.755166 29.4722L0.788271 29.4684H0.843647L0.876915 29.4722H0.906316L0.939586 29.4684L0.961638 29.4722L0.998554 29.4648L1.02431 29.4722L1.05763 29.4684H1.07968L1.11295 29.4722L1.135 29.4648L1.16452 29.4722L1.20143 29.4648L1.22354 29.4684L1.25311 29.4648H1.34148L1.37104 29.4684L1.40796 29.4722H1.42636L1.45576 29.4684L1.48914 29.4648H1.57751L1.60703 29.4722L1.64029 29.4648H1.6661L1.6918 29.4722H1.72877L1.75458 29.4684L1.78034 29.4722H1.83571L1.90219 29.4648L1.92419 29.4722L1.9537 29.4648H1.98697L2.02013 29.4684L2.04229 29.4648L2.0754 29.4684H2.10485L2.14183 29.4979V29.5203V29.5498L2.15658 29.5867L2.15293 29.6126L2.15658 29.6351L2.16769 29.6646L2.17494 29.7013L2.17134 29.7273L2.17863 29.7532L2.18609 29.7828V29.8087L2.18974 29.842L2.19356 29.8641L2.20445 29.8975L2.20825 29.9233V29.9528L2.18609 29.9788L2.16769 29.964L2.13442 29.9602L2.10485 29.9528L2.0754 29.9492L2.05705 29.9345L1.99062 29.9271H1.93165L1.90584 29.9345H1.87257L1.84306 29.9271L1.8135 29.9345H1.78774L1.75834 29.9271L1.72148 29.9307H1.63289L1.60338 29.9345H1.57751L1.54446 29.9271L1.51854 29.9345L1.48163 29.9307L1.45958 29.9271H1.40044L1.37104 29.9307L1.33788 29.9271L1.28975 29.9457L1.26781 29.9714L1.24951 30.0083V30.075L1.25311 30.0973L1.2567 30.1305L1.24951 30.1639L1.2567 30.1823L1.25311 30.2119V30.245L1.2567 30.2784V30.3044L1.24951 30.3341V30.3599L1.2567 30.3931V30.4189L1.25311 30.4522L1.2567 30.4819L1.24951 30.5115V30.5336L1.26781 30.5891L1.33423 30.6226L1.37104 30.6261H1.42271L1.45958 30.6187H1.51854L1.57027 30.6077L1.60703 30.5965L1.63289 30.5891L1.6661 30.5817L1.69561 30.5671L1.72518 30.5929L1.72877 30.6151L1.72148 30.6742L1.72518 30.7114L1.72877 30.7334L1.72148 30.763L1.72518 30.8L1.72148 30.8223L1.72877 30.8555V30.8888L1.72148 30.9183V30.9478L1.72518 30.974L1.72148 30.9997L1.72877 31.0329L1.72148 31.0589L1.72518 31.0884V31.1216L1.68821 31.144L1.66234 31.1293L1.63648 31.1216L1.59978 31.1145L1.57027 31.1033L1.51495 31.0921L1.48914 31.0961L1.45217 31.0921L1.43007 31.0884L1.39315 31.0961L1.36734 31.0921H1.33423L1.28615 31.1107L1.27505 31.1256L1.24951 31.1736L1.2567 31.1959L1.25311 31.2326V31.2624L1.24951 31.2883L1.2567 31.3141V31.3436L1.24951 31.3772V31.4065L1.25311 31.4288V31.4841L1.24951 31.5175V31.6063L1.25311 31.6285L1.2567 31.6618V31.7247L1.27145 31.769L1.28615 31.7911L1.34148 31.8062L1.37104 31.8023L1.39315 31.8097L1.43007 31.8023L1.45217 31.8097L1.48163 31.8062L1.51495 31.8097L1.5517 31.8023L1.58116 31.8097L1.61084 31.8062L1.63648 31.8097L1.66981 31.8023L1.69561 31.8097L1.72148 31.8062L1.75458 31.8023L1.79155 31.8097L1.8172 31.8062L1.84687 31.8097L1.87257 31.8023L1.90949 31.8097L1.93165 31.8023L1.96116 31.8097H1.99062L2.04953 31.7951L2.07911 31.7911L2.10485 31.784L2.13078 31.7728L2.16769 31.7654L2.18609 31.758L2.20825 31.7728V31.8097V31.8393L2.20085 31.8617L2.19714 31.8985L2.18609 31.9281L2.18974 31.9538L2.17494 31.98L2.17863 32.0095L2.17134 32.0428L2.16023 32.0686V32.1055L2.15293 32.1315V32.1576L2.14183 32.187L2.13824 32.2242L2.13442 32.2462L2.10126 32.272L2.07911 32.2797" fill="#393939"/>
<path id="path116" d="M3.87821 30.2377L3.88937 30.2708L3.90032 30.297L3.90772 30.3301L3.89302 30.3599L3.86722 30.3525L3.834 30.356L3.80813 30.3599L3.77873 30.356H3.69009L3.65699 30.3525L3.62742 30.3599H3.59426L3.5647 30.3525L3.54269 30.3599L3.51318 30.3525H3.48356L3.44676 30.3599L3.42094 30.356H3.39144L3.35816 30.3525L3.33976 30.3301L3.35446 30.297L3.35816 30.2708L3.37667 30.2377V30.2046L3.38773 30.1491L3.39509 30.1155V30.0529L3.38773 30.0195L3.37667 29.9752L3.35816 29.9602L3.30666 29.9419H3.27333L3.24393 29.9457L3.21796 29.9419L3.18132 29.9457H3.12213L3.09261 29.9381L3.06681 29.9457H3.04116L3.00789 29.9419L2.95616 29.9528L2.93787 29.9752L2.923 30.0195L2.91942 30.0564V30.086L2.92665 30.1084L2.923 30.1417L2.91942 30.1712L2.92665 30.2005L2.91942 30.2267V30.2598L2.923 30.2894V30.3154L2.92665 30.3451L2.91942 30.382L2.92665 30.4411L2.923 30.4632L2.91942 30.5004L2.923 30.5299V30.5559L2.93787 30.6002L2.96362 30.6226L3.00789 30.6445L3.04116 30.6409L3.06321 30.6445H3.09261L3.12213 30.6409L3.15545 30.6373L3.21437 30.6445L3.24393 30.6373L3.27715 30.6445H3.35816L3.38773 30.6409L3.42465 30.6373L3.44676 30.6445L3.47991 30.6409L3.50578 30.6373L3.54269 30.6409L3.5721 30.6445L3.59801 30.6373L3.64228 30.6595L3.66808 30.6781L3.68644 30.7002L3.70484 30.7258L3.727 30.7481L3.74922 30.763L3.77873 30.7926L3.79702 30.8036L3.81924 30.8257L3.83769 30.8517L3.8524 30.9036V30.9257L3.85605 30.9629V30.9851L3.8597 31.0217V31.0737L3.85605 31.1107L3.8597 31.1365L3.8524 31.1661L3.8597 31.1919L3.8524 31.2291V31.3731L3.85605 31.3992L3.8524 31.4325V31.4545L3.8597 31.488L3.85605 31.5175L3.8524 31.5507V31.6026L3.85605 31.6397L3.8597 31.658V31.6952L3.8524 31.7209V31.7544L3.85605 31.7839L3.8597 31.8062L3.85605 31.8429L3.8597 31.8725L3.8524 31.9021V31.9576L3.85605 31.9836L3.8597 32.0205L3.83769 32.0686L3.81189 32.0872L3.78962 32.1093L3.77487 32.1315L3.74922 32.15L3.73429 32.1758L3.70484 32.1943L3.69009 32.213L3.67168 32.2389L3.64228 32.2537L3.60166 32.2758L3.5721 32.272L3.50578 32.2797L3.48356 32.2758H3.44676L3.42465 32.272L3.39144 32.2758L3.36562 32.272L3.3324 32.2758L3.31031 32.2797H3.27333L3.24753 32.272L3.22188 32.2797L3.1849 32.2758L3.15904 32.272L3.12959 32.2758L3.09643 32.272L3.07062 32.2797L3.04476 32.2758H2.98584L2.96004 32.2797L2.93047 32.272L2.8972 32.2758H2.8641L2.83828 32.272L2.80512 32.2797H2.78296L2.74599 32.272H2.72019L2.66867 32.2573L2.64647 32.2314L2.6244 32.213L2.60225 32.1908L2.57998 32.1722L2.56527 32.1536L2.53947 32.1315L2.49525 32.0909L2.47686 32.0613L2.45464 32.0095L2.44733 31.9836L2.45464 31.9576V31.9206L2.45098 31.8949L2.44733 31.8652L2.45464 31.8357L2.45098 31.8062V31.7136L2.45464 31.6841L2.45098 31.6617V31.6285L2.45464 31.599L2.44353 31.5435L2.43264 31.5102L2.42882 31.4768L2.41037 31.4545L2.40308 31.4251L2.42518 31.3881L2.45098 31.3919H2.51742L2.54327 31.3881H2.57638L2.60225 31.3953H2.6317L2.66116 31.3881L2.69449 31.3953L2.71288 31.3919H2.86769L2.8972 31.3953L2.923 31.3881L2.95616 31.3953L2.97092 31.4178L2.96004 31.4545L2.95252 31.4805L2.94516 31.5102L2.93411 31.5397L2.92665 31.599V31.658L2.91942 31.6988L2.923 31.7283L2.94516 31.7765L2.96362 31.7911L3.01149 31.8022L3.04116 31.8062L3.06321 31.8097H3.09643L3.12959 31.8022H3.21437L3.24753 31.8062L3.26968 31.8022L3.30284 31.8062L3.35446 31.7876L3.37292 31.769L3.38773 31.7209L3.39509 31.6692V31.6357L3.39144 31.6026V31.5768L3.39509 31.547L3.38773 31.5212V31.4545L3.39144 31.4287L3.38773 31.3992V31.3399L3.39509 31.3104L3.38773 31.2809L3.39509 31.2511L3.38773 31.2254L3.39509 31.1958L3.36927 31.1439L3.35446 31.1292L3.30284 31.107L3.27715 31.1107L3.25133 31.107H3.1849L3.15545 31.1107L3.13323 31.107H3.10007L3.07432 31.1032L3.04476 31.1107H3.01149L2.98943 31.1032H2.90089L2.86769 31.1107L2.83453 31.1032L2.80512 31.1107H2.74981L2.72019 31.107L2.66867 31.0884L2.64999 31.07L2.6244 31.0441L2.60583 31.0182L2.56527 30.981L2.53947 30.9629L2.51377 30.9331L2.49155 30.9148L2.47686 30.8888L2.45464 30.8443L2.45098 30.8185L2.45464 30.7814V30.7519L2.45098 30.7224L2.45464 30.7002L2.44733 30.6668L2.45464 30.6335L2.45098 30.604L2.45464 30.5816V30.5152L2.45098 30.4856L2.45464 30.4632L2.44733 30.4263L2.45464 30.4006L2.45098 30.367L2.44733 30.3413L2.45098 30.308L2.45464 30.282V30.2527L2.45098 30.2303V30.1934L2.44733 30.1639L2.45464 30.1417L2.44733 30.1045V30.0157L2.45098 29.9935L2.44733 29.964L2.45098 29.9345L2.44733 29.9012L2.45464 29.8716L2.44733 29.8123L2.45098 29.7792L2.45464 29.7497L2.45098 29.7273L2.47326 29.6792L2.49525 29.6497L2.51377 29.635L2.53582 29.6164L2.55798 29.5866L2.57998 29.5757L2.60583 29.5534L2.6244 29.5311L2.65398 29.5128L2.67597 29.4905L2.71654 29.4722L2.74599 29.4684L2.78296 29.4647L2.80512 29.4722L2.83828 29.4684L2.86769 29.4647H2.8972L2.92665 29.4722H2.98943L3.01149 29.4647L3.04476 29.4684H3.07062L3.09643 29.4647L3.126 29.4684L3.16279 29.4722L3.18855 29.4684L3.22188 29.4647L3.24753 29.4684H3.28079L3.31031 29.4647L3.3324 29.4722H3.35816L3.39144 29.4684L3.41735 29.4647H3.45399L3.48356 29.4722L3.50937 29.4647H3.5685L3.59801 29.4684L3.64588 29.4833L3.66808 29.5053L3.69009 29.5311L3.70484 29.546L3.727 29.5683L3.74922 29.5903L3.77873 29.6089L3.79702 29.6385L3.84129 29.6792L3.86345 29.7311V29.7532L3.85605 29.7903V29.8198L3.86345 29.8457L3.8597 29.8752V29.9086L3.85605 29.9345L3.8597 29.964V30.0529L3.85605 30.086L3.8597 30.112L3.85605 30.1417L3.86345 30.2046L3.87821 30.2377" fill="#393939"/>
<path id="path118" d="M2.19158 33.1092L2.19909 33.135L2.19533 33.1648L2.20269 33.1979L2.20628 33.2202L2.21738 33.2535L2.21385 33.283L2.22854 33.3126V33.3347V33.3679L2.2396 33.4014V33.4235L2.2469 33.4607L2.25441 33.4864L2.26159 33.5124V33.5455L2.2433 33.5679L2.20628 33.5641L2.17687 33.5567L2.15107 33.5455L2.12155 33.5419L2.09955 33.5345L2.04424 33.5196L2.01086 33.5236L1.98505 33.5272L1.95554 33.5236L1.91878 33.5272H1.89297L1.86346 33.5196H1.83014L1.80809 33.5236L1.77123 33.5196H1.74171L1.6901 33.5531L1.66423 33.6011L1.66783 33.6307L1.67164 33.664L1.66783 33.6936V33.7491L1.66423 33.7861L1.67164 33.8157V33.8675L1.66423 33.9044V33.9268L1.66783 33.9635L1.66423 33.9859L1.67164 34.0192L1.66423 34.0524L1.67164 34.0745L1.66783 34.1116L1.67164 34.1411V34.1671L1.66783 34.2002V34.2852L1.67164 34.3188L1.66423 34.3446V34.3779L1.67164 34.437L1.66423 34.4591L1.67164 34.5184L1.66423 34.5479V34.6109L1.66783 34.6404L1.66423 34.6775L1.66783 34.6997L1.67164 34.7329L1.66423 34.7626L1.66783 34.7882L1.66423 34.8181V34.8809L1.66783 34.9069L1.67164 34.9438L1.66783 34.9698V34.9956L1.67164 35.025V35.1174L1.66423 35.1436V35.2028L1.66783 35.2397V35.2951L1.66423 35.3246L1.67164 35.3544V35.3801L1.66423 35.4098L1.66783 35.4432V35.4727L1.66423 35.5023L1.66783 35.5356V35.5873L1.67164 35.6171L1.66783 35.6539L1.67534 35.7131L1.6901 35.7353L1.69369 35.7724L1.7012 35.7947L1.71955 35.8314L1.7012 35.8537H1.67164L1.64224 35.8573L1.60521 35.8611H1.5831L1.55359 35.8573H1.49462L1.46152 35.8611L1.43179 35.8573H1.39863L1.37288 35.8611L1.34707 35.8537H1.31756L1.28439 35.8573L1.25859 35.8537L1.22913 35.8611L1.19216 35.8537L1.16276 35.8573L1.1443 35.8278L1.1554 35.8019L1.17386 35.7724V35.7353L1.19216 35.7131L1.19581 35.6466L1.20327 35.6244L1.19967 35.5946L1.19581 35.5615V35.5356L1.20327 35.4986L1.19967 35.4766L1.20327 35.4394V35.4134L1.19581 35.3839L1.19967 35.3579L1.19581 35.3284L1.20327 35.2988V35.1731L1.19581 35.151L1.19967 35.1212V35.0843L1.19581 35.0548L1.19967 35.025L1.19581 35.0029V34.9402L1.20327 34.9069L1.19581 34.8773V34.8514L1.19967 34.8216L1.19581 34.7882L1.20327 34.7292L1.19967 34.7032V34.67L1.20327 34.6477L1.19581 34.6072L1.19967 34.5851L1.20327 34.5556L1.19967 34.5184L1.19581 34.4963L1.20327 34.4629L1.19967 34.437L1.20327 34.4074L1.19581 34.3741V34.3408L1.19967 34.315L1.20327 34.2852V34.2598L1.19581 34.2299V34.1411L1.20327 34.104L1.19581 34.0782L1.19967 34.0524V34.0228L1.19581 33.993L1.20327 33.9635L1.19581 33.934L1.20327 33.9006L1.19967 33.8711V33.8415L1.19581 33.8082V33.7861L1.20327 33.7491L1.19967 33.7194L1.20327 33.6972L1.19967 33.664L1.19581 33.6345V33.6084L1.18105 33.5531L1.159 33.5382L1.11484 33.5272L1.07787 33.5236H1.05571L1.02625 33.5272L0.993146 33.5236L0.963634 33.5272L0.930311 33.5196L0.904666 33.5272L0.878748 33.5196L0.841831 33.5272L0.816023 33.5236L0.731245 33.5345L0.701788 33.5419L0.672222 33.5531L0.650116 33.5567L0.616901 33.5679L0.598389 33.5419L0.6022 33.5196V33.4864L0.609496 33.4568L0.616901 33.4309V33.3978L0.620604 33.3642L0.63536 33.3384L0.639008 33.3126L0.642819 33.2867V33.2572L0.653709 33.2274V33.1906V33.1648L0.66841 33.135V33.1015V33.0795L0.701788 33.05L0.73865 33.0463H0.790213L0.819671 33.0426L0.852939 33.0463L0.886098 33.0426L0.915556 33.0463L0.941419 33.0426L0.970877 33.05L1.00039 33.0426H1.03366L1.05571 33.05L1.09257 33.0426L1.12214 33.05H1.1443L1.17746 33.0463L1.20327 33.05H1.23278L1.26218 33.0426L1.29556 33.0463L1.32501 33.0426H1.35088L1.38393 33.0463H1.41709L1.4393 33.05H1.47622L1.49822 33.0426H1.53519L1.56465 33.0463L1.59421 33.0426H1.61997L1.65313 33.05L1.71226 33.0426L1.73807 33.0463L1.77123 33.0426L1.79704 33.05L1.85611 33.0426H1.94084L1.97775 33.0463H2.00362L2.03308 33.05L2.06624 33.0463L2.09198 33.0426L2.12155 33.05L2.15487 33.0463L2.18047 33.0721L2.19158 33.1092" fill="#393939"/>
<path id="path120" d="M3.40426 34.6886L3.35617 34.6626L3.33418 34.6663H3.30461L3.27145 34.6626L3.24565 34.6663H3.21255L3.18298 34.67L3.15717 34.6626L3.12014 34.67H3.06499L3.01697 34.6849L2.99844 34.6997L2.97645 34.744L2.97275 34.7735V34.8071L2.9801 34.8366V34.8625L2.97275 34.8992L2.9801 34.9252L2.97275 34.9512L2.9801 34.9807V35.0363L2.97275 35.0697V35.0993L2.97645 35.1252L2.97275 35.1511L2.9801 35.1808V35.2101L2.97645 35.2435V35.3027L2.99121 35.3507L3.01315 35.3728L3.06499 35.3912H3.12385L3.15351 35.3839L3.18298 35.3878H3.23829L3.27145 35.3839L3.29727 35.3912L3.32678 35.3878L3.3637 35.3839L3.4079 35.3728L3.42261 35.3544L3.44488 35.3027V35.2471L3.44848 35.214L3.44488 35.1842V35.1547L3.44848 35.1252L3.44106 35.0954L3.44488 35.0697L3.44848 35.0363L3.44106 35.0142L3.44848 34.9807L3.44106 34.9547L3.44848 34.9252L3.44488 34.892L3.44848 34.8698L3.44106 34.8403V34.8034L3.44848 34.7735L3.44106 34.7515L3.42626 34.6997L3.40426 34.6886ZM2.9801 33.6269L2.97275 33.6565L2.9801 33.6862L2.97275 33.7084V33.7972L2.9801 33.8267L2.97275 33.8527V33.9082L2.9801 33.9673L2.97275 34.0006L2.9801 34.0266L2.97275 34.0597V34.0819L2.9801 34.119L2.99844 34.1597L3.01697 34.1819L3.06858 34.1965H3.09433L3.12766 34.2002H3.15717L3.18298 34.1965L3.20884 34.2002L3.24565 34.1965L3.27145 34.2002L3.33043 34.1931H3.3637L3.4115 34.1745L3.42261 34.1633L3.44848 34.1152L3.44488 34.0892L3.44848 34.0597V34.0228L3.44106 34.0042L3.44848 33.9711V33.9414L3.44106 33.9082L3.44848 33.8861L3.44106 33.8563L3.44848 33.7972L3.44106 33.7676L3.44488 33.7344V33.7157L3.44106 33.6789V33.6529L3.44488 33.6234V33.59L3.42261 33.5455L3.4079 33.5309L3.35994 33.5088H3.33418L3.30461 33.5124L3.27145 33.516L3.24565 33.5088L3.20884 33.516H3.14971L3.12766 33.5088H3.0982L3.06858 33.5124L3.01697 33.5345L2.9948 33.5531L2.97645 33.5974L2.9801 33.6269ZM2.49697 33.172L2.48216 33.1425L2.47857 33.1128L2.46387 33.0833L2.48216 33.0501L2.50808 33.0538H2.54505L2.56699 33.0501H2.60391L2.63348 33.0463H2.65558L2.71455 33.0538H2.74406L2.77352 33.0463L2.80309 33.0501H2.82883L2.86222 33.0463L2.89538 33.0538L2.92114 33.0501L2.95428 33.0538L2.98375 33.0501H3.00961L3.03542 33.0463L3.07228 33.0538L3.09433 33.0501L3.12766 33.0463H3.14971L3.18298 33.0501H3.20884L3.23829 33.0463L3.27505 33.0501L3.29727 33.0463L3.33418 33.0538L3.35617 33.0463H3.38204L3.41901 33.0501H3.47047L3.5075 33.0463L3.53331 33.0538L3.56642 33.0501H3.59598L3.62178 33.0538L3.6476 33.0463L3.69562 33.0684L3.72126 33.0944L3.74712 33.1092L3.7694 33.1351L3.7877 33.1572L3.8099 33.1684L3.82461 33.198L3.85052 33.2166L3.87634 33.235L3.89104 33.2609L3.91309 33.3052L3.92055 33.3421L3.91309 33.368V33.4014L3.9169 33.4235L3.92055 33.4531L3.9169 33.4902L3.92055 33.5197L3.9169 33.5455L3.91309 33.5791L3.92055 33.638V33.6641L3.9169 33.6972L3.92055 33.7234V33.7491L3.91309 33.7823V33.812L3.9169 33.8453L3.92055 33.8749V33.9044L3.9169 33.9304V33.9635L3.91309 33.9894V34.1411L3.9169 34.1671L3.89839 34.2188L3.86882 34.2373L3.84677 34.2557L3.82461 34.2743L3.80244 34.3002L3.7841 34.3261L3.76563 34.3409L3.74348 34.3596L3.71407 34.3817L3.69562 34.4112V34.4519L3.71407 34.4741L3.73623 34.4889L3.76183 34.5148L3.7841 34.5332L3.80626 34.559L3.82836 34.5739L3.85052 34.6034L3.87252 34.6182L3.89839 34.6404L3.91309 34.6961V34.7256L3.92055 34.7478L3.9169 34.7774V34.8071L3.92055 34.8366V34.8698L3.9169 34.8992L3.92055 34.929L3.91309 34.9547L3.92055 34.9883L3.9169 35.0178L3.92055 35.04V35.1064L3.91309 35.1324V35.2729L3.92055 35.31L3.91309 35.369L3.92055 35.4173L3.9169 35.4468L3.92055 35.4839L3.91309 35.5134L3.92055 35.5429L3.91309 35.569V35.5946L3.89104 35.6466L3.87252 35.6689L3.84677 35.6909L3.82836 35.7132L3.80244 35.7281L3.7915 35.7504L3.76563 35.7798L3.74348 35.7983L3.71767 35.813L3.70291 35.8389L3.655 35.8649L3.61809 35.8611L3.58862 35.8573H3.55917L3.53689 35.8611L3.5075 35.8649L3.47433 35.8611H3.41526L3.38575 35.8573L3.3637 35.8649L3.33043 35.8573H3.27505L3.24189 35.8649H3.21614L3.18298 35.8573L3.14971 35.8649L3.12766 35.8611L3.09075 35.8649L3.06858 35.8611H3.03902L3.00591 35.8573H2.98375L2.95428 35.8649L2.92472 35.8573L2.89161 35.8649L2.85836 35.8611L2.82883 35.8649H2.79938L2.77352 35.8573H2.74771L2.71455 35.8611L2.6888 35.8649L2.65558 35.8611L2.62977 35.8573H2.47857L2.46746 35.8315L2.47105 35.7983L2.48592 35.7649L2.49697 35.7392L2.50078 35.7132L2.51914 35.6466L2.51168 35.6244L2.51914 35.5946V35.5615L2.51168 35.532L2.51548 35.4986L2.51914 35.4727L2.51548 35.4468V35.4173L2.51914 35.3878L2.51168 35.3507V35.3212L2.51914 35.2952L2.51168 35.2657L2.51548 35.2323V35.2028L2.51168 35.1808L2.51548 35.1436L2.51168 35.1212V35.0843L2.51548 35.0548L2.51168 35.0288L2.51548 34.9956L2.51914 34.9734L2.51168 34.9439L2.51914 34.907V34.8809L2.51548 34.8476V34.8254L2.51168 34.7959L2.51548 34.7627V34.7329L2.51914 34.7072L2.51168 34.6739V34.6478L2.51548 34.6182L2.51914 34.5851V34.5295L2.51548 34.5V34.4629L2.51914 34.4371L2.51168 34.4037L2.51548 34.3742V34.3519L2.51914 34.3188V34.2557L2.51548 34.2337V34.1707L2.51914 34.1411L2.51168 34.1116L2.51548 34.0819L2.51914 34.0487V34.0192L2.51548 33.993L2.51168 33.9599V33.9006L2.51548 33.8784L2.51168 33.8415L2.51914 33.7899L2.51168 33.7529L2.51914 33.7267L2.51548 33.701L2.51168 33.6641L2.51548 33.6418L2.51168 33.6084V33.5455L2.51548 33.5197V33.4569L2.51168 33.4309L2.51548 33.3978L2.51168 33.3754V33.3126L2.51914 33.2868V33.2497L2.50808 33.1944L2.49697 33.172" fill="#393939"/>
<path id="path122" d="M43.3863 32.1576L43.3973 32.1833L43.4047 32.2165L43.4194 32.2425L43.3936 32.2758L43.3678 32.272L43.3382 32.2758H43.2794L43.2535 32.2797H43.2165L43.1909 32.2758L43.1613 32.2797L43.1317 32.2758L43.0985 32.2797L43.0763 32.2758L43.0431 32.272H43.0137L42.9843 32.2758L42.9584 32.2797L42.9291 32.272H42.8626L42.8515 32.2497L42.8626 32.2202L42.8663 32.1908L42.8809 32.1536L42.892 32.1315L42.8957 32.0686L42.8994 32.0317L42.9032 32.006L42.8957 31.9724V31.9428L42.8994 31.9206L42.8957 31.8837L42.9032 31.8246L42.8957 31.7951L42.9032 31.7433L42.8994 31.71L42.8957 31.6841L42.9032 31.6507L42.8994 31.6173L42.9032 31.5878L42.8957 31.5619L42.9032 31.5287L42.8957 31.499L42.9032 31.4732L42.8957 31.4435V31.4178L42.8994 31.3807V31.3511L42.9032 31.3215L42.8994 31.2955V31.2366L42.8957 31.2104L42.9032 31.1735L42.8994 31.1439L42.9032 31.1144L42.8957 31.0884L42.9032 31.0551L42.8957 31.0217L42.8994 30.9924V30.9662L42.8957 30.9404V30.848L42.9032 30.8222L42.8994 30.7888L42.8957 30.7592V30.7333L42.8994 30.6963V30.6704L42.8957 30.6409V30.6114L42.8994 30.578L42.8957 30.552L42.8994 30.5189L42.9032 30.4894L42.8994 30.467V30.4301L42.8957 30.4077L42.8994 30.3746L42.8957 30.3451V30.2894L42.8994 30.2562L42.8957 30.2303V30.1934L42.9032 30.1712V30.1341L42.8773 30.086L42.8589 30.0713L42.8183 30.0455L42.7889 30.0529H42.7298L42.6966 30.049L42.6743 30.0269L42.6892 29.99L42.6929 29.964L42.7004 29.9419L42.7189 29.879L42.726 29.8569L42.7336 29.8272L42.7372 29.8014L42.7518 29.7752L42.7556 29.7459L42.7704 29.7162V29.694L42.785 29.657L42.7889 29.6385L42.7998 29.6089L42.8073 29.5794L42.8109 29.5534L42.8221 29.5277L42.8332 29.4905L42.8738 29.4684H42.9584L42.9916 29.4647L43.0175 29.4684L43.0507 29.461H43.0763L43.106 29.4684L43.1392 29.4647L43.1686 29.461H43.1909L43.2241 29.4684L43.2497 29.4647H43.2829L43.3162 29.461H43.3417L43.3714 29.4905L43.3678 29.5239V29.5866L43.3753 29.6125L43.3714 29.6385L43.3753 29.6682L43.3714 29.7013V29.7273L43.3678 29.7568V29.7903L43.3753 29.8235L43.3714 29.8493L43.3753 29.8752V29.9047L43.3678 29.9345L43.3714 29.9714L43.3753 29.9935V30.0269L43.3678 30.0564L43.3753 30.0824L43.3678 30.1491L43.3714 30.1712V30.2639L43.3678 30.297V30.3227L43.3753 30.356L43.3678 30.382L43.3714 30.4115L43.3753 30.4375L43.3714 30.4709L43.3753 30.4965L43.3678 30.5335L43.3714 30.5595V30.589L43.3678 30.6226V30.6483L43.3714 30.6816L43.3678 30.7074V30.7333L43.3753 30.7704L43.3714 30.7962L43.3678 30.8257L43.3714 30.8591V30.8812L43.3753 30.911V30.9478L43.3714 30.9699L43.3678 31.0034L43.3714 31.0366L43.3678 31.0589L43.3753 31.0961V31.1215L43.3714 31.1515L43.3753 31.1772L43.3714 31.2104V31.2401L43.3753 31.2733V31.2955L43.3678 31.3327L43.3753 31.3547V31.4473L43.3678 31.4805L43.3753 31.5063L43.3678 31.5361L43.3753 31.5693L43.3714 31.5914V31.6212L43.3678 31.6545L43.3714 31.6841L43.3753 31.7172V31.7468L43.3714 31.7765L43.3678 31.8022L43.3714 31.8319L43.3678 31.8652V31.9244L43.3714 31.9503L43.3678 31.98L43.3714 32.0131V32.0427L43.3753 32.0724L43.3788 32.1279L43.3863 32.1576" fill="#393939"/>
<path id="path124" d="M44.6842 29.9528L44.6399 29.9381L44.6103 29.9345H44.5808L44.5476 29.9419L44.5182 29.9345L44.4885 29.9381H44.4333L44.3964 29.9419L44.3745 29.9381L44.3374 29.9419L44.2895 29.9602L44.2785 29.9752L44.2563 30.0233L44.2527 30.0455L44.2563 30.0786L44.2527 30.112L44.2598 30.1417L44.2563 30.1639L44.2527 30.1934V30.2303L44.2563 30.2598L44.2527 30.2894L44.2598 30.3154L44.2527 30.3487L44.2598 30.3708L44.2563 30.4006V30.4301L44.2527 30.4597V30.4965L44.2563 30.5265L44.2598 30.552L44.2745 30.5964L44.2931 30.615L44.3448 30.6409H44.4L44.4333 30.6335L44.4555 30.6409H44.5439L44.5808 30.6335L44.6067 30.6373L44.6361 30.6409L44.6877 30.6187L44.7062 30.604L44.721 30.5485L44.7246 30.5265L44.721 30.4965V30.4632L44.7173 30.4337L44.7246 30.4042V30.3746L44.721 30.3413L44.7173 30.3189L44.721 30.2859L44.7173 30.2562L44.721 30.2267L44.7246 30.1934V30.1084L44.721 30.075L44.7246 30.049L44.7173 30.0157L44.7025 29.9714L44.6842 29.9528ZM44.9974 29.5091L45.0197 29.5348L45.0454 29.5534L45.0714 29.5794L45.0861 29.5978L45.1043 29.6125L45.1304 29.642L45.1487 29.6645L45.1746 29.6792L45.1931 29.7273L45.1968 29.7568L45.1892 29.7937L45.1931 29.8159L45.1968 29.853V29.8752L45.1931 29.9086V29.9381L45.1968 29.9714L45.1931 29.9935L45.1892 30.0233V30.0824L45.1931 30.1155V30.1417L45.1968 30.1748L45.1931 30.2082L45.1968 30.2303V30.2598L45.1931 30.2894L45.1892 30.3265L45.1968 30.356L45.1931 30.382V30.4115L45.1968 30.4375L45.1931 30.4709V30.5004L45.1892 30.5299L45.1968 30.5595V30.589L45.1892 30.6226L45.1931 30.6521L45.1892 30.6781V30.7114L45.1931 30.7369L45.1892 30.7704L45.1931 30.7926L45.1968 30.8257L45.1931 30.8517L45.1892 30.8812L45.1968 30.9183V30.9404L45.1931 30.9774L45.1968 31.0034L45.1931 31.0294L45.1968 31.0589L45.1931 31.0961V31.1256L45.1968 31.1515L45.1892 31.1772L45.1931 31.2104L45.1892 31.2401L45.1931 31.2661V31.2955L45.1892 31.3287V31.3881L45.1931 31.4214L45.1968 31.4435L45.1931 31.4805L45.1968 31.5102L45.1931 31.5361V31.6507L45.1968 31.6841L45.1931 31.71L45.1968 31.7468L45.1892 31.769V31.8283L45.1931 31.8652L45.1892 31.8912L45.1968 31.917L45.1892 31.9538L45.1968 31.98V32.006L45.1708 32.0613L45.1561 32.0834L45.1339 32.1055L45.1043 32.1315L45.0825 32.15L45.0714 32.1687L45.0491 32.1908L45.0197 32.213L45.0015 32.2314L44.9827 32.2573L44.9273 32.2758L44.9018 32.272L44.8759 32.2758L44.8465 32.2797L44.8166 32.2758L44.7836 32.2797H44.6658L44.6434 32.2758H44.6103L44.577 32.272L44.555 32.2797L44.5217 32.2758L44.4959 32.2797L44.4665 32.272L44.4297 32.2797L44.4 32.2758L44.378 32.272L44.3448 32.2758L44.3228 32.272L44.2895 32.2758H44.2304L44.1972 32.2797L44.1714 32.272L44.1456 32.2797H44.1126L44.0832 32.272L44.0499 32.2758L44.0055 32.2537L43.9832 32.2351L43.9613 32.213L43.9428 32.187L43.9243 32.1648L43.8986 32.1463L43.8801 32.1279L43.8618 32.102L43.8324 32.0834L43.8175 32.0648L43.7916 32.006L43.7953 31.9761V31.9244L43.799 31.8912L43.7953 31.8617L43.799 31.8357V31.7988L43.7916 31.7728L43.799 31.7433L43.7916 31.7136L43.7953 31.68V31.6248L43.799 31.5951L43.7804 31.5361L43.773 31.5102L43.7619 31.4805L43.74 31.4214L43.7619 31.3881H43.7879L43.8213 31.3919L43.8543 31.3881H43.8801L43.9133 31.3842L43.9392 31.3881L43.9724 31.3842H43.998L44.0313 31.3881L44.0532 31.3842H44.0903L44.1197 31.3881L44.1456 31.3842L44.175 31.3881H44.2046L44.2378 31.3919L44.2637 31.3842H44.2931L44.3151 31.4178L44.3005 31.4435L44.2931 31.4732L44.2785 31.5063L44.2674 31.5324L44.2563 31.6026L44.2527 31.6248V31.6545L44.2563 31.6841V31.7172L44.2785 31.769L44.2931 31.7876L44.3448 31.8022L44.367 31.8062L44.4039 31.7988H44.4259L44.4629 31.8062L44.485 31.7988H44.5182L44.5476 31.8062L44.5734 31.7988L44.6103 31.8062H44.6361L44.6877 31.7839L44.7062 31.769L44.7246 31.7172L44.721 31.6877L44.7246 31.6655V31.6063L44.7284 31.5693V31.5397L44.721 31.5175L44.7246 31.488L44.7284 31.451V31.3363L44.7246 31.3104L44.7284 31.2809L44.7246 31.2548L44.7284 31.2254L44.721 31.1958L44.7025 31.1477L44.6842 31.1256L44.6434 31.107H44.614L44.5847 31.1107L44.5253 31.1032H44.4591L44.4333 31.107L44.4039 31.1107L44.3705 31.107H44.3448L44.3228 31.1032L44.2857 31.107H44.2563L44.2304 31.1032L44.2046 31.107L44.1678 31.1032L44.1085 31.1107L44.0867 31.1032H44.0499L44.0055 31.0849L43.987 31.07L43.9576 31.0478L43.9392 31.0182L43.9243 30.996L43.9024 30.9774L43.8727 30.9629L43.8543 30.9367L43.8357 30.9148L43.8101 30.8888L43.7953 30.8443L43.799 30.8185L43.7916 30.7888L43.799 30.7555L43.7953 30.7297V30.7002L43.799 30.6668L43.7916 30.6335V30.5816L43.7953 30.5485L43.799 30.5224L43.7953 30.4929V30.4632L43.7916 30.4375L43.7953 30.4042L43.7916 30.3746L43.7953 30.3451V30.282L43.799 30.2639L43.7916 30.2267L43.799 30.2046V30.1674L43.7953 30.1417L43.799 30.1155V30.0529L43.7953 30.0269L43.799 29.99L43.7953 29.9678L43.7916 29.9345L43.799 29.9124L43.7953 29.879V29.8493L43.799 29.8198V29.7903L43.7916 29.7606V29.7311L43.8136 29.683L43.8357 29.6606L43.8618 29.6385L43.8986 29.5978L43.9243 29.5718L43.9428 29.5497L43.9647 29.5311L43.9832 29.5091L44.0055 29.487L44.0532 29.4684H44.0832L44.1126 29.4647H44.2046L44.2304 29.461L44.2598 29.4684L44.2931 29.4647L44.3151 29.4684L44.3409 29.461L44.378 29.4647L44.4074 29.4684L44.4333 29.4647H44.4885L44.5217 29.4684H44.5476L44.577 29.461L44.614 29.4647L44.6434 29.461H44.6658L44.6913 29.4647L44.7246 29.4684H44.7504L44.7872 29.4647L44.8095 29.4684H44.872L44.9053 29.461H44.9273L44.9827 29.4905L44.9974 29.5091" fill="#393939"/>
<path id="path126" d="M43.2687 34.6885L43.2208 34.67L43.1875 34.6775H43.136L43.1065 34.67L43.0659 34.6775H43.0365L43.0143 34.6738L42.9849 34.67L42.9478 34.6738L42.9258 34.67L42.8741 34.6923L42.8556 34.7144L42.8409 34.7551L42.8335 34.7921L42.8409 34.8514L42.8335 34.8809L42.8409 34.9032L42.837 34.929V34.9588L42.8335 34.9919L42.8409 35.025V35.0509L42.837 35.0732L42.8335 35.1064V35.1619L42.837 35.1878V35.2213L42.8335 35.247L42.8409 35.2841L42.837 35.3136L42.8631 35.3656L42.9184 35.3878L42.9552 35.3951H42.9812L43.0106 35.3878H43.0365L43.0734 35.3912L43.1028 35.3951H43.1284L43.1619 35.3878L43.1914 35.3912H43.2171L43.2762 35.3656L43.3057 35.3063V35.2213L43.3018 35.1878L43.2983 35.1694V35.0509L43.3057 35.025L43.3018 34.9919L43.2983 34.9624V34.929L43.3018 34.9032L43.3057 34.8736V34.8476L43.2983 34.8181L43.3018 34.7849V34.7551L43.2873 34.7107L43.2687 34.6885ZM43.2245 33.5196L43.1948 33.516L43.1619 33.5236L43.1323 33.5196H43.1028L43.0659 33.5236H43.0365L42.9773 33.516L42.9516 33.5236L42.9221 33.516L42.8631 33.5494L42.837 33.6011L42.8335 33.6307L42.837 33.6565V33.7456L42.8335 33.7787L42.8409 33.8046V33.8599L42.8335 33.8896L42.8409 33.9192L42.837 33.9525V33.9782L42.8409 34.0006L42.837 34.0337L42.8335 34.0635L42.837 34.0969L42.8335 34.119L42.8595 34.1707L42.8706 34.1854L42.9258 34.2077H42.9516L42.9812 34.2041H43.0143L43.0365 34.2077L43.0659 34.2002L43.1065 34.2041H43.158L43.1914 34.2077H43.2171L43.2651 34.1892L43.2873 34.1671L43.3057 34.119L43.3018 34.0892L43.2983 34.0635L43.3057 34.0377L43.3018 34.008L43.3057 33.9782V33.9451L43.2983 33.9156V33.8563L43.3057 33.8304V33.8082L43.2983 33.7711L43.3057 33.7456V33.7194L43.3018 33.6862V33.6565L43.3057 33.6345L43.3018 33.6048L43.2762 33.5494L43.2245 33.5196ZM43.586 33.0943L43.6005 33.1165L43.6302 33.135L43.6487 33.1571L43.6707 33.1719L43.6854 33.1979L43.7259 33.2423L43.7484 33.2681L43.7665 33.3126L43.7704 33.346V33.3719L43.7665 33.4014L43.7704 33.4309L43.7665 33.4642L43.7739 33.4938V33.5862L43.7665 33.6157L43.7739 33.6379L43.7704 33.6677L43.7665 33.7047L43.7739 33.7344L43.7704 33.7601L43.7665 33.7899L43.7704 33.8232V33.8749L43.7665 33.9044L43.7704 33.9414L43.7739 33.9711L43.7704 33.993L43.7739 34.0228L43.7665 34.0524L43.7704 34.0858V34.1152L43.7665 34.1488L43.7704 34.1745L43.7518 34.2262L43.7259 34.2486L43.7113 34.2743L43.6854 34.2893L43.6633 34.3074L43.6448 34.3372L43.6265 34.3596L43.6081 34.3705L43.5637 34.4184L43.56 34.4556L43.6005 34.5072L43.6265 34.5184L43.6448 34.5407L43.6671 34.5701L43.6929 34.5851L43.7075 34.6072L43.7334 34.6256L43.7484 34.6516L43.7739 34.7072L43.7665 34.7329L43.7739 34.7662L43.7665 34.7882V34.8216L43.7739 34.8476L43.7704 34.8845L43.7739 34.9143V34.9438L43.7704 34.9733L43.7665 34.9956L43.7739 35.025L43.7665 35.0548L43.7704 35.088L43.7739 35.1139L43.7665 35.1472L43.7739 35.1768L43.7665 35.2028L43.7739 35.2397V35.2657L43.7665 35.2988V35.3284L43.7704 35.3579V35.3839L43.7739 35.4098V35.4432L43.7704 35.4727L43.7739 35.5061V35.532L43.7665 35.5653V35.5946L43.7518 35.6466L43.7259 35.6614L43.7113 35.6873L43.6929 35.7095L43.6707 35.7315L43.6522 35.7463L43.6265 35.7687L43.6042 35.7947L43.5895 35.813L43.56 35.8425L43.5159 35.8573L43.4865 35.8537H43.4311L43.4014 35.8611L43.372 35.8573L43.3387 35.8537L43.3093 35.8611L43.2797 35.8537L43.2502 35.8611H43.2208L43.1948 35.8573L43.1654 35.8537L43.136 35.8611L43.1028 35.8537L43.0695 35.8573L43.0474 35.8537L43.0214 35.8573L42.9849 35.8537H42.9258L42.8961 35.8611L42.8741 35.8573H42.8115L42.7857 35.8611H42.7524L42.7192 35.8573H42.6972L42.6639 35.8611L42.6381 35.8537L42.5828 35.8389L42.5644 35.8167L42.5238 35.7758L42.4979 35.7538L42.4759 35.7281L42.4575 35.7058L42.4353 35.6836L42.4094 35.6648L42.3874 35.6394L42.3616 35.5946L42.3651 35.5578L42.3688 35.5283L42.3651 35.5061V35.4689L42.3688 35.4468L42.3616 35.4173L42.3651 35.3839L42.3616 35.3579V35.3211L42.3688 35.2915L42.3651 35.2619V35.2397L42.3616 35.2028L42.3688 35.1731V35.1212L42.3651 35.088V35.0621L42.3688 35.0326V35.0029L42.3651 34.9698L42.3688 34.9362V34.8809L42.3616 34.8514L42.3688 34.8216L42.3616 34.7882L42.3688 34.7626L42.3616 34.7368L42.3651 34.7032L42.391 34.6554L42.4131 34.6256L42.4281 34.6072L42.4465 34.5887L42.4722 34.5701L42.4905 34.5407L42.5164 34.5184L42.5311 34.5036L42.5754 34.4556V34.4148L42.5496 34.4003L42.5311 34.3741L42.5164 34.3596L42.4905 34.3372L42.4759 34.3074L42.4465 34.2893L42.4314 34.2707L42.4094 34.2521L42.3874 34.2262L42.3688 34.1707L42.3651 34.1447V34.1152L42.3688 34.0819L42.3651 34.0524L42.3688 34.0302L42.3616 33.993L42.3688 33.9673L42.3651 33.9414L42.3616 33.9081L42.3651 33.882L42.3616 33.8527L42.3688 33.8157L42.3651 33.7934V33.7565L42.3616 33.7267V33.7047L42.3651 33.6713V33.6418L42.3616 33.6123L42.3688 33.5826L42.3651 33.5567L42.3688 33.5196V33.4642L42.3651 33.4309L42.3616 33.4014L42.3651 33.3791L42.3688 33.3496L42.3616 33.3165L42.3874 33.2645L42.4094 33.2423L42.4281 33.2166L42.4537 33.1943L42.4979 33.1537L42.5164 33.1313L42.5385 33.1165L42.5681 33.0943L42.5902 33.0649L42.6345 33.05L42.6601 33.0463L42.6898 33.05L42.723 33.0426L42.7562 33.0463L42.7818 33.0426H42.8666L42.8961 33.0463L42.9296 33.05L42.9626 33.0463H42.9884L43.0143 33.05L43.0437 33.0426L43.0769 33.05L43.0989 33.0463L43.1284 33.05L43.1654 33.0426H43.1914L43.2171 33.05L43.2502 33.0426L43.2762 33.0463H43.313L43.3354 33.05L43.3682 33.0426L43.3979 33.0463H43.4234L43.4531 33.0426L43.4865 33.05L43.5196 33.0426L43.5637 33.0649L43.586 33.0943" fill="#393939"/>
<path id="path128" d="M45.5763 33.8158L45.5835 33.8453L45.5909 33.8784L45.5983 33.9082L45.58 33.9414L45.5504 33.9377L45.5283 33.9414H45.4912L45.4655 33.9377L45.4361 33.9341L45.403 33.9414L45.377 33.9341H45.3439L45.3145 33.9377H45.2884L45.2629 33.9341L45.2259 33.9414H45.1667L45.1447 33.9377L45.1117 33.9341H45.0856L45.0562 33.9377L45.0377 33.9118L45.0487 33.882V33.8489L45.0636 33.8232L45.0782 33.7934L45.0856 33.7267L45.0821 33.6972V33.6713L45.0856 33.6346L45.0782 33.6011L45.0562 33.5455L45.0045 33.5272L44.9678 33.5197L44.9457 33.5272L44.9087 33.5236H44.8793L44.8533 33.5272H44.7317L44.6949 33.5236L44.6468 33.5345L44.6286 33.5567L44.61 33.6011L44.6135 33.6307V33.6899L44.6065 33.7565L44.6135 33.7861L44.6065 33.8082L44.61 33.8415L44.6065 33.8711V33.9304L44.6135 33.9563L44.61 33.9894L44.6065 34.0192L44.6135 34.0487L44.6065 34.0782L44.6135 34.1116V34.1411L44.6286 34.1854L44.6468 34.2042L44.6949 34.2262H44.7243L44.7537 34.2188H44.7797L44.8091 34.2226L44.8424 34.2262L44.8718 34.2226H44.9014L44.9308 34.2188L44.9567 34.2226H45.0193L45.0527 34.2262H45.1373L45.1667 34.2188L45.1964 34.2226L45.2295 34.2262L45.259 34.2188L45.285 34.2226L45.3329 34.2373L45.3549 34.2631L45.3807 34.2817L45.4066 34.3002L45.4213 34.3224L45.4694 34.3742L45.484 34.389L45.5098 34.4074L45.5318 34.4371L45.5469 34.4778L45.5504 34.5111L45.5469 34.5407V34.5962L45.5543 34.6257L45.5469 34.6589L45.5543 34.6849V34.7182L45.5469 34.7515L45.5504 34.7699L45.5543 34.7994L45.5469 34.8292V34.892L45.5504 34.9252L45.5543 34.9512L45.5469 34.9807L45.5543 35.0142L45.5469 35.0363L45.5543 35.0621V35.0918L45.5469 35.1252L45.5504 35.1547L45.5543 35.1808L45.5469 35.2175L45.5504 35.2435V35.2693L45.5543 35.3027V35.3284L45.5469 35.3617L45.5504 35.3839V35.4173L45.5543 35.4505L45.5469 35.48L45.5543 35.5061L45.5504 35.5393L45.5469 35.5653V35.591L45.5357 35.6394L45.5098 35.6648L45.4912 35.6909L45.4617 35.7132L45.44 35.7353L45.4287 35.7539L45.4066 35.7758L45.3807 35.7947L45.3587 35.8168L45.3402 35.8389L45.285 35.8611L45.259 35.8573L45.2259 35.8611L45.2038 35.8573H45.1411L45.1079 35.8611L45.0856 35.8649L45.0562 35.8611H45.0233L44.9973 35.8649H44.9713L44.9419 35.8611L44.9087 35.8573H44.846L44.8239 35.8611L44.7908 35.8573L44.7614 35.8649L44.7317 35.8573L44.7061 35.8649H44.68L44.6468 35.8611L44.621 35.8573L44.5842 35.8649H44.5583L44.5289 35.8573H44.4698L44.4404 35.8649L44.4072 35.8611L44.3593 35.8425L44.3372 35.8168L44.3187 35.7947L44.2781 35.7504L44.2558 35.7281L44.234 35.7058L44.219 35.6909L44.1934 35.6615L44.1712 35.6429L44.1527 35.591V35.5653L44.1453 35.532V35.5097L44.1491 35.4766L44.1527 35.4468L44.1453 35.421L44.1491 35.3878V35.2988L44.1527 35.2729V35.1842L44.1379 35.1252L44.1269 35.088L44.1233 35.0586L44.1047 35.0068L44.1195 34.9699L44.1785 34.9771L44.2044 34.9699H44.234L44.2709 34.9734H44.3297L44.3555 34.9771L44.3811 34.9734L44.4182 34.9699L44.4404 34.9771L44.4737 34.9699L44.5066 34.9771L44.5361 34.9699L44.5621 34.9771H44.5915L44.6248 34.9734L44.6506 34.9699L44.6617 35.003L44.6544 35.0326L44.6429 35.0658L44.636 35.0954L44.6248 35.1252L44.6135 35.1768L44.6065 35.236L44.6135 35.2657L44.61 35.2952L44.6248 35.3507L44.6468 35.3728L44.6984 35.3839H44.7317L44.7575 35.3912L44.7908 35.3839H44.8239L44.846 35.3912L44.8793 35.3878L44.9087 35.3912L44.9382 35.3878L44.9713 35.3839L45.0045 35.3878L45.0452 35.369L45.071 35.3544L45.0856 35.3027V35.2769L45.0782 35.2435L45.0821 35.2175L45.0782 35.1808L45.0856 35.1547V35.0068L45.0821 34.9807V34.9547L45.0856 34.9181L45.0782 34.8883V34.8588L45.0821 34.8328L45.0782 34.7994L45.0856 34.7774L45.071 34.7256L45.0452 34.7107L45.001 34.6886H44.9751L44.9382 34.6923L44.9125 34.6961H44.8866L44.8499 34.6886H44.7614L44.7391 34.6923H44.702L44.68 34.6961H44.6429L44.6174 34.6886H44.5842L44.5547 34.6923L44.5289 34.6961L44.5031 34.6923L44.4662 34.6886L44.4366 34.6923L44.4072 34.6886L44.3629 34.6663L44.3223 34.6257L44.3003 34.6034L44.2781 34.5813L44.2524 34.5667L44.234 34.5367L44.219 34.5222L44.1934 34.4924L44.1712 34.4778L44.1453 34.426L44.1491 34.3927V34.3631L44.1453 34.3373L44.1527 34.3112L44.1453 34.2743L44.1491 34.2521L44.1453 34.215L44.1527 34.1892L44.1453 34.1633L44.1491 34.1302L44.1453 34.1004L44.1491 34.0709L44.1453 34.0487L44.1527 34.0117L44.1453 33.9821V33.9525L44.1527 33.9227L44.1491 33.897V33.812L44.1527 33.7823L44.1453 33.7565L44.1491 33.7267V33.6972L44.1453 33.6602L44.1491 33.6346V33.6048L44.1527 33.5791L44.1491 33.5419L44.1453 33.5197V33.4829L44.1491 33.4531V33.4309L44.1453 33.4014L44.1527 33.3719L44.1491 33.3421L44.1453 33.309L44.1527 33.2497L44.1453 33.2275L44.1527 33.1944V33.1684L44.1491 33.1351L44.1527 33.1056V33.0721L44.1747 33.0501H44.267L44.2964 33.0463L44.3223 33.0501L44.3555 33.0463H44.4146L44.4476 33.0501L44.4772 33.0426L44.4995 33.0501H44.5325L44.5583 33.0463H44.5915L44.621 33.0426H44.6765L44.7061 33.0463L44.7317 33.0501L44.7649 33.0426H44.7979L44.8276 33.0501L44.846 33.0463H44.9087L44.9382 33.0426H44.9639L45.001 33.0501L45.0267 33.0426L45.0598 33.0463L45.0856 33.0426L45.1152 33.0501H45.1485L45.1741 33.0463H45.2295L45.259 33.0501H45.2923L45.3145 33.0426H45.3475L45.3735 33.0463L45.4066 33.0501L45.4361 33.0463H45.4988L45.5248 33.0501L45.5543 33.0796V33.1387L45.5504 33.161V33.2868L45.5579 33.309L45.5543 33.346L45.5579 33.3719L45.5543 33.405V33.4275L45.5579 33.4642V33.4864L45.5543 33.5197V33.5531L45.5504 33.5752L45.5579 33.6084L45.5504 33.6346L45.5579 33.6677L45.5543 33.701L45.5504 33.7267L45.5615 33.7861L45.5763 33.8158" fill="#393939"/>
</g>
<g id="&#208;&#159;&#208;&#152;&#208;&#146;&#208;&#156;&#208;&#144;&#208;&#147;&#208;&#144;&#208;&#151;">
<path d="M14.4497 31.0636V35.9364H13.7376V31.9705H12.6764V35.9364H11.9663V31.0636H14.4497Z" fill="#393939"/>
<path d="M15.5677 34.1392L16.6288 31.0636H17.341V35.9364H16.6288V32.8641L15.5677 35.9364H14.8555V31.0636H15.5677V34.1392Z" fill="#393939"/>
<path d="M18.9824 33.8648H18.2216L18.2175 33.095H18.8343C18.9452 33.095 19.0338 33.075 19.1001 33.0348C19.1664 32.9924 19.2144 32.9311 19.2442 32.8507C19.2753 32.7704 19.2908 32.67 19.2908 32.5495C19.2908 32.4112 19.2753 32.2996 19.2442 32.2149C19.2131 32.1301 19.1637 32.0687 19.096 32.0308C19.0298 31.9906 18.9439 31.9705 18.8384 31.9705H18.4894V35.9364H17.7772V31.0636H18.8384C19.021 31.0636 19.184 31.0915 19.3273 31.1473C19.4707 31.2008 19.5925 31.2834 19.6926 31.3949C19.794 31.5065 19.8711 31.647 19.9239 31.8166C19.9766 31.9839 20.003 32.1814 20.003 32.409C20.003 32.6075 19.9773 32.7938 19.9259 32.9679C19.8745 33.1419 19.7886 33.2836 19.6682 33.3929C19.5492 33.5 19.3862 33.5558 19.1792 33.5602L18.9824 33.8648ZM18.954 35.9364H18.0491L18.2926 35.0328H18.954C19.0514 35.0328 19.1292 35.0083 19.1874 34.9592C19.2469 34.9079 19.2895 34.8409 19.3152 34.7584C19.3422 34.6736 19.3558 34.5799 19.3558 34.4772C19.3558 34.3523 19.3429 34.2441 19.3172 34.1526C19.2929 34.0611 19.2536 33.9909 19.1995 33.9418C19.1454 33.8905 19.0731 33.8648 18.9824 33.8648H18.3839L18.3879 33.095H19.1042L19.2705 33.4029C19.468 33.3896 19.6243 33.4353 19.7392 33.5402C19.8556 33.645 19.9387 33.7834 19.9888 33.9552C20.0388 34.127 20.0639 34.3066 20.0639 34.494C20.0639 34.813 20.0219 35.0797 19.9381 35.2938C19.8556 35.508 19.7318 35.6687 19.5668 35.7758C19.4017 35.8829 19.1975 35.9364 18.954 35.9364Z" fill="#393939"/>
<path d="M20.8125 31.0636H21.3928L22.0522 34.4538L22.7116 31.0636H23.2919L22.2876 35.9364H21.8169L20.8125 31.0636ZM20.4595 31.0636H21.0601L21.1717 34.7985V35.9364H20.4595V31.0636ZM23.0444 31.0636H23.647V35.9364H22.9328V34.7985L23.0444 31.0636Z" fill="#393939"/>
<path d="M25.3919 32.0877L24.6716 35.9364H23.9067L24.9922 31.0636H25.4771L25.3919 32.0877ZM25.9884 35.9364L25.2661 32.0877L25.1728 31.0636H25.6638L26.7553 35.9364H25.9884ZM25.96 34.1191V35.0261H24.4444V34.1191H25.96Z" fill="#393939"/>
<path d="M28.9628 31.0636V31.9705H27.6785V35.9364H26.9684V31.0636H28.9628Z" fill="#393939"/>
<path d="M30.1234 32.0877L29.4031 35.9364H28.6382L29.7237 31.0636H30.2086L30.1234 32.0877ZM30.7199 35.9364L29.9976 32.0877L29.9043 31.0636H30.3953L31.4869 35.9364H30.7199ZM30.6915 34.1191V35.0261H29.1759V34.1191H30.6915Z" fill="#393939"/>
<path d="M32.9031 33.6037H32.3938V33.0147H32.7712C32.8591 33.0147 32.9301 32.9913 32.9842 32.9444C33.0383 32.8954 33.0782 32.8262 33.1039 32.7369C33.1296 32.6455 33.1425 32.5384 33.1425 32.4157C33.1425 32.3242 33.1276 32.2394 33.0978 32.1613C33.0694 32.0832 33.0255 32.0207 32.966 31.9739C32.9065 31.927 32.8307 31.9036 32.7387 31.9036C32.6684 31.9036 32.6041 31.9226 32.546 31.9605C32.4878 31.9984 32.4418 32.0542 32.408 32.1278C32.3742 32.1992 32.3573 32.2885 32.3573 32.3956H31.6471C31.6471 32.1769 31.6762 31.9817 31.7344 31.8099C31.7926 31.6381 31.8717 31.492 31.9718 31.3715C32.0732 31.251 32.1896 31.1595 32.3208 31.0971C32.4533 31.0324 32.5926 31 32.7387 31C32.9078 31 33.0607 31.0301 33.1973 31.0904C33.3339 31.1484 33.4509 31.2354 33.5483 31.3514C33.647 31.4674 33.7228 31.6124 33.7755 31.7865C33.8283 31.9583 33.8546 32.158 33.8546 32.3855C33.8546 32.5529 33.8317 32.7102 33.7857 32.8574C33.741 33.0047 33.6768 33.1341 33.5929 33.2456C33.5091 33.3572 33.4083 33.4453 33.2906 33.51C33.1743 33.5725 33.0451 33.6037 32.9031 33.6037ZM32.3938 33.3059H32.9031C33.0613 33.3059 33.202 33.3338 33.3251 33.3896C33.4482 33.4453 33.5523 33.5268 33.6376 33.6339C33.7241 33.741 33.7897 33.8737 33.8344 34.0321C33.879 34.1883 33.9013 34.3679 33.9013 34.571C33.9013 34.7985 33.8722 35.0016 33.8141 35.1801C33.7573 35.3563 33.6768 35.5058 33.5726 35.6285C33.4685 35.7512 33.3454 35.8438 33.2034 35.9063C33.0627 35.9688 32.9078 36 32.7387 36C32.6021 36 32.4662 35.9732 32.3309 35.9197C32.197 35.8639 32.0753 35.7791 31.9657 35.6653C31.8561 35.5515 31.7682 35.4054 31.7019 35.2269C31.637 35.0484 31.6045 34.8342 31.6045 34.5843H32.3187C32.3187 34.6825 32.3363 34.7706 32.3715 34.8487C32.408 34.9268 32.4581 34.9882 32.5216 35.0328C32.5852 35.0774 32.6576 35.0997 32.7387 35.0997C32.8334 35.0997 32.9139 35.0752 32.9802 35.0261C33.0478 34.977 33.0992 34.9101 33.1344 34.8253C33.1695 34.7405 33.1871 34.6468 33.1871 34.5442C33.1871 34.4237 33.1783 34.3222 33.1607 34.2396C33.1432 34.1548 33.1168 34.0868 33.0816 34.0355C33.0464 33.9819 33.0025 33.944 32.9497 33.9217C32.8983 33.8971 32.8388 33.8849 32.7712 33.8849H32.3938V33.3059Z" fill="#393939"/>
</g>
</g>
</svg>
