<svg width="270" height="17" viewBox="0 0 270 17" fill="none" xmlns="http://www.w3.org/2000/svg">
<g id="Vector">
<path d="M268.5 7L1.50001 7C0.671578 7 -7.2424e-08 7.67158 0 8.50001C7.2424e-08 9.32844 0.671578 10 1.50001 10L268.5 10C269.328 10 270 9.32844 270 8.50001C270 7.67158 269.328 7 268.5 7Z" fill="#EAEAEA"/>
<path d="M197 7.00001L29 7V10L197 10V7.00001Z" fill="#FFBF00"/>
<path d="M36 8.5C36 13.1944 32.1944 17 27.5 17C22.8056 17 19 13.1944 19 8.5C19 3.80558 22.8056 0 27.5 0C32.1944 0 36 3.80558 36 8.5Z" fill="#FFC003"/>
<path d="M207 8.5C207 13.1944 203.194 17 198.5 17C193.806 17 190 13.1944 190 8.5C190 3.80558 193.806 0 198.5 0C203.194 0 207 3.80558 207 8.5Z" fill="#FFC003"/>
</g>
</svg>
