<svg width="15" height="15" viewBox="0 0 15 15" fill="none" xmlns="http://www.w3.org/2000/svg">
<g id="ant-design:question-circle-outlined" clip-path="url(#clip0_111_87)">
<path id="Vector" d="M7.5 0.0625C3.39277 0.0625 0.0625 3.39277 0.0625 7.5C0.0625 11.6072 3.39277 14.9375 7.5 14.9375C11.6072 14.9375 14.9375 11.6072 14.9375 7.5C14.9375 3.39277 11.6072 0.0625 7.5 0.0625ZM7.5 13.6758C4.09004 13.6758 1.32422 10.91 1.32422 7.5C1.32422 4.09004 4.09004 1.32422 7.5 1.32422C10.91 1.32422 13.6758 4.09004 13.6758 7.5C13.6758 10.91 10.91 13.6758 7.5 13.6758Z" fill="#979797"/>
<path id="Vector_2" d="M9.35273 4.25772C8.85469 3.82109 8.19727 3.58203 7.5 3.58203C6.80273 3.58203 6.14531 3.82275 5.64727 4.25772C5.1293 4.71094 4.84375 5.32021 4.84375 5.97266V6.09883C4.84375 6.17188 4.90352 6.23164 4.97656 6.23164H5.77344C5.84648 6.23164 5.90625 6.17188 5.90625 6.09883V5.97266C5.90625 5.24053 6.62178 4.64453 7.5 4.64453C8.37822 4.64453 9.09375 5.24053 9.09375 5.97266C9.09375 6.48896 8.72852 6.96211 8.1624 7.17959C7.81045 7.31406 7.51162 7.5498 7.29746 7.85859C7.07998 8.17402 6.96709 8.55254 6.96709 8.93604V9.29297C6.96709 9.36602 7.02686 9.42578 7.0999 9.42578H7.89678C7.96982 9.42578 8.02959 9.36602 8.02959 9.29297V8.91611C8.03045 8.75495 8.07985 8.59778 8.17136 8.46511C8.26287 8.33244 8.39223 8.23042 8.54258 8.17236C9.52207 7.79551 10.1546 6.93223 10.1546 5.97266C10.1563 5.32021 9.8707 4.71094 9.35273 4.25772ZM6.83594 11.1523C6.83594 11.3285 6.9059 11.4974 7.03044 11.6219C7.15497 11.7464 7.32388 11.8164 7.5 11.8164C7.67612 11.8164 7.84503 11.7464 7.96956 11.6219C8.0941 11.4974 8.16406 11.3285 8.16406 11.1523C8.16406 10.9762 8.0941 10.8073 7.96956 10.6828C7.84503 10.5582 7.67612 10.4883 7.5 10.4883C7.32388 10.4883 7.15497 10.5582 7.03044 10.6828C6.9059 10.8073 6.83594 10.9762 6.83594 11.1523Z" fill="#979797"/>
</g>
<defs>
<clipPath id="clip0_111_87">
<rect width="15" height="15" fill="white"/>
</clipPath>
</defs>
</svg>
