<svg width="23" height="23" viewBox="0 0 23 23" fill="none" xmlns="http://www.w3.org/2000/svg">
<g id="Vector">
<path d="M11.5006 6C10.3074 6.00121 9.16355 6.38154 8.31986 7.05756C7.47617 7.73359 7.00151 8.65012 7 9.60617H9.28804C9.28804 8.62808 10.281 7.83333 11.5006 7.83333C12.7201 7.83333 13.7131 8.62808 13.7131 9.60617C13.7131 10.1543 13.1628 10.5522 12.322 11.0967C12.0473 11.2691 11.7835 11.4523 11.5315 11.6458C10.3897 12.5597 10.3566 13.5304 10.3566 13.6386V14.25H12.6446L12.6434 13.6698C12.6446 13.6551 12.6812 13.3159 13.148 12.9428C13.3196 12.8053 13.5358 12.6678 13.76 12.523C14.6512 11.9446 16 11.071 16 9.60617C15.9991 8.65013 15.5248 7.73345 14.6812 7.05735C13.8376 6.38125 12.6937 6.00097 11.5006 6ZM10.3566 15.1667H12.6446V17H10.3566V15.1667Z" fill="#27CFA7"/>
<path d="M11.5 0C5.1589 0 0 5.1589 0 11.5C0 17.8411 5.1589 23 11.5 23C17.8411 23 23 17.8411 23 11.5C23 5.1589 17.8411 0 11.5 0ZM11.5 20.7C6.42735 20.7 2.3 16.5726 2.3 11.5C2.3 6.42735 6.42735 2.3 11.5 2.3C16.5726 2.3 20.7 6.42735 20.7 11.5C20.7 16.5726 16.5726 20.7 11.5 20.7Z" fill="#27CFA7"/>
</g>
</svg>
