<svg width="13" height="15" viewBox="0 0 13 15" fill="none" xmlns="http://www.w3.org/2000/svg">
<path id="&#226;&#130;&#189;" d="M7.57812 9.42383H0.302734V7.89062H7.57812C8.28776 7.89062 8.87044 7.77669 9.32617 7.54883C9.7819 7.32096 10.1172 6.9987 10.332 6.58203C10.5534 6.16536 10.6641 5.67383 10.6641 5.10742C10.6641 4.64518 10.5599 4.20247 10.3516 3.7793C10.1497 3.35612 9.82096 3.00781 9.36523 2.73438C8.91602 2.46094 8.32031 2.32422 7.57812 2.32422H4.19922V15H2.32422V0.78125H7.57812C8.65234 0.78125 9.55729 0.966797 10.293 1.33789C11.0286 1.70247 11.5853 2.21029 11.9629 2.86133C12.347 3.50586 12.5391 4.24805 12.5391 5.08789C12.5391 5.99935 12.347 6.7806 11.9629 7.43164C11.5853 8.07617 11.0286 8.57096 10.293 8.91602C9.55729 9.25456 8.65234 9.42383 7.57812 9.42383ZM7.46094 10.7617V12.3047H0.302734V10.7617H7.46094Z" fill="#979797"/>
</svg>
