<svg width="16" height="20" viewBox="0 0 16 20" fill="none" xmlns="http://www.w3.org/2000/svg">
<path id="Vector" d="M7.98745 19.9973C7.72089 19.9978 7.46255 19.9049 7.2573 19.7346L0.412138 14.0232C0.179156 13.8294 0.0326414 13.5507 0.00482755 13.2487C-0.0229863 12.9467 0.0701785 12.6459 0.263826 12.4126C0.457474 12.1794 0.735743 12.0327 1.03742 12.0048C1.33909 11.977 1.63946 12.0703 1.87244 12.2642L6.66667 16.2762V1.5C6.66667 0.671573 7.26362 0 8 0C8.73638 0 9.33333 0.671573 9.33333 1.5V16.2954L14.1025 12.4469C14.2192 12.352 14.3534 12.2812 14.4976 12.2384C14.6417 12.1957 14.7929 12.1818 14.9423 12.1978C15.0918 12.2137 15.2367 12.259 15.3686 12.3312C15.5005 12.4034 15.6169 12.5009 15.7111 12.6183C15.8156 12.7357 15.8947 12.8735 15.9435 13.023C15.9923 13.1725 16.0098 13.3305 15.9948 13.487C15.9798 13.6436 15.9327 13.7954 15.8564 13.9328C15.7801 14.0703 15.6762 14.1905 15.5514 14.286L8.70619 19.8031C8.49504 19.9465 8.24198 20.0149 7.98745 19.9973Z" fill="#393939"/>
</svg>
