<svg width="22" height="20" viewBox="0 0 22 20" fill="none" xmlns="http://www.w3.org/2000/svg">
<path d="M20.9664 7.04257L14.4711 6.1301L11.5676 0.440169C11.4883 0.284382 11.3578 0.158269 11.1966 0.0816119C10.7925 -0.111267 10.3013 0.0494654 10.0992 0.440169L7.19564 6.1301L0.700393 7.04257C0.521319 7.0673 0.357595 7.1489 0.232244 7.27254C0.0807009 7.4231 -0.0028061 7.62566 7.20026e-05 7.8357C0.00295011 8.04575 0.0919778 8.2461 0.247593 8.39272L4.94699 12.8215L3.83673 19.0753C3.8107 19.2207 3.82735 19.3704 3.88481 19.5071C3.94226 19.6439 4.03822 19.7624 4.1618 19.8492C4.28538 19.9359 4.43163 19.9875 4.58398 19.998C4.73633 20.0085 4.88867 19.9775 5.02373 19.9086L10.8334 16.9561L16.643 19.9086C16.8016 19.9902 16.9858 20.0174 17.1623 19.9877C17.6075 19.9135 17.9068 19.5055 17.83 19.0753L16.7198 12.8215L21.4192 8.39272C21.5471 8.27156 21.6315 8.1133 21.6571 7.9402C21.7262 7.50746 21.4141 7.10686 20.9664 7.04257V7.04257Z" fill="#FFC003"/>
</svg>
