<svg width="23" height="15" viewBox="0 0 23 15" fill="none" xmlns="http://www.w3.org/2000/svg">
<path id="&#208;&#180;&#208;&#190;" d="M3.28125 0.433594H5.08789L4.93164 4.38867C4.89258 5.39128 4.77865 6.25716 4.58984 6.98633C4.40104 7.71549 4.16016 8.33724 3.86719 8.85156C3.57422 9.35938 3.24544 9.78581 2.88086 10.1309C2.52279 10.4759 2.15169 10.7656 1.76758 11H0.869141L0.917969 9.52539L1.28906 9.51562C1.50391 9.26172 1.71224 9.0013 1.91406 8.73438C2.11589 8.46094 2.30143 8.13867 2.4707 7.76758C2.63997 7.38997 2.77995 6.93099 2.89062 6.39062C3.00781 5.84375 3.08268 5.17643 3.11523 4.38867L3.28125 0.433594ZM3.73047 0.433594H10.0879V11H8.28125V2.10352H3.73047V0.433594ZM0.458984 9.51562H11.4453V14.1152H9.63867V11H2.26562V14.1152H0.449219L0.458984 9.51562ZM12.9688 5.83398V5.60938C12.9688 4.84766 13.0794 4.14128 13.3008 3.49023C13.5221 2.83268 13.8411 2.26302 14.2578 1.78125C14.6745 1.29297 15.179 0.915365 15.7715 0.648438C16.3639 0.375 17.028 0.238281 17.7637 0.238281C18.5059 0.238281 19.1732 0.375 19.7656 0.648438C20.3646 0.915365 20.8724 1.29297 21.2891 1.78125C21.7122 2.26302 22.0345 2.83268 22.2559 3.49023C22.4772 4.14128 22.5879 4.84766 22.5879 5.60938V5.83398C22.5879 6.5957 22.4772 7.30208 22.2559 7.95312C22.0345 8.60417 21.7122 9.17383 21.2891 9.66211C20.8724 10.1439 20.3678 10.5215 19.7754 10.7949C19.1895 11.0618 18.5254 11.1953 17.7832 11.1953C17.041 11.1953 16.3737 11.0618 15.7812 10.7949C15.1888 10.5215 14.681 10.1439 14.2578 9.66211C13.8411 9.17383 13.5221 8.60417 13.3008 7.95312C13.0794 7.30208 12.9688 6.5957 12.9688 5.83398ZM14.7754 5.60938V5.83398C14.7754 6.36133 14.8372 6.85938 14.9609 7.32812C15.0846 7.79036 15.2702 8.20052 15.5176 8.55859C15.7715 8.91667 16.0872 9.19987 16.4648 9.4082C16.8424 9.61003 17.2819 9.71094 17.7832 9.71094C18.278 9.71094 18.7109 9.61003 19.082 9.4082C19.4596 9.19987 19.7721 8.91667 20.0195 8.55859C20.2669 8.20052 20.4525 7.79036 20.5762 7.32812C20.7064 6.85938 20.7715 6.36133 20.7715 5.83398V5.60938C20.7715 5.08854 20.7064 4.59701 20.5762 4.13477C20.4525 3.66602 20.2637 3.2526 20.0098 2.89453C19.7624 2.52995 19.4499 2.24349 19.0723 2.03516C18.7012 1.82682 18.265 1.72266 17.7637 1.72266C17.2689 1.72266 16.8327 1.82682 16.4551 2.03516C16.084 2.24349 15.7715 2.52995 15.5176 2.89453C15.2702 3.2526 15.0846 3.66602 14.9609 4.13477C14.8372 4.59701 14.7754 5.08854 14.7754 5.60938Z" fill="#979797"/>
</svg>
