<svg width="30" height="24" viewBox="0 0 30 24" fill="none" xmlns="http://www.w3.org/2000/svg">
<path id="Vector" d="M24.4849 10.6771C24.4849 10.6771 24.8805 12.6701 24.9695 13.0877H23.2305L24.0639 10.7571C24.0536 10.7735 24.2355 10.2692 24.3396 9.9587L24.4849 10.6771ZM30 2.57164V21.4284C29.9998 22.1103 29.7363 22.7643 29.2674 23.2465C28.7986 23.7287 28.1628 23.9997 27.4998 24H2.50023C1.83721 23.9997 1.20141 23.7287 0.732576 23.2465C0.263745 22.7643 0.000248464 22.1103 0 21.4284V2.57164C0.000248464 1.88967 0.263745 1.23572 0.732576 0.753497C1.20141 0.271277 1.83721 0.00025556 2.50023 0H27.4998C28.1628 0.00025556 28.7986 0.271277 29.2674 0.753497C29.7363 1.23572 29.9998 1.88967 30 2.57164ZM7.94319 16.0286L11.2346 7.71491H9.02128L6.97478 13.3933L6.75073 12.242L6.02137 8.41687C5.90138 7.88654 5.53201 7.73612 5.07359 7.71491H1.70432L1.66776 7.88075C2.43937 8.07546 3.17952 8.384 3.86519 8.79679L5.72982 16.0286H7.94319ZM12.8602 16.0392L14.1727 7.71491H12.0793L10.7725 16.0392H12.8602ZM20.1462 13.3181C20.1566 12.3703 19.5941 11.6471 18.3913 11.0521C17.6573 10.6713 17.2092 10.4148 17.2092 10.0233C17.2195 9.66943 17.5898 9.30494 18.4119 9.30494C18.9474 9.2894 19.4795 9.39747 19.9691 9.62121L20.1566 9.71185L20.4434 7.91161C19.8449 7.67596 19.2093 7.55599 18.5685 7.55773C16.5004 7.55773 15.0473 8.69361 15.037 10.3106C15.0211 11.5053 16.0786 12.1697 16.8707 12.5708C17.6779 12.9777 17.9544 13.2458 17.9544 13.6045C17.9441 14.1618 17.2982 14.4183 16.6992 14.4183C15.8658 14.4183 15.4176 14.2843 14.7352 13.9738L14.4595 13.8398L14.168 15.7094C14.6574 15.9399 15.5639 16.1434 16.5014 16.154C18.6988 16.1588 20.1312 15.0393 20.1472 13.3152L20.1462 13.3181ZM27.4998 16.0392L25.8123 7.71491H24.1924C23.6927 7.71491 23.3121 7.86533 23.0983 8.40627L19.9888 16.0402H22.1862C22.1862 16.0402 22.5452 15.0113 22.624 14.7924H25.3117C25.3745 15.0875 25.562 16.0402 25.562 16.0402L27.4998 16.0392Z" fill="white"/>
</svg>
