<svg width="34" height="34" viewBox="0 0 34 34" fill="none" xmlns="http://www.w3.org/2000/svg">
<path id="Vector" d="M22.2183 0H11.7817C2.25774 0 0 2.25774 0 11.7817V22.2183C0 31.7423 2.25774 34 11.7817 34H22.2183C31.7423 34 34 31.7423 34 22.2183V11.7817C34 2.25774 31.7199 0 22.2183 0ZM27.4478 24.254H24.9797C24.0447 24.254 23.7568 23.5124 22.0749 21.8082C20.614 20.3919 19.9669 20.2039 19.6068 20.2039C19.0978 20.2039 18.9533 20.3473 18.9533 21.0453V23.2755C18.9533 23.8736 18.7653 24.2327 17.1822 24.2327C14.5643 24.2327 11.6595 22.6497 9.62276 19.7003C6.55117 15.3781 5.71076 12.1408 5.71076 11.4715C5.71076 11.1113 5.85419 10.7745 6.54586 10.7745H9.01928C9.64507 10.7745 9.88307 11.0624 10.1264 11.7318C11.3493 15.2623 13.386 18.3552 14.2264 18.3552C14.5367 18.3552 14.6801 18.2117 14.6801 17.4202V13.7738C14.5855 12.0919 13.7005 11.9474 13.7005 11.3503C13.7005 11.0624 13.9385 10.7745 14.3199 10.7745H18.2096C18.7355 10.7745 18.9289 11.0624 18.9289 11.6818V16.601C18.9289 17.1323 19.1669 17.3203 19.3103 17.3203C19.6206 17.3203 19.8862 17.1323 20.461 16.5564C22.2374 14.5643 23.5103 11.4927 23.5103 11.4927C23.676 11.1325 23.9639 10.7957 24.5897 10.7957H27.0632C27.8048 10.7957 27.9705 11.1772 27.8048 11.7084C27.4945 13.147 24.4675 17.4191 24.4675 17.4191C24.2072 17.8505 24.1074 18.0386 24.4675 18.5199C24.7332 18.88 25.5969 19.627 26.1717 20.2963C27.2289 21.4969 28.0417 22.5041 28.2584 23.2011C28.5017 23.8928 28.1426 24.2529 27.4446 24.2529L27.4478 24.254Z" fill="#7E7E7E"/>
</svg>
